<svg width="14" height="18" viewBox="0 0 14 18" fill="none" xmlns="http://www.w3.org/2000/svg">
<path d="M7 8.66624L5.5125 9.80137C5.425 9.87413 5.3375 9.87777 5.25 9.81228C5.1625 9.74679 5.13333 9.66311 5.1625 9.56124L5.73125 7.72758L4.2 6.50514C4.12708 6.43237 4.10521 6.34869 4.13438 6.2541C4.16354 6.15951 4.22917 6.11221 4.33125 6.11221H6.2125L6.78125 4.32221C6.81042 4.22034 6.88333 4.1694 7 4.1694C7.11667 4.1694 7.18958 4.22034 7.21875 4.32221L7.7875 6.11221H9.64687C9.74896 6.11221 9.81823 6.15951 9.85469 6.2541C9.89115 6.34869 9.87292 6.43237 9.8 6.50514L8.24687 7.72758L8.81563 9.56124C8.84479 9.66311 8.81563 9.74679 8.72812 9.81228C8.64062 9.87777 8.55312 9.87413 8.46562 9.80137L7 8.66624ZM7 16.5903L2.90937 17.9437C2.61771 18.0456 2.35156 18.0092 2.11094 17.8346C1.87031 17.6599 1.75 17.4271 1.75 17.136V11.5914C1.19583 10.9802 0.765625 10.2816 0.459375 9.49576C0.153125 8.7099 0 7.87311 0 6.98538C0 5.0353 0.678125 3.38355 2.03437 2.03013C3.39062 0.676709 5.04583 0 7 0C8.95417 0 10.6094 0.676709 11.9656 2.03013C13.3219 3.38355 14 5.0353 14 6.98538C14 7.87311 13.8469 8.7099 13.5406 9.49576C13.2344 10.2816 12.8042 10.9802 12.25 11.5914V17.136C12.25 17.4271 12.1297 17.6599 11.8891 17.8346C11.6484 18.0092 11.3823 18.0456 11.0906 17.9437L7 16.5903ZM10.7188 10.6964C11.7396 9.67767 12.25 8.44067 12.25 6.98538C12.25 5.5301 11.7396 4.2931 10.7188 3.2744C9.69792 2.2557 8.45833 1.74635 7 1.74635C5.54167 1.74635 4.30208 2.2557 3.28125 3.2744C2.26042 4.2931 1.75 5.5301 1.75 6.98538C1.75 8.44067 2.26042 9.67767 3.28125 10.6964C4.30208 11.7151 5.54167 12.2244 7 12.2244C8.45833 12.2244 9.69792 11.7151 10.7188 10.6964Z" fill="white"/>
</svg>
