<svg width="32" height="32" viewBox="0 0 32 32" fill="none" xmlns="http://www.w3.org/2000/svg">
<rect width="32" height="32" rx="16" fill="#F3F2FF"/>
<path d="M10.4934 10.1428C10.303 9.95239 9.99423 9.95239 9.8038 10.1428C9.61337 10.3333 9.61337 10.642 9.8038 10.8324L21.507 22.5357C21.6975 22.7261 22.0062 22.7261 22.1967 22.5357C22.3871 22.3453 22.3871 22.0365 22.1967 21.8461L10.4934 10.1428Z" fill="#6744FF"/>
<path d="M22.9415 16.699C22.5878 17.7623 21.9966 18.7173 21.2307 19.5009L19.2162 17.4863C19.344 17.1278 19.4137 16.7417 19.4137 16.3393C19.4137 14.4541 17.8854 12.9258 16.0002 12.9258C15.5978 12.9258 15.2117 12.9954 14.8532 13.1233L13.2428 11.513C14.0938 11.1663 15.0248 10.9753 16.0006 10.9753C19.2322 10.9753 21.9731 13.0706 22.9413 15.9755C23.0195 16.2102 23.0196 16.4642 22.9415 16.699Z" fill="#6744FF"/>
<path d="M18.4384 16.3393C18.4384 16.4564 18.4301 16.5716 18.4142 16.6843L15.6551 13.9253C15.7679 13.9093 15.8831 13.9011 16.0002 13.9011C17.3468 13.9011 18.4384 14.9927 18.4384 16.3393Z" fill="#6744FF"/>
<path d="M16.3453 18.7532L13.5863 15.9942C13.5703 16.1069 13.5621 16.2221 13.5621 16.3393C13.5621 17.6858 14.6537 18.7774 16.0002 18.7774C16.1174 18.7774 16.2326 18.7692 16.3453 18.7532Z" fill="#6744FF"/>
<path d="M12.5868 16.3393C12.5868 15.9368 12.6564 15.5507 12.7843 15.1922L10.7695 13.1774C10.0035 13.961 9.41226 14.9161 9.05852 15.9795C8.98042 16.2143 8.98049 16.4683 9.05874 16.7031C10.0269 19.6079 12.7678 21.7032 15.9994 21.7032C16.9753 21.7032 17.9064 21.5122 18.7575 21.1654L17.1473 19.5552C16.7888 19.6831 16.4027 19.7527 16.0002 19.7527C14.115 19.7527 12.5868 18.2245 12.5868 16.3393Z" fill="#6744FF"/>
</svg>
