<svg width="32" height="32" viewBox="0 0 32 32" fill="none" xmlns="http://www.w3.org/2000/svg">
<rect width="32" height="32" rx="16" fill="#F3F2FF"/>
<path d="M15.7227 9.58397C15.8907 9.47201 16.1095 9.47201 16.2774 9.58397L22.2774 13.584C22.5072 13.7372 22.5693 14.0476 22.4161 14.2773C22.2629 14.5071 21.9525 14.5692 21.7227 14.416L16.0001 10.6009L10.2774 14.416C10.0476 14.5692 9.7372 14.5071 9.58402 14.2773C9.43086 14.0476 9.49294 13.7372 9.72271 13.584L15.7227 9.58397Z" fill="#6744FF"/>
<path fill-rule="evenodd" clip-rule="evenodd" d="M21.5 14.8883V21.5H22C22.2761 21.5 22.5 21.7239 22.5 22C22.5 22.2761 22.2761 22.5 22 22.5H10C9.72386 22.5 9.5 22.2761 9.5 22C9.5 21.7239 9.72386 21.5 10 21.5H10.5V14.8883C10.5 14.6421 10.6792 14.4325 10.9225 14.3944C12.5772 14.1347 14.273 14 16 14C17.727 14 19.4228 14.1347 21.0775 14.3944C21.3208 14.4325 21.5 14.6421 21.5 14.8883ZM16.5 16.5C16.5 16.2239 16.2761 16 16 16C15.7239 16 15.5 16.2239 15.5 16.5V21C15.5 21.2761 15.7239 21.5 16 21.5C16.2761 21.5 16.5 21.2761 16.5 21V16.5ZM18.5 16C18.7761 16 19 16.2239 19 16.5V21C19 21.2761 18.7761 21.5 18.5 21.5C18.2239 21.5 18 21.2761 18 21V16.5C18 16.2239 18.2239 16 18.5 16ZM14 16.5C14 16.2239 13.7761 16 13.5 16C13.2239 16 13 16.2239 13 16.5V21C13 21.2761 13.2239 21.5 13.5 21.5C13.7761 21.5 14 21.2761 14 21V16.5Z" fill="#6744FF"/>
<path d="M16 13.25C16.4142 13.25 16.75 12.9142 16.75 12.5C16.75 12.0858 16.4142 11.75 16 11.75C15.5858 11.75 15.25 12.0858 15.25 12.5C15.25 12.9142 15.5858 13.25 16 13.25Z" fill="#6744FF"/>
</svg>
