<svg width="326" height="251" viewBox="0 0 326 251" fill="none" xmlns="http://www.w3.org/2000/svg">
<g clip-path="url(#clip0_6241_30753)">
<path d="M286.988 130.035C286.988 195.782 231.4 249.071 162.842 249.071C94.2839 249.071 38.6968 195.782 38.6968 130.035C38.6968 64.2887 94.2839 10.9995 162.842 10.9995C231.4 10.9995 286.988 64.2887 286.988 130.035Z" fill="url(#paint0_linear_6241_30753)" stroke="url(#paint1_linear_6241_30753)" stroke-width="7"/>
<path opacity="0.35" d="M164.579 215.771C195.808 215.771 221.124 212.398 221.124 208.237C221.124 204.077 195.808 200.703 164.579 200.703C133.351 200.703 108.035 204.077 108.035 208.237C108.035 212.398 133.351 215.771 164.579 215.771Z" fill="#464A60"/>
<g filter="url(#filter0_d_6241_30753)">
<path fill-rule="evenodd" clip-rule="evenodd" d="M101.513 172.562C104.716 151.361 127.563 138.853 148.469 134.885C151.882 142.242 156.734 162.244 154.147 191.231C153.542 198.014 152.529 205.288 150.996 213.008C108.728 212.415 98.7473 206.579 101.513 172.562ZM172.813 213.008C216.159 212.625 227.061 209.426 224.711 172.562C222.267 151.741 197.922 138.924 176.429 134.885C172.519 137.411 166.74 152.25 170.219 191.231C170.804 197.788 171.652 205.028 172.813 213.008Z" fill="#220B6A"/>
<path d="M150.996 213.008C154.587 213.058 158.411 213.071 162.48 213.059C166.113 213.049 169.555 213.037 172.813 213.008C171.652 205.028 170.804 197.788 170.219 191.231C170.024 195.922 166.159 198.594 162.48 205.305C157.314 197.539 154.54 195.922 154.147 191.231C153.542 198.014 152.529 205.288 150.996 213.008Z" fill="#8DB8F2"/>
<path d="M162.48 133.501C158.096 133.501 153.335 133.962 148.469 134.885C151.882 142.242 156.734 162.244 154.147 191.231C154.54 195.922 157.314 197.539 162.48 205.305C166.159 198.594 170.024 195.922 170.219 191.231C166.74 152.25 172.519 137.411 176.429 134.885C171.534 133.965 166.787 133.501 162.48 133.501Z" fill="#FC74A8"/>
<path d="M181.638 165.746H191.746" stroke="#D9D9D9" stroke-width="3" stroke-linecap="round"/>
<path d="M147.837 166.952C147.139 166.952 146.574 166.412 146.574 165.746C146.574 165.08 147.139 164.541 147.837 164.541C148.535 164.541 149.101 165.08 149.101 165.746C149.101 166.412 148.535 166.952 147.837 166.952Z" fill="#D9D9D9"/>
<path d="M147.837 192.868C147.139 192.868 146.574 192.329 146.574 191.663C146.574 190.997 147.139 190.457 147.837 190.457C148.535 190.457 149.101 190.997 149.101 191.663C149.101 192.329 148.535 192.868 147.837 192.868Z" fill="#D9D9D9"/>
</g>
<path d="M206.277 122.407C206.277 149.524 186.236 156.404 162.572 156.404C138.907 156.404 119.723 149.119 119.723 122.407C119.723 102.513 138.907 86.7907 162.572 86.7907C186.236 86.7907 206.277 102.513 206.277 122.407Z" fill="#8DB8F2"/>
<path d="M156.59 105.391C157.419 108.493 155.456 111.649 152.205 112.441C148.954 113.232 145.646 111.36 144.816 108.258C143.986 105.156 145.949 102 149.2 101.209C152.451 100.417 155.76 102.289 156.59 105.391Z" fill="white"/>
<path d="M180.905 105.453C181.734 108.555 179.771 111.711 176.52 112.502C173.269 113.294 169.96 111.421 169.131 108.32C168.301 105.218 170.264 102.062 173.515 101.27C176.766 100.479 180.075 102.351 180.905 105.453Z" fill="white"/>
<path fill-rule="evenodd" clip-rule="evenodd" d="M161.346 103.718C159.029 103.931 157.118 105.018 156.083 105.941L155.22 105.06C156.422 103.988 158.586 102.761 161.225 102.518C163.897 102.273 166.998 103.043 170.006 105.884L169.117 106.741C166.366 104.142 163.63 103.508 161.346 103.718Z" fill="white"/>
<mask id="mask0_6241_30753" style="mask-type:luminance" maskUnits="userSpaceOnUse" x="108" y="0" width="110" height="28">
<path d="M108.667 13.561C108.667 6.07149 115.031 0 122.882 0H203.118C210.969 0 217.333 6.07149 217.333 13.561C217.333 21.0506 210.969 27.1221 203.118 27.1221H122.882C115.031 27.1221 108.667 21.0506 108.667 13.561Z" fill="white"/>
</mask>
<g mask="url(#mask0_6241_30753)">
<path d="M108.667 13.561C108.667 6.07149 115.031 0 122.882 0H203.118C210.969 0 217.333 6.07149 217.333 13.561C217.333 21.0506 210.969 27.1221 203.118 27.1221H122.882C115.031 27.1221 108.667 21.0506 108.667 13.561Z" fill="#EC4699"/>
<path d="M144.899 13.561C144.899 13.1472 144.996 12.7775 145.19 12.452C145.388 12.1226 145.655 11.8674 145.992 11.6866C146.334 11.5018 146.715 11.4094 147.136 11.4094C147.629 11.4094 148.061 11.5299 148.431 11.771C148.802 12.0121 149.061 12.3456 149.208 12.7715H148.191C148.09 12.5706 147.947 12.4199 147.761 12.3195C147.58 12.219 147.37 12.1688 147.13 12.1688C146.873 12.1688 146.643 12.227 146.441 12.3436C146.243 12.4561 146.087 12.6168 145.973 12.8257C145.864 13.0347 145.809 13.2798 145.809 13.561C145.809 13.8383 145.864 14.0834 145.973 14.2964C146.087 14.5053 146.243 14.668 146.441 14.7846C146.643 14.897 146.873 14.9533 147.13 14.9533C147.37 14.9533 147.58 14.9031 147.761 14.8026C147.947 14.6982 148.09 14.5455 148.191 14.3446H149.208C149.061 14.7745 148.802 15.11 148.431 15.3511C148.065 15.5882 147.633 15.7067 147.136 15.7067C146.715 15.7067 146.334 15.6163 145.992 15.4355C145.655 15.2507 145.388 14.9955 145.19 14.67C144.996 14.3446 144.899 13.9749 144.899 13.561ZM151.392 15.7248C151.055 15.7248 150.751 15.6545 150.482 15.5138C150.212 15.3692 149.999 15.1663 149.844 14.9051C149.692 14.6439 149.616 14.3425 149.616 14.001C149.616 13.6595 149.694 13.3581 149.85 13.097C150.01 12.8358 150.227 12.6349 150.501 12.4942C150.774 12.3496 151.08 12.2773 151.417 12.2773C151.754 12.2773 152.059 12.3496 152.333 12.4942C152.607 12.6349 152.821 12.8358 152.977 13.097C153.137 13.3581 153.217 13.6595 153.217 14.001C153.217 14.3425 153.135 14.6439 152.971 14.9051C152.811 15.1663 152.592 15.3692 152.314 15.5138C152.04 15.6545 151.733 15.7248 151.392 15.7248ZM151.392 14.9895C151.551 14.9895 151.701 14.9533 151.84 14.881C151.983 14.8047 152.097 14.6921 152.181 14.5435C152.265 14.3948 152.308 14.214 152.308 14.001C152.308 13.6836 152.219 13.4405 152.042 13.2717C151.87 13.099 151.657 13.0126 151.404 13.0126C151.152 13.0126 150.939 13.099 150.766 13.2717C150.597 13.4405 150.513 13.6836 150.513 14.001C150.513 14.3184 150.596 14.5636 150.76 14.7363C150.928 14.9051 151.139 14.9895 151.392 14.9895ZM158.086 12.2833C158.516 12.2833 158.861 12.4099 159.122 12.663C159.388 12.9121 159.52 13.2617 159.52 13.7117V15.6705H158.636V13.8262C158.636 13.5651 158.566 13.3662 158.427 13.2296C158.288 13.0889 158.099 13.0186 157.859 13.0186C157.619 13.0186 157.427 13.0889 157.284 13.2296C157.145 13.3662 157.075 13.5651 157.075 13.8262V15.6705H156.191V13.8262C156.191 13.5651 156.121 13.3662 155.982 13.2296C155.843 13.0889 155.654 13.0186 155.414 13.0186C155.17 13.0186 154.976 13.0889 154.833 13.2296C154.694 13.3662 154.624 13.5651 154.624 13.8262V15.6705H153.74V12.3315H154.624V12.7353C154.738 12.5947 154.883 12.4842 155.06 12.4038C155.241 12.3235 155.439 12.2833 155.654 12.2833C155.928 12.2833 156.172 12.3396 156.387 12.452C156.602 12.5605 156.768 12.7172 156.886 12.9222C157 12.7293 157.164 12.5746 157.379 12.4581C157.598 12.3415 157.834 12.2833 158.086 12.2833ZM164.58 12.2833C165.01 12.2833 165.355 12.4099 165.617 12.663C165.882 12.9121 166.014 13.2617 166.014 13.7117V15.6705H165.13V13.8262C165.13 13.5651 165.061 13.3662 164.922 13.2296C164.783 13.0889 164.593 13.0186 164.353 13.0186C164.113 13.0186 163.921 13.0889 163.778 13.2296C163.639 13.3662 163.569 13.5651 163.569 13.8262V15.6705H162.685V13.8262C162.685 13.5651 162.615 13.3662 162.476 13.2296C162.337 13.0889 162.148 13.0186 161.908 13.0186C161.663 13.0186 161.47 13.0889 161.326 13.2296C161.187 13.3662 161.118 13.5651 161.118 13.8262V15.6705H160.233V12.3315H161.118V12.7353C161.232 12.5947 161.377 12.4842 161.554 12.4038C161.735 12.3235 161.933 12.2833 162.148 12.2833C162.422 12.2833 162.666 12.3396 162.881 12.452C163.095 12.5605 163.262 12.7172 163.38 12.9222C163.493 12.7293 163.658 12.5746 163.873 12.4581C164.092 12.3415 164.327 12.2833 164.58 12.2833ZM170.032 12.3315V15.6705H169.141V15.2486C169.027 15.3933 168.877 15.5078 168.692 15.5922C168.511 15.6726 168.313 15.7127 168.098 15.7127C167.825 15.7127 167.582 15.6585 167.372 15.55C167.161 15.4375 166.995 15.2748 166.873 15.0618C166.755 14.8448 166.696 14.5877 166.696 14.2903V12.3315H167.58V14.1698C167.58 14.435 167.65 14.6399 167.789 14.7846C167.928 14.9252 168.117 14.9955 168.358 14.9955C168.602 14.9955 168.793 14.9252 168.932 14.7846C169.071 14.6399 169.141 14.435 169.141 14.1698V12.3315H170.032ZM172.717 12.2833C173.134 12.2833 173.471 12.4099 173.728 12.663C173.985 12.9121 174.114 13.2617 174.114 13.7117V15.6705H173.229V13.8262C173.229 13.561 173.16 13.3581 173.021 13.2175C172.882 13.0728 172.692 13.0005 172.452 13.0005C172.208 13.0005 172.014 13.0728 171.871 13.2175C171.732 13.3581 171.662 13.561 171.662 13.8262V15.6705H170.778V12.3315H171.662V12.7474C171.781 12.6027 171.93 12.4902 172.111 12.4099C172.296 12.3255 172.499 12.2833 172.717 12.2833ZM175.277 11.9337C175.121 11.9337 174.991 11.8875 174.885 11.7951C174.784 11.6987 174.734 11.5801 174.734 11.4395C174.734 11.2988 174.784 11.1823 174.885 11.0899C174.991 10.9935 175.121 10.9453 175.277 10.9453C175.433 10.9453 175.561 10.9935 175.663 11.0899C175.768 11.1823 175.82 11.2988 175.82 11.4395C175.82 11.5801 175.768 11.6987 175.663 11.7951C175.561 11.8875 175.433 11.9337 175.277 11.9337ZM175.713 12.3315V15.6705H174.829V12.3315H175.713ZM177.49 13.0246V14.6399C177.49 14.7524 177.518 14.8348 177.572 14.887C177.631 14.9352 177.728 14.9593 177.863 14.9593H178.274V15.6705H177.718C176.972 15.6705 176.599 15.325 176.599 14.6339V13.0246H176.182V12.3315H176.599V11.5058H177.49V12.3315H178.274V13.0246H177.49ZM182.132 12.3315L179.965 17.2496H179.024L179.782 15.5862L178.379 12.3315H179.371L180.275 14.664L181.191 12.3315H182.132ZM186.932 12.7293C186.831 12.5525 186.692 12.4179 186.515 12.3255C186.338 12.2331 186.132 12.1869 185.896 12.1869C185.635 12.1869 185.403 12.2431 185.201 12.3556C184.999 12.4681 184.841 12.6289 184.727 12.8378C184.613 13.0467 184.556 13.2878 184.556 13.561C184.556 13.8423 184.613 14.0874 184.727 14.2964C184.845 14.5053 185.007 14.666 185.213 14.7785C185.42 14.891 185.66 14.9473 185.934 14.9473C186.271 14.9473 186.547 14.8629 186.761 14.6941C186.976 14.5214 187.117 14.2823 187.185 13.9769H185.668V13.332H188.057V14.0673C187.997 14.3606 187.871 14.6319 187.677 14.881C187.484 15.1301 187.233 15.331 186.926 15.4837C186.622 15.6324 186.281 15.7067 185.902 15.7067C185.477 15.7067 185.091 15.6163 184.746 15.4355C184.405 15.2507 184.135 14.9955 183.937 14.67C183.744 14.3446 183.647 13.9749 183.647 13.561C183.647 13.1472 183.744 12.7775 183.937 12.452C184.135 12.1226 184.405 11.8674 184.746 11.6866C185.091 11.5018 185.475 11.4094 185.896 11.4094C186.393 11.4094 186.825 11.5259 187.191 11.7589C187.557 11.988 187.81 12.3114 187.949 12.7293H186.932ZM189.469 12.8498C189.583 12.673 189.73 12.5344 189.911 12.434C190.097 12.3335 190.307 12.2833 190.543 12.2833V13.1693H190.309C190.031 13.1693 189.821 13.2316 189.678 13.3561C189.539 13.4807 189.469 13.6976 189.469 14.007V15.6705H188.585V12.3315H189.469V12.8498ZM192.567 15.7248C192.23 15.7248 191.926 15.6545 191.657 15.5138C191.387 15.3692 191.175 15.1663 191.019 14.9051C190.867 14.6439 190.792 14.3425 190.792 14.001C190.792 13.6595 190.869 13.3581 191.025 13.097C191.185 12.8358 191.402 12.6349 191.676 12.4942C191.95 12.3496 192.255 12.2773 192.592 12.2773C192.929 12.2773 193.234 12.3496 193.508 12.4942C193.782 12.6349 193.997 12.8358 194.153 13.097C194.312 13.3581 194.393 13.6595 194.393 14.001C194.393 14.3425 194.311 14.6439 194.146 14.9051C193.986 15.1663 193.767 15.3692 193.489 15.5138C193.215 15.6545 192.908 15.7248 192.567 15.7248ZM192.567 14.9895C192.727 14.9895 192.876 14.9533 193.015 14.881C193.158 14.8047 193.272 14.6921 193.357 14.5435C193.441 14.3948 193.483 14.214 193.483 14.001C193.483 13.6836 193.394 13.4405 193.218 13.2717C193.045 13.099 192.832 13.0126 192.579 13.0126C192.327 13.0126 192.114 13.099 191.941 13.2717C191.773 13.4405 191.689 13.6836 191.689 14.001C191.689 14.3184 191.771 14.5636 191.935 14.7363C192.103 14.9051 192.314 14.9895 192.567 14.9895ZM198.219 12.3315V15.6705H197.329V15.2486C197.215 15.3933 197.065 15.5078 196.88 15.5922C196.699 15.6726 196.501 15.7127 196.286 15.7127C196.012 15.7127 195.77 15.6585 195.56 15.55C195.349 15.4375 195.182 15.2748 195.06 15.0618C194.942 14.8448 194.884 14.5877 194.884 14.2903V12.3315H195.768V14.1698C195.768 14.435 195.838 14.6399 195.977 14.7846C196.116 14.9252 196.305 14.9955 196.545 14.9955C196.789 14.9955 196.981 14.9252 197.12 14.7846C197.259 14.6399 197.329 14.435 197.329 14.1698V12.3315H198.219ZM199.85 12.8137C199.964 12.661 200.12 12.5344 200.318 12.434C200.52 12.3295 200.749 12.2773 201.006 12.2773C201.305 12.2773 201.575 12.3476 201.815 12.4882C202.059 12.6289 202.251 12.8297 202.39 13.0909C202.533 13.3481 202.605 13.6474 202.605 13.989C202.605 14.3305 202.533 14.6339 202.39 14.8991C202.251 15.1603 202.059 15.3632 201.815 15.5078C201.575 15.6525 201.305 15.7248 201.006 15.7248C200.749 15.7248 200.522 15.6745 200.324 15.5741C200.13 15.4737 199.972 15.3471 199.85 15.1944V17.2617H198.965V12.3315H199.85V12.8137ZM201.701 13.989C201.701 13.7881 201.657 13.6153 201.568 13.4706C201.484 13.322 201.371 13.2094 201.227 13.1331C201.088 13.0568 200.937 13.0186 200.772 13.0186C200.613 13.0186 200.461 13.0588 200.318 13.1391C200.179 13.2155 200.065 13.328 199.976 13.4767C199.892 13.6253 199.85 13.8001 199.85 14.001C199.85 14.2019 199.892 14.3767 199.976 14.5254C200.065 14.674 200.179 14.7886 200.318 14.8689C200.461 14.9453 200.613 14.9834 200.772 14.9834C200.937 14.9834 201.088 14.9433 201.227 14.8629C201.371 14.7825 201.484 14.668 201.568 14.5194C201.657 14.3707 201.701 14.1939 201.701 13.989ZM204.46 15.7248C204.174 15.7248 203.917 15.6766 203.69 15.5801C203.462 15.4797 203.281 15.3451 203.146 15.1763C203.016 15.0076 202.944 14.8207 202.932 14.6158H203.822C203.839 14.7444 203.904 14.8508 204.018 14.9352C204.136 15.0196 204.281 15.0618 204.454 15.0618C204.622 15.0618 204.753 15.0296 204.846 14.9654C204.943 14.9011 204.991 14.8187 204.991 14.7183C204.991 14.6098 204.932 14.5294 204.814 14.4772C204.701 14.4209 204.517 14.3606 204.265 14.2964C204.003 14.2361 203.789 14.1738 203.62 14.1095C203.456 14.0452 203.313 13.9468 203.191 13.8142C203.073 13.6816 203.014 13.5028 203.014 13.2778C203.014 13.0929 203.068 12.9242 203.178 12.7715C203.292 12.6188 203.452 12.4982 203.658 12.4099C203.869 12.3215 204.115 12.2773 204.397 12.2773C204.814 12.2773 205.147 12.3777 205.395 12.5786C205.644 12.7755 205.781 13.0427 205.806 13.3802H204.96C204.947 13.2476 204.888 13.1432 204.783 13.0668C204.682 12.9864 204.545 12.9463 204.372 12.9463C204.212 12.9463 204.088 12.9744 203.999 13.0307C203.915 13.0869 203.873 13.1653 203.873 13.2657C203.873 13.3782 203.932 13.4646 204.05 13.5249C204.168 13.5811 204.351 13.6394 204.599 13.6997C204.852 13.7599 205.061 13.8222 205.225 13.8865C205.389 13.9508 205.53 14.0513 205.648 14.1879C205.77 14.3205 205.834 14.4973 205.838 14.7183C205.838 14.9111 205.781 15.0839 205.667 15.2366C205.558 15.3893 205.398 15.5098 205.187 15.5982C204.981 15.6826 204.738 15.7248 204.46 15.7248Z" fill="white"/>
<path d="M135.631 17.1279C135.492 17.1278 135.358 17.0749 135.259 16.9808C135.161 16.8868 135.106 16.7594 135.105 16.6264H134.755C134.755 16.8481 134.847 17.0607 135.011 17.2174C135.176 17.3741 135.399 17.4622 135.631 17.4622C135.863 17.4622 136.086 17.3741 136.25 17.2174C136.415 17.0607 136.507 16.8481 136.507 16.6264H136.156C136.156 16.7594 136.101 16.8868 136.003 16.9808C135.904 17.0749 135.77 17.1278 135.631 17.1279Z" fill="white"/>
<path d="M134.755 15.6235C134.949 15.6235 135.105 15.4738 135.105 15.2891C135.105 15.1045 134.949 14.9548 134.755 14.9548C134.561 14.9548 134.405 15.1045 134.405 15.2891C134.405 15.4738 134.561 15.6235 134.755 15.6235Z" fill="white"/>
<path d="M130.375 12.2803L129.323 10.943L128.272 12.2803L129.323 13.6175L130.375 12.2803Z" fill="white"/>
<path d="M139.836 16.0927V11.1425C139.836 10.6772 139.74 10.2166 139.554 9.78674C139.367 9.35694 139.093 8.96642 138.749 8.63745C138.404 8.30849 137.994 8.04755 137.544 7.86951C137.094 7.69147 136.611 7.59982 136.123 7.59985H123.224C122.737 7.59982 122.254 7.69147 121.803 7.86951C121.353 8.04755 120.943 8.30849 120.598 8.63745C120.254 8.96642 119.98 9.35694 119.793 9.78674C119.607 10.2166 119.511 10.6772 119.511 11.1425V16.0927C119.511 17.0322 119.902 17.9333 120.598 18.5977C121.295 19.262 122.239 19.6353 123.224 19.6353H136.123C137.108 19.6353 138.052 19.262 138.749 18.5977C139.445 17.9333 139.836 17.0322 139.836 16.0927ZM133.846 9.22878C134.052 9.04151 134.326 8.93709 134.611 8.93709C134.896 8.93709 135.169 9.04151 135.376 9.22878L135.631 9.4635L135.886 9.22878C136.093 9.04151 136.367 8.93709 136.652 8.93709C136.936 8.93709 137.21 9.04151 137.417 9.22878C137.517 9.31951 137.597 9.42873 137.651 9.54978C137.706 9.67084 137.734 9.8012 137.734 9.93296C137.734 10.0647 137.706 10.1951 137.651 10.3162C137.597 10.4372 137.517 10.5464 137.417 10.6372L135.631 12.2803L133.846 10.6372C133.745 10.5464 133.666 10.4372 133.611 10.3162C133.557 10.1951 133.528 10.0647 133.528 9.93296C133.528 9.8012 133.557 9.67084 133.611 9.54978C133.666 9.42873 133.745 9.31951 133.846 9.22878ZM123.182 8.94595C123.177 9.08765 123.175 9.22293 123.175 9.27633C123.178 9.84421 123.409 10.3892 123.822 10.7985C124.235 11.2078 124.797 11.45 125.391 11.4748C125.276 11.8731 125.035 12.2278 124.701 12.4903C124.366 12.7528 123.955 12.9103 123.523 12.9413C123.572 12.765 123.598 12.5837 123.601 12.4014C123.6 11.8352 123.379 11.2892 122.982 10.8688C122.584 10.4485 122.038 10.1834 121.447 10.1249C121.6 9.79873 121.841 9.51745 122.147 9.31017C122.452 9.1029 122.809 8.97714 123.182 8.94595ZM121.33 10.4488C121.85 10.4809 122.338 10.7006 122.695 11.0632C123.051 11.4258 123.25 11.9042 123.25 12.4014C123.248 12.5837 123.218 12.7647 123.163 12.9391C122.861 12.9123 122.569 12.8232 122.306 12.678C122.044 12.5328 121.818 12.3349 121.643 12.098C121.469 11.8612 121.35 11.5911 121.296 11.3063C121.242 11.0215 121.254 10.7289 121.33 10.4488ZM125.468 16.6264H124.417L124.767 18.298L122.665 16.6264H121.263V14.2862H125.468V16.6264ZM125.455 11.1635L125.455 11.1441C124.942 11.1349 124.452 10.9343 124.091 10.5853C123.731 10.2362 123.528 9.76646 123.525 9.27633C123.525 9.22866 123.528 9.08792 123.532 8.94514C123.813 8.9656 124.087 9.03986 124.337 9.16347C124.587 9.28709 124.808 9.45751 124.988 9.6646C125.167 9.87166 125.301 10.1111 125.381 10.3686C125.462 10.6262 125.487 10.8965 125.455 11.1635ZM131.776 15.2891H126.87V9.27142H131.776V15.2891ZM133.178 15.9578C133.178 15.4949 133.322 15.0425 133.591 14.6576C133.861 14.2728 134.244 13.9728 134.692 13.7957C135.141 13.6186 135.634 13.5722 136.11 13.6625C136.586 13.7528 137.023 13.9757 137.366 14.303C137.709 14.6303 137.942 15.0472 138.037 15.5012C138.132 15.9552 138.083 16.4257 137.898 16.8533C137.712 17.281 137.397 17.6465 136.994 17.9036C136.591 18.1607 136.116 18.298 135.631 18.298C134.981 18.298 134.357 18.0514 133.896 17.6126C133.437 17.1737 133.178 16.5784 133.178 15.9578Z" fill="white"/>
<path d="M136.507 15.6235C136.701 15.6235 136.857 15.4738 136.857 15.2891C136.857 15.1045 136.701 14.9548 136.507 14.9548C136.313 14.9548 136.156 15.1045 136.156 15.2891C136.156 15.4738 136.313 15.6235 136.507 15.6235Z" fill="white"/>
</g>
<path d="M205.645 54.2442C205.645 46.7546 212.01 40.6831 219.86 40.6831H291.252C299.103 40.6831 305.467 46.7546 305.467 54.2442C305.467 61.7338 299.103 67.8052 291.252 67.8052H219.86C212.01 67.8052 205.645 61.7338 205.645 54.2442Z" fill="#4D3BB9"/>
<path d="M237.847 55.5521H236.091L235.8 56.3537H234.872L236.457 52.1407H237.487L239.073 56.3537H238.138L237.847 55.5521ZM237.607 54.877L236.969 53.1171L236.331 54.877H237.607ZM240.424 52.1467V56.3537H239.539V52.1467H240.424ZM243.422 52.1467V54.7505C243.422 55.0359 243.5 55.2546 243.656 55.4074C243.812 55.556 244.031 55.6304 244.313 55.6304C244.599 55.6304 244.821 55.556 244.976 55.4074C245.132 55.2546 245.21 55.0359 245.21 54.7505V52.1467H246.101V54.7444C246.101 55.1022 246.019 55.4053 245.854 55.6545C245.695 55.8995 245.478 56.0846 245.204 56.209C244.934 56.3335 244.633 56.3959 244.3 56.3959C243.972 56.3959 243.673 56.3335 243.403 56.209C243.138 56.0846 242.927 55.8995 242.771 55.6545C242.616 55.4053 242.538 55.1022 242.538 54.7444V52.1467H243.422ZM248.769 52.9664C249.186 52.9664 249.523 53.093 249.78 53.3461C250.037 53.5954 250.165 53.9449 250.165 54.3949V56.3537H249.281V54.5094C249.281 54.2442 249.211 54.0414 249.072 53.9006C248.933 53.756 248.744 53.6837 248.504 53.6837C248.259 53.6837 248.065 53.756 247.922 53.9006C247.783 54.0414 247.714 54.2442 247.714 54.5094V56.3537H246.829V53.0147H247.714V53.4305C247.832 53.2859 247.981 53.1735 248.162 53.093C248.348 53.0086 248.55 52.9664 248.769 52.9664ZM251.328 52.6169C251.173 52.6169 251.042 52.5708 250.937 52.4782C250.835 52.3818 250.785 52.2634 250.785 52.1226C250.785 51.9819 250.835 51.8656 250.937 51.7731C251.042 51.6766 251.173 51.6284 251.328 51.6284C251.484 51.6284 251.613 51.6766 251.714 51.7731C251.819 51.8656 251.872 51.9819 251.872 52.1226C251.872 52.2634 251.819 52.3818 251.714 52.4782C251.613 52.5708 251.484 52.6169 251.328 52.6169ZM251.764 53.0147V56.3537H250.88V53.0147H251.764ZM253.971 55.5762L254.856 53.0147H255.797L254.502 56.3537H253.428L252.139 53.0147H253.087L253.971 55.5762ZM259.421 54.6118C259.421 54.7324 259.413 54.8409 259.396 54.9373H256.837C256.858 55.1784 256.947 55.3673 257.102 55.5039C257.258 55.6404 257.45 55.7088 257.677 55.7088C258.006 55.7088 258.24 55.5741 258.379 55.305H259.333C259.232 55.6265 259.038 55.8917 258.751 56.1005C258.465 56.3055 258.113 56.4079 257.696 56.4079C257.36 56.4079 257.056 56.3377 256.787 56.197C256.521 56.0523 256.313 55.8495 256.161 55.5882C256.014 55.327 255.94 55.0256 255.94 54.6842C255.94 54.3385 256.014 54.0354 256.161 53.7741C256.309 53.5128 256.515 53.3121 256.78 53.1714C257.046 53.0306 257.351 52.9604 257.696 52.9604C258.029 52.9604 258.326 53.0288 258.587 53.1653C258.852 53.3018 259.057 53.4968 259.2 53.75C259.347 53.9992 259.421 54.2864 259.421 54.6118ZM258.505 54.3708C258.501 54.1538 258.419 53.9811 258.259 53.8524C258.099 53.7198 257.903 53.6535 257.671 53.6535C257.452 53.6535 257.267 53.7177 257.115 53.8464C256.968 53.9709 256.877 54.1456 256.843 54.3708H258.505ZM260.825 53.533C260.939 53.3561 261.086 53.2175 261.267 53.1171C261.453 53.0168 261.663 52.9664 261.899 52.9664V53.8524H261.665C261.387 53.8524 261.177 53.9148 261.033 54.0393C260.894 54.1637 260.825 54.3807 260.825 54.6902V56.3537H259.94V53.0147H260.825V53.533ZM263.708 56.4079C263.421 56.4079 263.164 56.3597 262.937 56.2633C262.71 56.1629 262.529 56.0282 262.394 55.8595C262.263 55.6907 262.191 55.5039 262.179 55.2989H263.07C263.086 55.4276 263.152 55.534 263.265 55.6184C263.383 55.7028 263.529 55.7449 263.701 55.7449C263.87 55.7449 264.001 55.7127 264.093 55.6485C264.19 55.5843 264.238 55.5018 264.238 55.4014C264.238 55.2929 264.179 55.2124 264.062 55.1603C263.948 55.104 263.765 55.0437 263.512 54.9795C263.251 54.9192 263.036 54.8569 262.867 54.7927C262.703 54.7285 262.56 54.6299 262.438 54.4973C262.32 54.3647 262.261 54.186 262.261 53.9609C262.261 53.7762 262.316 53.6074 262.425 53.4546C262.539 53.3019 262.699 53.1813 262.905 53.093C263.116 53.0047 263.362 52.9604 263.645 52.9604C264.062 52.9604 264.394 53.0608 264.643 53.2618C264.891 53.4586 265.028 53.7259 265.053 54.0634H264.207C264.194 53.9308 264.135 53.8262 264.03 53.75C263.929 53.6695 263.792 53.6294 263.619 53.6294C263.459 53.6294 263.335 53.6575 263.247 53.7138C263.162 53.7702 263.12 53.8485 263.12 53.9489C263.12 54.0613 263.179 54.1478 263.297 54.208C263.415 54.2644 263.598 54.3225 263.847 54.3828C264.099 54.4431 264.308 54.5055 264.472 54.5697C264.636 54.6338 264.778 54.7345 264.895 54.871C265.018 55.0036 265.081 55.1805 265.085 55.4014C265.085 55.5943 265.028 55.7669 264.914 55.9197C264.805 56.0725 264.645 56.1931 264.434 56.2814C264.228 56.3657 263.986 56.4079 263.708 56.4079ZM266.133 52.6169C265.977 52.6169 265.847 52.5708 265.742 52.4782C265.641 52.3818 265.59 52.2634 265.59 52.1226C265.59 51.9819 265.641 51.8656 265.742 51.7731C265.847 51.6766 265.977 51.6284 266.133 51.6284C266.289 51.6284 266.418 51.6766 266.519 51.7731C266.624 51.8656 266.677 51.9819 266.677 52.1226C266.677 52.2634 266.624 52.3818 266.519 52.4782C266.418 52.5708 266.289 52.6169 266.133 52.6169ZM266.569 53.0147V56.3537H265.685V53.0147H266.569ZM268.347 53.7078V55.323C268.347 55.4355 268.374 55.518 268.429 55.5702C268.488 55.6184 268.584 55.6425 268.719 55.6425H269.13V56.3537H268.574C267.829 56.3537 267.456 56.008 267.456 55.317V53.7078H267.039V53.0147H267.456V52.1889H268.347V53.0147H269.13V53.7078H268.347ZM272.988 53.0147L270.821 57.9328H269.88L270.638 56.2693L269.236 53.0147H270.227L271.131 55.3472L272.047 53.0147H272.988ZM278.376 52.1467V56.3537H277.491V54.5636H275.602V56.3537H274.718V52.1467H275.602V53.8765H277.491V52.1467H278.376ZM282.374 54.6118C282.374 54.7324 282.365 54.8409 282.348 54.9373H279.79C279.811 55.1784 279.899 55.3673 280.055 55.5039C280.211 55.6404 280.403 55.7088 280.63 55.7088C280.959 55.7088 281.192 55.5741 281.331 55.305H282.285C282.184 55.6265 281.991 55.8917 281.704 56.1005C281.418 56.3055 281.066 56.4079 280.649 56.4079C280.312 56.4079 280.009 56.3377 279.739 56.197C279.474 56.0523 279.265 55.8495 279.114 55.5882C278.966 55.327 278.893 55.0256 278.893 54.6842C278.893 54.3385 278.966 54.0354 279.114 53.7741C279.261 53.5128 279.468 53.3121 279.733 53.1714C279.998 53.0306 280.304 52.9604 280.649 52.9604C280.982 52.9604 281.279 53.0288 281.54 53.1653C281.805 53.3018 282.01 53.4968 282.153 53.75C282.3 53.9992 282.374 54.2864 282.374 54.6118ZM281.458 54.3708C281.454 54.1538 281.371 53.9811 281.211 53.8524C281.051 53.7198 280.855 53.6535 280.624 53.6535C280.405 53.6535 280.219 53.7177 280.068 53.8464C279.92 53.9709 279.83 54.1456 279.796 54.3708H281.458ZM283.778 51.8936V56.3537H282.893V51.8936H283.778ZM285.409 53.4968C285.523 53.344 285.679 53.2175 285.877 53.1171C286.079 53.0125 286.309 52.9604 286.566 52.9604C286.865 52.9604 287.134 53.0306 287.374 53.1714C287.618 53.3121 287.81 53.5128 287.949 53.7741C288.092 54.0311 288.164 54.3307 288.164 54.6721C288.164 55.0136 288.092 55.317 287.949 55.5822C287.81 55.8435 287.618 56.0463 287.374 56.191C287.134 56.3356 286.865 56.4079 286.566 56.4079C286.309 56.4079 286.081 56.3576 285.883 56.2573C285.69 56.1569 285.532 56.0303 285.409 55.8775V57.9448H284.525V53.0147H285.409V53.4968ZM287.261 54.6721C287.261 54.4711 287.216 54.2984 287.128 54.1538C287.044 54.0052 286.93 53.8925 286.787 53.8163C286.648 53.74 286.496 53.7017 286.332 53.7017C286.172 53.7017 286.02 53.7418 285.877 53.8223C285.738 53.8985 285.624 54.0112 285.536 54.1598C285.451 54.3084 285.409 54.4832 285.409 54.6842C285.409 54.8852 285.451 55.06 285.536 55.2085C285.624 55.3571 285.738 55.4716 285.877 55.5521C286.02 55.6283 286.172 55.6666 286.332 55.6666C286.496 55.6666 286.648 55.6265 286.787 55.5461C286.93 55.4656 287.044 55.3511 287.128 55.2025C287.216 55.0539 287.261 54.877 287.261 54.6721ZM291.934 54.6118C291.934 54.7324 291.926 54.8409 291.909 54.9373H289.35C289.371 55.1784 289.46 55.3673 289.616 55.5039C289.771 55.6404 289.963 55.7088 290.19 55.7088C290.519 55.7088 290.753 55.5741 290.892 55.305H291.846C291.745 55.6265 291.551 55.8917 291.265 56.1005C290.978 56.3055 290.626 56.4079 290.209 56.4079C289.872 56.4079 289.569 56.3377 289.3 56.197C289.034 56.0523 288.826 55.8495 288.674 55.5882C288.527 55.327 288.453 55.0256 288.453 54.6842C288.453 54.3385 288.527 54.0354 288.674 53.7741C288.821 53.5128 289.028 53.3121 289.293 53.1714C289.559 53.0306 289.864 52.9604 290.209 52.9604C290.542 52.9604 290.839 53.0288 291.1 53.1653C291.366 53.3018 291.57 53.4968 291.713 53.75C291.86 53.9992 291.934 54.2864 291.934 54.6118ZM291.018 54.3708C291.014 54.1538 290.932 53.9811 290.772 53.8524C290.612 53.7198 290.416 53.6535 290.184 53.6535C289.965 53.6535 289.78 53.7177 289.628 53.8464C289.481 53.9709 289.39 54.1456 289.357 54.3708H291.018ZM293.338 53.533C293.451 53.3561 293.599 53.2175 293.78 53.1171C293.965 53.0168 294.176 52.9664 294.412 52.9664V53.8524H294.178C293.9 53.8524 293.69 53.9148 293.546 54.0393C293.407 54.1637 293.338 54.3807 293.338 54.6902V56.3537H292.453V53.0147H293.338V53.533Z" fill="white"/>
<path fill-rule="evenodd" clip-rule="evenodd" d="M226.968 49.8745V58.9152H217.491V49.8745H226.968ZM221.48 52.1347H220.557L218.805 56.655H219.637L219.968 55.7715H222.066L222.389 56.655H223.272L221.48 52.1347ZM224.75 52.1347H223.921V56.655H224.75V52.1347ZM221.012 52.8932L221.838 55.1482H220.199L221.012 52.8932ZM227.758 56.655H229.337V58.1618H227.758V56.655ZM218.281 59.6686H219.86V61.1754H218.281V59.6686ZM221.44 59.6686H223.019V61.1754H221.44V59.6686ZM218.281 47.6143H219.86V49.1211H218.281V47.6143ZM224.599 59.6686H226.178V61.1754H224.599V59.6686ZM221.44 47.6143H223.019V49.1211H221.44V47.6143ZM224.599 47.6143H226.178V49.1211H224.599V47.6143ZM227.758 53.6415H229.337V55.1482H227.758V53.6415ZM215.122 56.655H216.702V58.1618H215.122V56.655ZM227.758 50.6279H229.337V52.1347H227.758V50.6279ZM215.122 53.6415H216.702V55.1482H215.122V53.6415ZM215.122 50.6279H216.702V52.1347H215.122V50.6279Z" fill="white"/>
<path d="M240.709 100.352C240.709 92.8621 247.073 86.7907 254.924 86.7907H311.785C319.635 86.7907 326 92.8621 326 100.352C326 107.841 319.635 113.913 311.785 113.913H254.924C247.073 113.913 240.709 107.841 240.709 100.352Z" fill="#128841"/>
<path d="M278.932 98.2543V98.9354H277.094V100.014H278.503V100.683H277.094V102.461H276.209V98.2543H278.932ZM279.881 98.7244C279.726 98.7244 279.595 98.6783 279.49 98.5858C279.389 98.4894 279.338 98.3709 279.338 98.2302C279.338 98.0894 279.389 97.9731 279.49 97.8806C279.595 97.7842 279.726 97.736 279.881 97.736C280.038 97.736 280.166 97.7842 280.267 97.8806C280.372 97.9731 280.425 98.0894 280.425 98.2302C280.425 98.3709 280.372 98.4894 280.267 98.5858C280.166 98.6783 280.038 98.7244 279.881 98.7244ZM280.317 99.1222V102.461H279.433V99.1222H280.317ZM283.005 99.074C283.422 99.074 283.759 99.2005 284.016 99.4537C284.272 99.7029 284.401 100.052 284.401 100.502V102.461H283.516V100.617C283.516 100.352 283.447 100.149 283.308 100.008C283.169 99.8635 282.979 99.7912 282.739 99.7912C282.495 99.7912 282.301 99.8635 282.158 100.008C282.019 100.149 281.95 100.352 281.95 100.617V102.461H281.065V99.1222H281.95V99.5381C282.067 99.3934 282.217 99.281 282.398 99.2006C282.584 99.1162 282.786 99.074 283.005 99.074ZM284.888 100.78C284.888 100.442 284.958 100.143 285.097 99.8816C285.24 99.6203 285.434 99.4196 285.678 99.2789C285.922 99.1382 286.194 99.068 286.493 99.068C286.721 99.068 286.937 99.1162 287.144 99.2126C287.35 99.3051 287.514 99.4296 287.637 99.5863V98.0012H288.534V102.461H287.637V101.967C287.527 102.132 287.373 102.264 287.175 102.365C286.977 102.465 286.748 102.515 286.487 102.515C286.192 102.515 285.922 102.443 285.678 102.298C285.434 102.154 285.24 101.951 285.097 101.69C284.958 101.425 284.888 101.121 284.888 100.78ZM287.643 100.792C287.643 100.587 287.601 100.412 287.517 100.267C287.432 100.119 287.318 100.006 287.175 99.9298C287.032 99.8494 286.878 99.8093 286.714 99.8093C286.55 99.8093 286.398 99.8476 286.259 99.9238C286.12 100 286.007 100.113 285.918 100.261C285.834 100.406 285.792 100.579 285.792 100.78C285.792 100.981 285.834 101.157 285.918 101.31C286.007 101.459 286.12 101.573 286.259 101.654C286.402 101.734 286.554 101.774 286.714 101.774C286.878 101.774 287.032 101.736 287.175 101.66C287.318 101.579 287.432 101.467 287.517 101.322C287.601 101.174 287.643 100.997 287.643 100.792ZM295.458 98.2543V102.461H294.574V99.7249L293.392 102.461H292.722L291.535 99.7249V102.461H290.65V98.2543H291.655L293.057 101.382L294.46 98.2543H295.458ZM299.46 100.719C299.46 100.84 299.451 100.948 299.435 101.045H296.876C296.897 101.286 296.985 101.475 297.141 101.611C297.297 101.748 297.489 101.816 297.716 101.816C298.045 101.816 298.278 101.682 298.417 101.413H299.371C299.27 101.734 299.077 101.999 298.79 102.208C298.504 102.413 298.152 102.515 297.735 102.515C297.398 102.515 297.095 102.445 296.825 102.305C296.56 102.16 296.351 101.957 296.2 101.696C296.052 101.435 295.979 101.133 295.979 100.792C295.979 100.446 296.052 100.143 296.2 99.8816C296.347 99.6203 296.554 99.4196 296.819 99.2789C297.084 99.1382 297.39 99.068 297.735 99.068C298.068 99.068 298.365 99.1364 298.626 99.2729C298.891 99.4094 299.096 99.6044 299.239 99.8575C299.386 100.107 299.46 100.394 299.46 100.719ZM298.544 100.478C298.54 100.261 298.457 100.089 298.297 99.96C298.137 99.8274 297.941 99.7611 297.71 99.7611C297.491 99.7611 297.305 99.8253 297.154 99.9539C297.006 100.078 296.916 100.253 296.882 100.478H298.544ZM301.919 99.074C302.336 99.074 302.673 99.2005 302.93 99.4537C303.186 99.7029 303.315 100.052 303.315 100.502V102.461H302.43V100.617C302.43 100.352 302.361 100.149 302.222 100.008C302.083 99.8635 301.893 99.7912 301.653 99.7912C301.409 99.7912 301.215 99.8635 301.072 100.008C300.933 100.149 300.864 100.352 300.864 100.617V102.461H299.979V99.1222H300.864V99.5381C300.981 99.3934 301.131 99.281 301.312 99.2006C301.498 99.1162 301.7 99.074 301.919 99.074ZM305.06 99.8153V101.431C305.06 101.543 305.087 101.626 305.142 101.678C305.2 101.726 305.297 101.75 305.432 101.75H305.843V102.461H305.287C304.542 102.461 304.169 102.116 304.169 101.425V99.8153H303.752V99.1222H304.169V98.2965H305.06V99.1222H305.843V99.8153H305.06ZM307.907 102.515C307.57 102.515 307.267 102.445 306.997 102.305C306.728 102.16 306.515 101.957 306.359 101.696C306.207 101.435 306.131 101.133 306.131 100.792C306.131 100.45 306.209 100.149 306.365 99.8876C306.525 99.6264 306.742 99.4257 307.016 99.2849C307.29 99.1403 307.595 99.068 307.932 99.068C308.269 99.068 308.575 99.1403 308.848 99.2849C309.122 99.4257 309.337 99.6264 309.492 99.8876C309.653 100.149 309.733 100.45 309.733 100.792C309.733 101.133 309.65 101.435 309.486 101.696C309.326 101.957 309.107 102.16 308.829 102.305C308.556 102.445 308.248 102.515 307.907 102.515ZM307.907 101.78C308.067 101.78 308.216 101.744 308.355 101.672C308.499 101.595 308.612 101.483 308.696 101.334C308.781 101.186 308.823 101.005 308.823 100.792C308.823 100.474 308.734 100.231 308.557 100.062C308.385 99.8898 308.172 99.8033 307.919 99.8033C307.667 99.8033 307.454 99.8898 307.281 100.062C307.113 100.231 307.029 100.474 307.029 100.792C307.029 101.109 307.111 101.354 307.275 101.527C307.444 101.696 307.654 101.78 307.907 101.78ZM311.14 99.6405C311.253 99.4636 311.401 99.325 311.582 99.2247C311.767 99.1243 311.978 99.074 312.214 99.074V99.96H311.98C311.702 99.96 311.491 100.022 311.348 100.147C311.209 100.271 311.14 100.488 311.14 100.798V102.461H310.255V99.1222H311.14V99.6405ZM314.022 102.515C313.736 102.515 313.479 102.467 313.252 102.371C313.024 102.27 312.843 102.136 312.708 101.967C312.578 101.798 312.506 101.611 312.493 101.406H313.384C313.401 101.535 313.466 101.642 313.58 101.726C313.698 101.81 313.844 101.852 314.016 101.852C314.185 101.852 314.315 101.82 314.408 101.756C314.505 101.692 314.553 101.609 314.553 101.509C314.553 101.4 314.494 101.32 314.376 101.268C314.262 101.212 314.079 101.151 313.827 101.087C313.566 101.027 313.351 100.964 313.182 100.9C313.018 100.836 312.875 100.737 312.752 100.605C312.635 100.472 312.576 100.294 312.576 100.068C312.576 99.8837 312.631 99.715 312.74 99.5622C312.854 99.4094 313.014 99.2888 313.22 99.2006C313.431 99.1123 313.677 99.068 313.959 99.068C314.376 99.068 314.709 99.1683 314.957 99.3693C315.206 99.5661 315.343 99.8334 315.368 100.171H314.521C314.509 100.038 314.45 99.9337 314.345 99.8575C314.244 99.777 314.107 99.737 313.934 99.737C313.774 99.737 313.65 99.765 313.561 99.8213C313.477 99.8777 313.435 99.9561 313.435 100.056C313.435 100.169 313.494 100.255 313.612 100.316C313.73 100.372 313.913 100.43 314.161 100.49C314.414 100.551 314.623 100.613 314.787 100.677C314.951 100.741 315.092 100.842 315.21 100.979C315.332 101.111 315.396 101.288 315.4 101.509C315.4 101.702 315.343 101.874 315.229 102.027C315.12 102.18 314.96 102.301 314.749 102.389C314.543 102.473 314.3 102.515 314.022 102.515Z" fill="white"/>
<path d="M268.919 100.721H267.445C267.547 100.628 267.611 100.497 267.611 100.352V100.326C267.611 100.045 267.373 99.8174 267.078 99.8174C266.783 99.8174 266.544 100.045 266.544 100.326V100.352C266.544 100.497 266.609 100.628 266.711 100.721H261.556C261.262 100.721 261.023 100.949 261.023 101.23V104.392C260.926 104.294 260.788 104.233 260.636 104.233H260.609C260.315 104.233 260.076 104.461 260.076 104.742C260.076 105.023 260.315 105.251 260.609 105.251H260.636C260.788 105.251 260.926 105.19 261.023 105.092V107.376C261.023 107.657 261.262 107.885 261.556 107.885H268.919C269.213 107.885 269.452 107.657 269.452 107.376V101.23C269.452 100.949 269.213 100.721 268.919 100.721ZM268.385 101.739V105.111H262.09V101.739H268.385ZM262.09 106.867V106.129H268.385V106.867H262.09Z" fill="white"/>
<path d="M263.984 96.4703H264.037C264.332 96.4703 264.571 96.2425 264.571 95.9613C264.571 95.6801 264.332 95.4523 264.037 95.4523H263.984C263.689 95.4523 263.451 95.6801 263.451 95.9613C263.451 96.2425 263.689 96.4703 263.984 96.4703Z" fill="white"/>
<path d="M265.518 96.4703H265.571C265.865 96.4703 266.104 96.2425 266.104 95.9613C266.104 95.6801 265.865 95.4523 265.571 95.4523H265.518C265.223 95.4523 264.984 95.6801 264.984 95.9613C264.984 96.2425 265.223 96.4703 265.518 96.4703Z" fill="white"/>
<path d="M267.078 96.4956C267.373 96.4956 267.612 96.2678 267.612 95.9866V95.9613C267.612 95.6801 267.373 95.4523 267.078 95.4523H267.052C266.757 95.4523 266.518 95.6801 266.518 95.9613C266.518 96.1084 266.583 96.2406 266.688 96.3338C266.785 96.4332 266.924 96.4956 267.078 96.4956Z" fill="white"/>
<path d="M267.612 97.3997C267.612 97.1185 267.373 96.8907 267.078 96.8907C266.784 96.8907 266.545 97.1185 266.545 97.3997V97.4503C266.545 97.7312 266.784 97.959 267.078 97.959C267.373 97.959 267.612 97.7312 267.612 97.4503V97.3997Z" fill="white"/>
<path d="M267.078 98.3541C266.784 98.3541 266.545 98.5819 266.545 98.8631V98.9134C266.545 99.1945 266.784 99.4224 267.078 99.4224C267.373 99.4224 267.612 99.1945 267.612 98.9134V98.8631C267.612 98.5819 267.373 98.3541 267.078 98.3541Z" fill="white"/>
<path d="M259.129 104.233H259.076C258.782 104.233 258.543 104.461 258.543 104.742C258.543 105.023 258.782 105.251 259.076 105.251H259.129C259.424 105.251 259.663 105.023 259.663 104.742C259.663 104.461 259.424 104.233 259.129 104.233Z" fill="white"/>
<path d="M257.595 104.233H257.543C257.248 104.233 257.009 104.461 257.009 104.742C257.009 105.023 257.248 105.251 257.543 105.251H257.595C257.89 105.251 258.129 105.023 258.129 104.742C258.129 104.461 257.89 104.233 257.595 104.233Z" fill="white"/>
<path d="M256.035 104.208C255.74 104.208 255.501 104.435 255.501 104.717V104.742C255.501 105.023 255.74 105.251 256.035 105.251H256.062C256.356 105.251 256.595 105.023 256.595 104.742C256.595 104.595 256.53 104.463 256.425 104.37C256.328 104.27 256.189 104.208 256.035 104.208Z" fill="white"/>
<path d="M256.569 101.79C256.569 101.509 256.33 101.281 256.035 101.281C255.74 101.281 255.501 101.509 255.501 101.79V101.84C255.501 102.122 255.74 102.349 256.035 102.349C256.33 102.349 256.569 102.122 256.569 101.84V101.79Z" fill="white"/>
<path d="M256.035 102.744C255.74 102.744 255.501 102.972 255.501 103.253V103.304C255.501 103.585 255.74 103.813 256.035 103.813C256.33 103.813 256.569 103.585 256.569 103.304V103.253C256.569 102.972 256.33 102.744 256.035 102.744Z" fill="white"/>
<path d="M255.502 100.352V100.377C255.502 100.658 255.74 100.886 256.035 100.886C256.33 100.886 256.569 100.658 256.569 100.377V100.352C256.569 100.206 256.504 100.075 256.402 99.9826H261.557C261.851 99.9826 262.09 99.7547 262.09 99.4736V96.3111C262.187 96.4088 262.325 96.4703 262.477 96.4703H262.503C262.798 96.4703 263.037 96.2424 263.037 95.9613C263.037 95.6804 262.798 95.4523 262.503 95.4523H262.477C262.325 95.4523 262.187 95.5137 262.09 95.6114V93.3271C262.09 93.0459 261.851 92.8181 261.557 92.8181H254.194C253.9 92.8181 253.661 93.0459 253.661 93.3271V99.4736C253.661 99.7547 253.9 99.9826 254.194 99.9826H255.668C255.566 100.075 255.502 100.206 255.502 100.352ZM261.023 93.8361V97.2086H254.728V93.8361H261.023ZM254.728 98.2266H261.023V98.9646H254.728V98.2266Z" fill="white"/>
<path d="M21.4807 52.1347C21.4807 44.6451 27.845 38.5737 35.6958 38.5737H109.93C117.781 38.5737 124.145 44.6451 124.145 52.1347C124.145 59.6243 117.781 65.6957 109.93 65.6957H35.6958C27.845 65.6957 21.4807 59.6243 21.4807 52.1347Z" fill="#4879BA"/>
<path d="M51.1302 54.2864C50.7173 54.2864 50.3383 54.1939 49.993 54.0091C49.6477 53.8244 49.3738 53.5691 49.1717 53.2437C48.9695 52.9143 48.8684 52.5424 48.8684 52.1287C48.8684 51.7188 48.9695 51.3512 49.1717 51.0257C49.3738 50.6963 49.6477 50.439 49.993 50.2542C50.3383 50.0695 50.7173 49.977 51.1302 49.977C51.5472 49.977 51.9262 50.0695 52.2674 50.2542C52.6127 50.439 52.8843 50.6963 53.0824 51.0257C53.2846 51.3512 53.3857 51.7188 53.3857 52.1287C53.3857 52.5424 53.2846 52.9143 53.0824 53.2437C52.8843 53.5691 52.6127 53.8244 52.2674 54.0091C51.9221 54.1939 51.5431 54.2864 51.1302 54.2864ZM51.1302 53.533C51.3955 53.533 51.6293 53.4766 51.8315 53.3642C52.0336 53.2476 52.1916 53.0831 52.3053 52.87C52.419 52.6569 52.4759 52.4098 52.4759 52.1287C52.4759 51.8475 52.419 51.6022 52.3053 51.3934C52.1916 51.1803 52.0336 51.0176 51.8315 50.9052C51.6293 50.7928 51.3955 50.7364 51.1302 50.7364C50.8648 50.7364 50.6289 50.7928 50.4226 50.9052C50.2204 51.0176 50.0625 51.1803 49.9488 51.3934C49.835 51.6022 49.7782 51.8475 49.7782 52.1287C49.7782 52.4098 49.835 52.6569 49.9488 52.87C50.0625 53.0831 50.2204 53.2476 50.4226 53.3642C50.6289 53.4766 50.8648 53.533 51.1302 53.533ZM55.8569 50.8569C56.2739 50.8569 56.6109 50.9835 56.8677 51.2367C57.1245 51.4859 57.2531 51.8354 57.2531 52.2854V54.2442H56.3686V52.3999C56.3686 52.1347 56.2991 51.9319 56.1601 51.7911C56.0211 51.6465 55.8316 51.5742 55.5915 51.5742C55.3473 51.5742 55.1534 51.6465 55.0103 51.7911C54.8713 51.9319 54.8018 52.1347 54.8018 52.3999V54.2442H53.9173V50.9052H54.8018V51.321C54.9196 51.1764 55.0694 51.064 55.2504 50.9835C55.4358 50.8991 55.638 50.8569 55.8569 50.8569ZM58.8525 51.3934C58.9662 51.2327 59.1219 51.1019 59.32 51.0016C59.5222 50.9012 59.7515 50.8509 60.0086 50.8509C60.3075 50.8509 60.5772 50.9211 60.8173 51.0619C61.0615 51.2026 61.2532 51.4033 61.3922 51.6646C61.5353 51.9216 61.607 52.2212 61.607 52.5626C61.607 52.9041 61.5353 53.2075 61.3922 53.4727C61.2532 53.734 61.0615 53.9368 60.8173 54.0815C60.5772 54.2261 60.3075 54.2984 60.0086 54.2984C59.7474 54.2984 59.5177 54.2502 59.32 54.1538C59.126 54.0534 58.9703 53.9248 58.8525 53.768V54.2442H57.968V49.7841H58.8525V51.3934ZM60.7036 52.5626C60.7036 52.3616 60.6594 52.1889 60.5709 52.0443C60.4866 51.8957 60.3729 51.783 60.2298 51.7068C60.0908 51.6305 59.9391 51.5923 59.7749 51.5923C59.6147 51.5923 59.4631 51.6323 59.32 51.7128C59.181 51.789 59.0673 51.9017 58.9788 52.0503C58.8945 52.1989 58.8525 52.3737 58.8525 52.5747C58.8525 52.7757 58.8945 52.9505 58.9788 53.099C59.0673 53.2476 59.181 53.3621 59.32 53.4426C59.4631 53.5188 59.6147 53.5571 59.7749 53.5571C59.9391 53.5571 60.0908 53.517 60.2298 53.4366C60.3729 53.3561 60.4866 53.2416 60.5709 53.093C60.6594 52.9444 60.7036 52.7675 60.7036 52.5626ZM63.6774 54.2984C63.3407 54.2984 63.0374 54.2282 62.7676 54.0875C62.4982 53.9428 62.2856 53.74 62.1295 53.4787C61.9779 53.2175 61.9021 52.9161 61.9021 52.5747C61.9021 52.2332 61.9801 51.9319 62.1358 51.6706C62.296 51.4093 62.513 51.2086 62.7866 51.0679C63.0605 50.9232 63.3659 50.8509 63.7027 50.8509C64.0397 50.8509 64.3452 50.9232 64.6188 51.0679C64.8926 51.2086 65.1074 51.4093 65.2632 51.6706C65.4233 51.9319 65.5033 52.2332 65.5033 52.5747C65.5033 52.9161 65.4211 53.2175 65.2569 53.4787C65.097 53.74 64.8778 53.9428 64.5998 54.0875C64.3262 54.2282 64.0186 54.2984 63.6774 54.2984ZM63.6774 53.5631C63.8376 53.5631 63.987 53.527 64.126 53.4546C64.2694 53.3784 64.3831 53.2657 64.4671 53.1171C64.5515 52.9685 64.5935 52.7877 64.5935 52.5747C64.5935 52.2573 64.505 52.0141 64.3281 51.8454C64.1557 51.6727 63.9427 51.5862 63.69 51.5862C63.4373 51.5862 63.2247 51.6727 63.0519 51.8454C62.8836 52.0141 62.7992 52.2573 62.7992 52.5747C62.7992 52.892 62.8814 53.1373 63.0456 53.31C63.2143 53.4787 63.4247 53.5631 63.6774 53.5631ZM65.7983 52.5626C65.7983 52.2251 65.8678 51.9259 66.0068 51.6646C66.1502 51.4033 66.3416 51.2026 66.5817 51.0619C66.8262 50.9211 67.0979 50.8509 67.3967 50.8509C67.6579 50.8509 67.8854 50.9012 68.079 51.0016C68.2771 51.1019 68.435 51.2285 68.5529 51.3813V50.9052H69.4437V54.2442H68.5529V53.756C68.4391 53.9127 68.2812 54.0432 68.079 54.1478C67.8813 54.2481 67.6516 54.2984 67.3904 54.2984C67.0957 54.2984 66.8262 54.2261 66.5817 54.0815C66.3416 53.9368 66.1502 53.734 66.0068 53.4727C65.8678 53.2075 65.7983 52.9041 65.7983 52.5626ZM68.5529 52.5747C68.5529 52.3698 68.5109 52.195 68.4265 52.0503C68.3425 51.9017 68.2288 51.789 68.0853 51.7128C67.9422 51.6323 67.7884 51.5923 67.6241 51.5923C67.4599 51.5923 67.3083 51.6305 67.1693 51.7068C67.0303 51.783 66.9166 51.8957 66.8281 52.0443C66.7441 52.1889 66.7017 52.3616 66.7017 52.5626C66.7017 52.7636 66.7441 52.9402 66.8281 53.093C66.9166 53.2416 67.0303 53.3561 67.1693 53.4366C67.3127 53.517 67.4643 53.5571 67.6241 53.5571C67.7884 53.5571 67.9422 53.5188 68.0853 53.4426C68.2288 53.3621 68.3425 53.2497 68.4265 53.1051C68.5109 52.9565 68.5529 52.7796 68.5529 52.5747ZM71.0658 51.4235C71.1795 51.2466 71.327 51.108 71.508 51.0076C71.6935 50.9073 71.9038 50.8569 72.1398 50.8569V51.7429H71.9061C71.6281 51.7429 71.4174 51.8053 71.2743 51.9298C71.1353 52.0542 71.0658 52.2712 71.0658 52.5807V54.2442H70.1813V50.9052H71.0658V51.4235ZM72.3818 52.5626C72.3818 52.2251 72.4513 51.9259 72.5903 51.6646C72.7334 51.4033 72.9273 51.2026 73.1715 51.0619C73.4157 50.9211 73.6874 50.8509 73.9865 50.8509C74.214 50.8509 74.431 50.8991 74.6373 50.9956C74.8435 51.0881 75.0078 51.2125 75.13 51.3692V49.7841H76.0272V54.2442H75.13V53.75C75.0204 53.9148 74.8669 54.0474 74.6688 54.1478C74.4708 54.2481 74.2414 54.2984 73.9802 54.2984C73.6855 54.2984 73.4157 54.2261 73.1715 54.0815C72.9273 53.9368 72.7334 53.734 72.5903 53.4727C72.4513 53.2075 72.3818 52.9041 72.3818 52.5626ZM75.1364 52.5747C75.1364 52.3698 75.0943 52.195 75.01 52.0503C74.9257 51.9017 74.8119 51.789 74.6688 51.7128C74.5257 51.6323 74.3719 51.5923 74.2076 51.5923C74.0434 51.5923 73.8918 51.6305 73.7528 51.7068C73.6138 51.783 73.5 51.8957 73.4116 52.0443C73.3273 52.1889 73.2852 52.3616 73.2852 52.5626C73.2852 52.7636 73.3273 52.9402 73.4116 53.093C73.5 53.2416 73.6138 53.3561 73.7528 53.4366C73.8959 53.517 74.0475 53.5571 74.2076 53.5571C74.3719 53.5571 74.5257 53.5188 74.6688 53.4426C74.8119 53.3621 74.9257 53.2497 75.01 53.1051C75.0943 52.9565 75.1364 52.7796 75.1364 52.5747ZM77.2133 50.5074C77.0573 50.5074 76.9268 50.4613 76.8216 50.3687C76.7206 50.2723 76.67 50.1539 76.67 50.0131C76.67 49.8724 76.7206 49.7561 76.8216 49.6636C76.9268 49.5671 77.0573 49.5189 77.2133 49.5189C77.3691 49.5189 77.4976 49.5671 77.5987 49.6636C77.7039 49.7561 77.7567 49.8724 77.7567 50.0131C77.7567 50.1539 77.7039 50.2723 77.5987 50.3687C77.4976 50.4613 77.3691 50.5074 77.2133 50.5074ZM77.6493 50.9052V54.2442H76.7648V50.9052H77.6493ZM80.3363 50.8569C80.7532 50.8569 81.0903 50.9835 81.3471 51.2367C81.6039 51.4859 81.7325 51.8354 81.7325 52.2854V54.2442H80.848V52.3999C80.848 52.1347 80.7785 51.9319 80.6395 51.7911C80.5005 51.6465 80.311 51.5742 80.0709 51.5742C79.8267 51.5742 79.6328 51.6465 79.4897 51.7911C79.3507 51.9319 79.2812 52.1347 79.2812 52.3999V54.2442H78.3967V50.9052H79.2812V51.321C79.399 51.1764 79.5487 51.064 79.7297 50.9835C79.9152 50.8991 80.1173 50.8569 80.3363 50.8569ZM83.8183 50.8509C84.0792 50.8509 84.3089 50.9012 84.507 51.0016C84.7047 51.098 84.8608 51.2246 84.9745 51.3813V50.9052H85.8653V54.2683C85.8653 54.5778 85.7999 54.8529 85.6694 55.094C85.5387 55.339 85.3428 55.5319 85.0819 55.6726C84.8206 55.8173 84.5048 55.8896 84.1342 55.8896C83.637 55.8896 83.2286 55.779 82.9086 55.5581C82.5927 55.3372 82.4136 55.0359 82.3715 54.654H83.2497C83.2958 54.8068 83.395 54.9274 83.5467 55.0157C83.7024 55.1082 83.8897 55.1543 84.1089 55.1543C84.3658 55.1543 84.5743 55.0799 84.7344 54.9313C84.8943 54.7866 84.9745 54.5657 84.9745 54.2683V53.75C84.8608 53.9067 84.7028 54.0372 84.5006 54.1417C84.3026 54.2463 84.0751 54.2984 83.8183 54.2984C83.5233 54.2984 83.2538 54.2261 83.0096 54.0815C82.7651 53.9368 82.5715 53.734 82.4284 53.4727C82.2894 53.2075 82.2199 52.9041 82.2199 52.5626C82.2199 52.2251 82.2894 51.9259 82.4284 51.6646C82.5715 51.4033 82.7632 51.2026 83.0033 51.0619C83.2475 50.9211 83.5192 50.8509 83.8183 50.8509ZM84.9745 52.5747C84.9745 52.3698 84.9322 52.195 84.8481 52.0503C84.7638 51.9017 84.6501 51.789 84.507 51.7128C84.3636 51.6323 84.21 51.5923 84.0458 51.5923C83.8815 51.5923 83.7299 51.6305 83.5909 51.7068C83.4519 51.783 83.3382 51.8957 83.2497 52.0443C83.1654 52.1889 83.1234 52.3616 83.1234 52.5626C83.1234 52.7636 83.1654 52.9402 83.2497 53.093C83.3382 53.2416 83.4519 53.3561 83.5909 53.4366C83.734 53.517 83.8856 53.5571 84.0458 53.5571C84.21 53.5571 84.3636 53.5188 84.507 53.4426C84.6501 53.3621 84.7638 53.2497 84.8481 53.1051C84.9322 52.9565 84.9745 52.7796 84.9745 52.5747ZM89.5044 54.2864C89.197 54.2864 88.919 54.2361 88.6704 54.1357C88.4262 54.0353 88.2323 53.8907 88.0892 53.7017C87.9461 53.5128 87.8722 53.2898 87.868 53.0327H88.8157C88.8284 53.2054 88.8915 53.3422 89.0053 53.4426C89.1231 53.5429 89.2832 53.5933 89.4854 53.5933C89.6917 53.5933 89.8541 53.5472 89.9719 53.4546C90.0897 53.3582 90.1488 53.2337 90.1488 53.081C90.1488 52.9565 90.1087 52.854 90.0287 52.7736C89.9488 52.6931 89.8477 52.631 89.7255 52.5867C89.6077 52.5385 89.4434 52.4864 89.2327 52.43C88.9462 52.3496 88.7124 52.2712 88.5314 52.195C88.3545 52.1145 88.2007 51.9961 88.0702 51.8394C87.9439 51.6787 87.8807 51.4657 87.8807 51.2005C87.8807 50.9513 87.9461 50.7343 88.0765 50.5496C88.207 50.3648 88.3902 50.2241 88.6262 50.1277C88.8622 50.0273 89.1316 49.977 89.4349 49.977C89.8898 49.977 90.2584 50.0834 90.5405 50.2964C90.827 50.5053 90.9849 50.7988 91.0143 51.1764H90.0414C90.0329 51.0317 89.9678 50.9133 89.8455 50.8208C89.7277 50.7243 89.5698 50.6761 89.3717 50.6761C89.1989 50.6761 89.0599 50.7183 88.9547 50.8027C88.8536 50.8871 88.8031 51.0097 88.8031 51.1704C88.8031 51.2828 88.841 51.3774 88.9168 51.4536C88.9967 51.526 89.0937 51.5862 89.2074 51.6344C89.3253 51.6787 89.4895 51.7309 89.7002 51.7911C89.9867 51.8716 90.2205 51.9518 90.4015 52.0322C90.5825 52.1127 90.7386 52.2332 90.869 52.3939C90.9995 52.5545 91.0649 52.7654 91.0649 53.0267C91.0649 53.2518 91.0039 53.4607 90.8817 53.6535C90.7594 53.8464 90.5806 54.001 90.3446 54.1176C90.1087 54.23 89.8288 54.2864 89.5044 54.2864ZM95.0097 50.9052V54.2442H94.1189V53.8223C94.0052 53.9669 93.8555 54.0815 93.6703 54.1658C93.489 54.2463 93.2913 54.2864 93.0765 54.2864C92.8026 54.2864 92.5603 54.2321 92.3499 54.1236C92.1392 54.0112 91.9727 53.8485 91.8508 53.6354C91.7327 53.4185 91.6739 53.1614 91.6739 52.864V50.9052H92.5584V52.7434C92.5584 53.0086 92.6279 53.2135 92.7669 53.3582C92.9059 53.4989 93.0954 53.5691 93.3355 53.5691C93.5797 53.5691 93.7714 53.4989 93.9104 53.3582C94.0494 53.2135 94.1189 53.0086 94.1189 52.7434V50.9052H95.0097ZM96.6404 51.3873C96.7541 51.2345 96.9101 51.108 97.1079 51.0076C97.31 50.903 97.5397 50.8509 97.7965 50.8509C98.0957 50.8509 98.3651 50.9211 98.6052 51.0619C98.8497 51.2026 99.0411 51.4033 99.1801 51.6646C99.3235 51.9216 99.3949 52.2212 99.3949 52.5626C99.3949 52.9041 99.3235 53.2075 99.1801 53.4727C99.0411 53.734 98.8497 53.9368 98.6052 54.0815C98.3651 54.2261 98.0957 54.2984 97.7965 54.2984C97.5397 54.2984 97.3123 54.2481 97.1142 54.1478C96.9205 54.0474 96.7626 53.9208 96.6404 53.768V55.8354H95.7559V50.9052H96.6404V51.3873ZM98.4915 52.5626C98.4915 52.3616 98.4473 52.1889 98.3588 52.0443C98.2748 51.8957 98.1611 51.783 98.0176 51.7068C97.8787 51.6305 97.727 51.5923 97.5628 51.5923C97.4029 51.5923 97.2513 51.6323 97.1079 51.7128C96.9689 51.789 96.8552 51.9017 96.7667 52.0503C96.6827 52.1989 96.6404 52.3737 96.6404 52.5747C96.6404 52.7757 96.6827 52.9505 96.7667 53.099C96.8552 53.2476 96.9689 53.3621 97.1079 53.4426C97.2513 53.5188 97.4029 53.5571 97.5628 53.5571C97.727 53.5571 97.8787 53.517 98.0176 53.4366C98.1611 53.3561 98.2748 53.2416 98.3588 53.093C98.4473 52.9444 98.4915 52.7675 98.4915 52.5626ZM100.796 51.3873C100.91 51.2345 101.065 51.108 101.263 51.0076C101.466 50.903 101.695 50.8509 101.952 50.8509C102.251 50.8509 102.521 50.9211 102.761 51.0619C103.005 51.2026 103.197 51.4033 103.336 51.6646C103.479 51.9216 103.55 52.2212 103.55 52.5626C103.55 52.9041 103.479 53.2075 103.336 53.4727C103.197 53.734 103.005 53.9368 102.761 54.0815C102.521 54.2261 102.251 54.2984 101.952 54.2984C101.695 54.2984 101.468 54.2481 101.27 54.1478C101.076 54.0474 100.918 53.9208 100.796 53.768V55.8354H99.9114V50.9052H100.796V51.3873ZM102.647 52.5626C102.647 52.3616 102.603 52.1889 102.514 52.0443C102.43 51.8957 102.316 51.783 102.173 51.7068C102.034 51.6305 101.883 51.5923 101.718 51.5923C101.558 51.5923 101.407 51.6323 101.263 51.7128C101.124 51.789 101.011 51.9017 100.922 52.0503C100.838 52.1989 100.796 52.3737 100.796 52.5747C100.796 52.7757 100.838 52.9505 100.922 53.099C101.011 53.2476 101.124 53.3621 101.263 53.4426C101.407 53.5188 101.558 53.5571 101.718 53.5571C101.883 53.5571 102.034 53.517 102.173 53.4366C102.316 53.3561 102.43 53.2416 102.514 53.093C102.603 52.9444 102.647 52.7675 102.647 52.5626ZM105.621 54.2984C105.284 54.2984 104.981 54.2282 104.711 54.0875C104.442 53.9428 104.229 53.74 104.073 53.4787C103.922 53.2175 103.846 52.9161 103.846 52.5747C103.846 52.2332 103.924 51.9319 104.08 51.6706C104.239 51.4093 104.456 51.2086 104.73 51.0679C105.004 50.9232 105.309 50.8509 105.646 50.8509C105.983 50.8509 106.289 50.9232 106.563 51.0679C106.836 51.2086 107.051 51.4093 107.207 51.6706C107.367 51.9319 107.447 52.2332 107.447 52.5747C107.447 52.9161 107.365 53.2175 107.201 53.4787C107.04 53.74 106.822 53.9428 106.544 54.0875C106.27 54.2282 105.962 54.2984 105.621 54.2984ZM105.621 53.5631C105.781 53.5631 105.931 53.527 106.07 53.4546C106.213 53.3784 106.327 53.2657 106.411 53.1171C106.495 52.9685 106.537 52.7877 106.537 52.5747C106.537 52.2573 106.449 52.0141 106.272 51.8454C106.099 51.6727 105.886 51.5862 105.634 51.5862C105.381 51.5862 105.168 51.6727 104.996 51.8454C104.827 52.0141 104.743 52.2573 104.743 52.5747C104.743 52.892 104.825 53.1373 104.989 53.31C105.158 53.4787 105.368 53.5631 105.621 53.5631ZM108.854 51.4235C108.968 51.2466 109.115 51.108 109.296 51.0076C109.481 50.9073 109.692 50.8569 109.928 50.8569V51.7429H109.694C109.416 51.7429 109.206 51.8053 109.062 51.9298C108.923 52.0542 108.854 52.2712 108.854 52.5807V54.2442H107.969V50.9052H108.854V51.4235ZM111.427 51.5983V53.2136C111.427 53.326 111.454 53.4085 111.509 53.4607C111.568 53.5089 111.665 53.533 111.8 53.533H112.21V54.2442H111.654C110.909 54.2442 110.536 53.8985 110.536 53.2075V51.5983H110.119V50.9052H110.536V50.0794H111.427V50.9052H112.21V51.5983H111.427Z" fill="white"/>
<path d="M32.8164 58.9176C32.7441 59.1367 32.9131 59.3673 33.1667 59.3673H41.0795C41.3091 59.3673 41.4901 59.1596 41.4298 58.9408C41.0915 57.6616 39.2675 57.3159 39.2675 57.3159L39.8595 51.5998H34.3627L34.9547 57.3159C34.9547 57.3159 33.215 57.7884 32.8164 58.9176Z" fill="white"/>
<path d="M34.7134 46.506C34.7134 46.1832 34.4474 45.9298 34.1094 45.9298C33.7711 45.9298 33.5051 46.1832 33.5051 46.506V46.7941V47.3702V47.9464H31.9105C31.5119 47.9464 31.1858 48.2574 31.1858 48.6378V49.7672C31.1858 50.1475 31.5119 50.4588 31.9105 50.4588H34.2421H39.9922H42.3238C42.7225 50.4588 43.0488 50.1475 43.0488 49.7672V48.6378C43.0488 48.2574 42.7225 47.9464 42.3238 47.9464H40.2582H35.4017C35.5227 47.7506 35.6677 47.5547 35.8367 47.3702C36.018 47.1512 36.2233 46.9553 36.4527 46.7941C36.8153 46.5289 37.238 46.3559 37.7213 46.3559C38.0596 46.3559 38.3253 46.1024 38.3253 45.7797C38.3253 45.4572 38.0596 45.2035 37.7213 45.2035C36.4047 45.2035 35.438 45.9527 34.7617 46.7941C34.7494 46.817 34.7134 46.8516 34.7134 46.8516V46.506Z" fill="white"/>
<path d="M0 100.954C0 93.4649 6.36433 87.3934 14.2151 87.3934H77.0775C84.9284 87.3934 91.2926 93.4649 91.2926 100.954C91.2926 108.444 84.9284 114.516 77.0775 114.516H14.2151C6.36433 114.516 0 108.444 0 100.954Z" fill="#F88B27"/>
<path d="M33.2256 102.395H34.6787V103.064H32.3411V98.857H33.2256V102.395ZM35.5632 99.3271C35.4071 99.3271 35.2766 99.281 35.1715 99.1885C35.0704 99.0921 35.0198 98.9736 35.0198 98.8329C35.0198 98.6922 35.0704 98.5758 35.1715 98.4833C35.2766 98.3869 35.4071 98.3387 35.5632 98.3387C35.7189 98.3387 35.8475 98.3869 35.9485 98.4833C36.0537 98.5758 36.1065 98.6922 36.1065 98.8329C36.1065 98.9736 36.0537 99.0921 35.9485 99.1885C35.8475 99.281 35.7189 99.3271 35.5632 99.3271ZM35.9991 99.7249V103.064H35.1146V99.7249H35.9991ZM38.2059 102.286L39.0904 99.7249H40.0318L38.7366 103.064H37.6626L36.3737 99.7249H37.3214L38.2059 102.286ZM43.656 101.322C43.656 101.443 43.6475 101.551 43.6307 101.648H41.072C41.0928 101.889 41.1813 102.078 41.3373 102.214C41.4931 102.351 41.6848 102.419 41.9123 102.419C42.2408 102.419 42.4745 102.284 42.6135 102.015H43.5675C43.4664 102.337 43.2725 102.602 42.9863 102.811C42.6998 103.016 42.3482 103.118 41.9312 103.118C41.5942 103.118 41.2909 103.048 41.0214 102.907C40.7561 102.763 40.5476 102.56 40.396 102.299C40.2485 102.037 40.1749 101.736 40.1749 101.394C40.1749 101.049 40.2485 100.746 40.396 100.484C40.5432 100.223 40.7498 100.022 41.0151 99.8816C41.2805 99.7409 41.5856 99.6707 41.9312 99.6707C42.2638 99.6707 42.5608 99.7391 42.822 99.8756C43.0874 100.012 43.2914 100.207 43.4349 100.46C43.5821 100.709 43.656 100.997 43.656 101.322ZM42.7399 101.081C42.7355 100.864 42.6533 100.691 42.4935 100.563C42.3333 100.43 42.1375 100.364 41.9059 100.364C41.6867 100.364 41.5016 100.428 41.35 100.557C41.2025 100.681 41.1118 100.856 41.0783 101.081H42.7399ZM50.362 98.857V103.064H49.4775V100.328L48.2961 103.064H47.6264L46.4387 100.328V103.064H45.5542V98.857H46.5587L47.9613 101.985L49.3638 98.857H50.362ZM54.3638 101.322C54.3638 101.443 54.3555 101.551 54.3385 101.648H51.7798C51.8009 101.889 51.8894 102.078 52.0451 102.214C52.2012 102.351 52.3926 102.419 52.62 102.419C52.9486 102.419 53.1823 102.284 53.3213 102.015H54.2753C54.1742 102.337 53.9806 102.602 53.6941 102.811C53.4079 103.016 53.056 103.118 52.639 103.118C52.3022 103.118 51.999 103.048 51.7292 102.907C51.4639 102.763 51.2554 102.56 51.1038 102.299C50.9566 102.037 50.8826 101.736 50.8826 101.394C50.8826 101.049 50.9566 100.746 51.1038 100.484C51.2513 100.223 51.4576 100.022 51.7229 99.8816C51.9882 99.7409 52.2937 99.6707 52.639 99.6707C52.9719 99.6707 53.2689 99.7391 53.5298 99.8756C53.7951 100.012 53.9995 100.207 54.1426 100.46C54.2902 100.709 54.3638 100.997 54.3638 101.322ZM53.4477 101.081C53.4436 100.864 53.3614 100.691 53.2013 100.563C53.0414 100.43 52.8456 100.364 52.6137 100.364C52.3948 100.364 52.2094 100.428 52.0577 100.557C51.9105 100.681 51.8199 100.856 51.7861 101.081H53.4477ZM56.2225 103.118C55.9359 103.118 55.6791 103.07 55.4517 102.974C55.2242 102.873 55.0432 102.738 54.9084 102.57C54.7779 102.401 54.7062 102.214 54.6935 102.009H55.5844C55.6011 102.138 55.6665 102.244 55.7802 102.329C55.898 102.413 56.0434 102.455 56.2161 102.455C56.3845 102.455 56.5153 102.423 56.6078 102.359C56.7048 102.295 56.7532 102.212 56.7532 102.112C56.7532 102.003 56.6941 101.923 56.5763 101.871C56.4625 101.814 56.2793 101.754 56.0266 101.69C55.7654 101.629 55.5506 101.567 55.3822 101.503C55.2179 101.439 55.0748 101.34 54.9526 101.208C54.8348 101.075 54.7757 100.896 54.7757 100.671C54.7757 100.486 54.8303 100.318 54.9399 100.165C55.0537 100.012 55.2138 99.8916 55.4201 99.8033C55.6308 99.715 55.8772 99.6707 56.1593 99.6707C56.5763 99.6707 56.9089 99.771 57.1575 99.972C57.4061 100.169 57.5429 100.436 57.5682 100.774H56.7216C56.7089 100.641 56.6499 100.536 56.5447 100.46C56.4436 100.38 56.3068 100.34 56.134 100.34C55.9739 100.34 55.8497 100.368 55.7613 100.424C55.6769 100.48 55.6349 100.559 55.6349 100.659C55.6349 100.772 55.694 100.858 55.8118 100.918C55.9296 100.975 56.1128 101.033 56.3615 101.093C56.6142 101.153 56.8227 101.216 56.9869 101.28C57.1512 101.344 57.2924 101.445 57.4102 101.581C57.5325 101.714 57.5956 101.891 57.5997 102.112C57.5997 102.305 57.5429 102.477 57.4292 102.63C57.3196 102.783 57.1597 102.903 56.949 102.992C56.7427 103.076 56.5004 103.118 56.2225 103.118ZM59.539 103.118C59.2525 103.118 58.9957 103.07 58.7682 102.974C58.5408 102.873 58.3595 102.738 58.2249 102.57C58.0941 102.401 58.0227 102.214 58.0101 102.009H58.9009C58.9176 102.138 58.983 102.244 59.0968 102.329C59.2146 102.413 59.3599 102.455 59.5327 102.455C59.7011 102.455 59.8315 102.423 59.9244 102.359C60.0211 102.295 60.0697 102.212 60.0697 102.112C60.0697 102.003 60.0106 101.923 59.8928 101.871C59.7791 101.814 59.5959 101.754 59.3432 101.69C59.0819 101.629 58.8671 101.567 58.6987 101.503C58.5345 101.439 58.3911 101.34 58.2691 101.208C58.151 101.075 58.0922 100.896 58.0922 100.671C58.0922 100.486 58.1469 100.318 58.2565 100.165C58.3702 100.012 58.53 99.8916 58.7366 99.8033C58.947 99.715 59.1934 99.6707 59.4758 99.6707C59.8928 99.6707 60.2254 99.771 60.474 99.972C60.7223 100.169 60.8594 100.436 60.8847 100.774H60.0381C60.0255 100.641 59.9664 100.536 59.8612 100.46C59.7601 100.38 59.623 100.34 59.4506 100.34C59.2904 100.34 59.1663 100.368 59.0778 100.424C58.9935 100.48 58.9514 100.559 58.9514 100.659C58.9514 100.772 59.0102 100.858 59.1283 100.918C59.2462 100.975 59.4294 101.033 59.678 101.093C59.9307 101.153 60.1392 101.216 60.3035 101.28C60.4677 101.344 60.6086 101.445 60.7268 101.581C60.8487 101.714 60.9119 101.891 60.9163 102.112C60.9163 102.305 60.8594 102.477 60.7457 102.63C60.6361 102.783 60.4759 102.903 60.2656 102.992C60.059 103.076 59.817 103.118 59.539 103.118ZM61.2884 101.382C61.2884 101.045 61.3579 100.746 61.4969 100.484C61.64 100.223 61.8317 100.022 62.0718 99.8816C62.316 99.7409 62.5877 99.6707 62.8868 99.6707C63.1481 99.6707 63.3755 99.721 63.5691 99.8214C63.7672 99.9217 63.9252 100.048 64.043 100.201V99.7249H64.9338V103.064H64.043V102.576C63.9293 102.732 63.7713 102.863 63.5691 102.968C63.3711 103.068 63.1418 103.118 62.8805 103.118C62.5858 103.118 62.316 103.046 62.0718 102.901C61.8317 102.757 61.64 102.554 61.4969 102.292C61.3579 102.027 61.2884 101.724 61.2884 101.382ZM64.043 101.394C64.043 101.19 64.001 101.015 63.9166 100.87C63.8323 100.722 63.7186 100.609 63.5755 100.533C63.4324 100.452 63.2785 100.412 63.1143 100.412C62.95 100.412 62.7984 100.45 62.6594 100.527C62.5204 100.603 62.4067 100.715 62.3182 100.864C62.2339 101.009 62.1919 101.181 62.1919 101.382C62.1919 101.583 62.2339 101.76 62.3182 101.913C62.4067 102.061 62.5204 102.176 62.6594 102.256C62.8025 102.337 62.9541 102.377 63.1143 102.377C63.2785 102.377 63.4324 102.339 63.5755 102.262C63.7186 102.182 63.8323 102.069 63.9166 101.925C64.001 101.776 64.043 101.599 64.043 101.394ZM67.0424 99.6707C67.3033 99.6707 67.533 99.721 67.731 99.8214C67.9288 99.9178 68.0848 100.044 68.1985 100.201V99.7249H69.0894V103.088C69.0894 103.398 69.024 103.673 68.8935 103.914C68.7627 104.159 68.5669 104.352 68.3059 104.492C68.0447 104.637 67.7288 104.709 67.3583 104.709C66.8611 104.709 66.4526 104.599 66.1326 104.378C65.8167 104.157 65.6376 103.856 65.5956 103.474H66.4738C66.5199 103.627 66.6191 103.747 66.7707 103.835C66.9264 103.928 67.1138 103.974 67.333 103.974C67.5898 103.974 67.7983 103.9 67.9585 103.751C68.1183 103.606 68.1985 103.385 68.1985 103.088V102.57C68.0848 102.726 67.9269 102.857 67.7247 102.961C67.5266 103.066 67.2992 103.118 67.0424 103.118C66.7473 103.118 66.4779 103.046 66.2337 102.901C65.9892 102.757 65.7956 102.554 65.6525 102.292C65.5135 102.027 65.444 101.724 65.444 101.382C65.444 101.045 65.5135 100.746 65.6525 100.484C65.7956 100.223 65.9873 100.022 66.2274 99.8816C66.4716 99.7409 66.7432 99.6707 67.0424 99.6707ZM68.1985 101.394C68.1985 101.19 68.1562 101.015 68.0722 100.87C67.9878 100.722 67.8741 100.609 67.731 100.533C67.5876 100.452 67.4341 100.412 67.2698 100.412C67.1056 100.412 66.9539 100.45 66.8149 100.527C66.6759 100.603 66.5622 100.715 66.4738 100.864C66.3894 101.009 66.3474 101.181 66.3474 101.382C66.3474 101.583 66.3894 101.76 66.4738 101.913C66.5622 102.061 66.6759 102.176 66.8149 102.256C66.958 102.337 67.1097 102.377 67.2698 102.377C67.4341 102.377 67.5876 102.339 67.731 102.262C67.8741 102.182 67.9878 102.069 68.0722 101.925C68.1562 101.776 68.1985 101.599 68.1985 101.394ZM70.2752 99.3271C70.1195 99.3271 69.989 99.281 69.8835 99.1885C69.7824 99.0921 69.7319 98.9736 69.7319 98.8329C69.7319 98.6922 69.7824 98.5758 69.8835 98.4833C69.989 98.3869 70.1195 98.3387 70.2752 98.3387C70.4313 98.3387 70.5595 98.3869 70.6606 98.4833C70.7661 98.5758 70.8185 98.6922 70.8185 98.8329C70.8185 98.9736 70.7661 99.0921 70.6606 99.1885C70.5595 99.281 70.4313 99.3271 70.2752 99.3271ZM70.7111 99.7249V103.064H69.8266V99.7249H70.7111ZM73.3984 99.6767C73.8154 99.6767 74.1521 99.8033 74.4093 100.056C74.6661 100.306 74.7947 100.655 74.7947 101.105V103.064H73.9102V101.22C73.9102 100.954 73.8407 100.752 73.7017 100.611C73.5627 100.466 73.3732 100.394 73.1331 100.394C72.8886 100.394 72.6949 100.466 72.5518 100.611C72.4128 100.752 72.3433 100.954 72.3433 101.22V103.064H71.4589V99.7249H72.3433V100.141C72.4612 99.9961 72.6106 99.8837 72.7919 99.8033C72.977 99.7189 73.1792 99.6767 73.3984 99.6767ZM76.8802 99.6707C77.1414 99.6707 77.3711 99.721 77.5688 99.8214C77.7669 99.9178 77.9226 100.044 78.0363 100.201V99.7249H78.9272V103.088C78.9272 103.398 78.8621 103.673 78.7313 103.914C78.6008 104.159 78.405 104.352 78.1437 104.492C77.8828 104.637 77.5669 104.709 77.1961 104.709C76.6992 104.709 76.2907 104.599 75.9704 104.378C75.6545 104.157 75.4757 103.856 75.4334 103.474H76.3116C76.358 103.627 76.4569 103.747 76.6085 103.835C76.7646 103.928 76.9519 103.974 77.1708 103.974C77.4279 103.974 77.6364 103.9 77.7963 103.751C77.9564 103.606 78.0363 103.385 78.0363 103.088V102.57C77.9226 102.726 77.7647 102.857 77.5625 102.961C77.3648 103.066 77.1373 103.118 76.8802 103.118C76.5855 103.118 76.316 103.046 76.0715 102.901C75.8273 102.757 75.6337 102.554 75.4903 102.292C75.3513 102.027 75.2818 101.724 75.2818 101.382C75.2818 101.045 75.3513 100.746 75.4903 100.484C75.6337 100.223 75.8251 100.022 76.0652 99.8816C76.3097 99.7409 76.5813 99.6707 76.8802 99.6707ZM78.0363 101.394C78.0363 101.19 77.9943 101.015 77.91 100.87C77.826 100.722 77.7122 100.609 77.5688 100.533C77.4257 100.452 77.2719 100.412 77.1076 100.412C76.9434 100.412 76.7917 100.45 76.6527 100.527C76.5137 100.603 76.4 100.715 76.3116 100.864C76.2276 101.009 76.1852 101.181 76.1852 101.382C76.1852 101.583 76.2276 101.76 76.3116 101.913C76.4 102.061 76.5137 102.176 76.6527 102.256C76.7962 102.337 76.9478 102.377 77.1076 102.377C77.2719 102.377 77.4257 102.339 77.5688 102.262C77.7122 102.182 77.826 102.069 77.91 101.925C77.9943 101.776 78.0363 101.599 78.0363 101.394Z" fill="white"/>
<mask id="mask1_6241_30753" style="mask-type:luminance" maskUnits="userSpaceOnUse" x="9" y="93" width="17" height="16">
<path d="M25.2714 93.4205H9.47681V108.488H25.2714V93.4205Z" fill="white"/>
</mask>
<g mask="url(#mask1_6241_30753)">
<path fill-rule="evenodd" clip-rule="evenodd" d="M19.8842 94.8213C16.4961 91.996 11.2426 93.5947 10.0764 97.7845C9.58667 99.5429 10.0592 100.359 10.0592 101.679C10.0592 103.036 9.47681 105.001 9.47681 105.001C9.47681 105.241 9.70049 105.475 9.97595 105.407C10.9609 105.161 12.5274 104.675 14.4007 105.161C20.7004 106.79 24.7429 98.8721 19.8842 94.8213ZM24.8348 108.469C24.7939 108.469 24.7516 108.464 24.7084 108.454C19.728 107.261 20.0623 108.601 17.2951 107.895C16.4577 107.681 15.6956 107.297 15.038 106.798C20.0639 107.385 24.2532 103.208 23.5116 98.2893C24.2705 99.0427 24.8277 99.9757 25.0631 101.02C25.7333 103.986 24.0319 103.484 25.2586 107.991C25.3307 108.255 25.0859 108.469 24.8348 108.469Z" fill="white"/>
</g>
<path d="M74.0766 164.541C80.6191 164.541 85.9226 159.414 85.9226 153.089C85.9226 146.765 80.6191 141.638 74.0766 141.638C67.5342 141.638 62.2307 146.765 62.2307 153.089C62.2307 159.414 67.5342 164.541 74.0766 164.541Z" fill="#8DB8F2"/>
<path d="M256.346 159.116C262.888 159.116 268.192 153.989 268.192 147.665C268.192 141.34 262.888 136.213 256.346 136.213C249.804 136.213 244.5 141.34 244.5 147.665C244.5 153.989 249.804 159.116 256.346 159.116Z" fill="#8DB8F2"/>
<path d="M147.837 180.513C147.139 180.513 146.574 179.973 146.574 179.307C146.574 178.641 147.139 178.102 147.837 178.102C148.535 178.102 149.101 178.641 149.101 179.307C149.101 179.973 148.535 180.513 147.837 180.513Z" fill="#D9D9D9"/>
</g>
<defs>
<filter id="filter0_d_6241_30753" x="97.0852" y="133.501" width="131.926" height="87.5622" filterUnits="userSpaceOnUse" color-interpolation-filters="sRGB">
<feFlood flood-opacity="0" result="BackgroundImageFix"/>
<feColorMatrix in="SourceAlpha" type="matrix" values="0 0 0 0 0 0 0 0 0 0 0 0 0 0 0 0 0 0 127 0" result="hardAlpha"/>
<feOffset dy="4"/>
<feGaussianBlur stdDeviation="2"/>
<feComposite in2="hardAlpha" operator="out"/>
<feColorMatrix type="matrix" values="0 0 0 0 0 0 0 0 0 0 0 0 0 0 0 0 0 0 0.25 0"/>
<feBlend mode="normal" in2="BackgroundImageFix" result="effect1_dropShadow_6241_30753"/>
<feBlend mode="normal" in="SourceGraphic" in2="effect1_dropShadow_6241_30753" result="shape"/>
</filter>
<linearGradient id="paint0_linear_6241_30753" x1="162.842" y1="9.94476" x2="162.842" y2="250.126" gradientUnits="userSpaceOnUse">
<stop stop-color="#2580FF" stop-opacity="0.18"/>
<stop offset="0.818" stop-color="#D9D9D9" stop-opacity="0"/>
</linearGradient>
<linearGradient id="paint1_linear_6241_30753" x1="162.842" y1="9.94476" x2="162.614" y2="213.597" gradientUnits="userSpaceOnUse">
<stop stop-color="#417BEF" stop-opacity="0.35"/>
<stop offset="0.568" stop-color="#E0E7FF" stop-opacity="0"/>
</linearGradient>
<clipPath id="clip0_6241_30753">
<rect width="326" height="250.126" fill="white"/>
</clipPath>
</defs>
</svg>
