<svg width="326" height="127" viewBox="0 0 326 127" fill="none" xmlns="http://www.w3.org/2000/svg">
<g clip-path="url(#clip0_6255_20882)">
<path opacity="0.35" d="M67.8362 126.242C91.57 126.242 110.81 123.843 110.81 120.884C110.81 117.924 91.57 115.525 67.8362 115.525C44.1025 115.525 24.8625 117.924 24.8625 120.884C24.8625 123.843 44.1025 126.242 67.8362 126.242Z" fill="#464A60"/>
<path opacity="0.35" d="M265.022 126.242C288.755 126.242 307.996 123.843 307.996 120.884C307.996 117.924 288.755 115.525 265.022 115.525C241.289 115.525 222.049 117.924 222.049 120.884C222.049 123.843 241.289 126.242 265.022 126.242Z" fill="#464A60"/>
<path d="M107.517 74.3516C68.4913 89.8656 41.3461 80.118 28.209 72.5222C23.681 77.2896 20.4584 83.1538 19.5021 90.1245C17.1844 121.509 26.4549 124.684 66.5861 124.562C106.717 124.44 116.598 123.829 114.646 90.1245C113.997 84.0576 111.365 78.7917 107.517 74.3516Z" fill="#4879BA"/>
<path d="M107.517 74.3516C97.5763 62.8747 79.5136 56.9055 66.5838 56.9055C54.2759 56.9055 38.1187 62.0834 28.2067 72.5197C41.3461 80.118 68.4916 89.8656 107.517 74.3516Z" fill="#4879BA"/>
<path d="M66.5837 55.6371C73.2255 55.6371 81.132 57.166 88.6391 60.1455C96.1439 63.1241 103.337 67.5869 108.476 73.5209L109.645 74.8705L107.986 75.5302C68.5397 91.2113 40.9876 81.3757 27.5717 73.6175L26.1787 72.8124L27.2868 71.6461C37.4881 60.9052 54.0078 55.6371 66.5837 55.6371ZM66.5837 58.174C55.0141 58.174 39.9777 62.8728 30.2821 72.2301C43.4354 79.4087 69.0245 87.7073 105.333 73.8411C100.633 68.9486 94.3515 65.1421 87.7032 62.5035C80.4614 59.6292 72.8717 58.174 66.5837 58.174Z" fill="white"/>
<path d="M134.494 77.1598C138.933 77.1598 142.531 73.5614 142.531 69.1223C142.531 64.6833 138.933 61.0848 134.494 61.0848C130.055 61.0848 126.456 64.6833 126.456 69.1223C126.456 73.5614 130.055 77.1598 134.494 77.1598Z" fill="#F88B27"/>
<path d="M8.03748 85.7331C12.4765 85.7331 16.075 82.1347 16.075 77.6956C16.075 73.2566 12.4765 69.6581 8.03748 69.6581C3.5985 69.6581 0 73.2566 0 77.6956C0 82.1347 3.5985 85.7331 8.03748 85.7331Z" fill="#F88B27"/>
<path d="M36.752 75.9543C36.7522 75.9556 36.7518 75.9573 36.752 75.9593C36.7524 75.9633 36.7532 75.9688 36.7539 75.9754C36.7552 75.9884 36.7573 76.0064 36.7595 76.0292C36.7638 76.0752 36.7695 76.1408 36.7762 76.2243C36.7894 76.3915 36.8058 76.6314 36.8195 76.9329C36.847 77.5354 36.8642 78.3875 36.8239 79.3999C36.7436 81.4144 36.4338 84.1156 35.4934 86.7643C34.5521 89.4158 32.9511 92.0885 30.2436 93.9205C27.519 95.7641 23.8265 96.6532 18.9109 96.0085L19.2404 93.4932C23.6782 94.0752 26.7146 93.2452 28.8215 91.8196C30.9454 90.3825 32.2788 88.2358 33.1027 85.9151C33.9275 83.5916 34.2143 81.167 34.2888 79.2989C34.3258 78.3702 34.3098 77.5915 34.285 77.0487C34.2727 76.7777 34.2585 76.566 34.2473 76.425C34.2417 76.3545 34.2368 76.3015 34.2336 76.2677C34.2321 76.251 34.2307 76.239 34.2299 76.2318L34.2293 76.2243C34.2322 76.2244 34.2909 76.2183 35.4904 76.0881C36.6965 75.9571 36.749 75.952 36.7514 75.9524C36.7514 75.9528 36.7519 75.9536 36.752 75.9543Z" fill="white"/>
<path d="M100.6 77.3741L101.862 77.4887C101.862 77.4888 101.862 77.4892 101.862 77.4899C101.862 77.4914 101.862 77.4941 101.862 77.498C101.861 77.506 101.86 77.519 101.859 77.537C101.856 77.5731 101.852 77.629 101.847 77.703C101.837 77.8513 101.824 78.0732 101.813 78.3564C101.791 78.9234 101.777 79.7355 101.81 80.7039C101.875 82.6509 102.127 85.1834 102.852 87.6124C103.581 90.0513 104.753 92.272 106.578 93.7399C108.361 95.1731 110.914 96.0078 114.687 95.4196L115.077 97.9269C110.712 98.6073 107.41 97.6643 104.988 95.7169C102.61 93.8042 101.229 91.0412 100.421 88.3383C99.6107 85.6253 99.3434 82.8567 99.274 80.7887C99.2392 79.7498 99.254 78.8758 99.2778 78.2586C99.2896 77.9497 99.3042 77.7042 99.3155 77.5339C99.3212 77.449 99.3261 77.3826 99.3298 77.3363C99.3316 77.3131 99.333 77.2948 99.3341 77.2818C99.3347 77.2754 99.335 77.2702 99.3354 77.2663C99.3355 77.2644 99.3359 77.2626 99.336 77.2614V77.2601C99.336 77.2595 99.3363 77.2587 100.6 77.3741Z" fill="white"/>
<path d="M140.259 75.5943L131.412 72.9672C130.596 72.7244 130.136 71.8763 130.38 71.0742L136.24 51.8794C136.486 51.075 137.346 50.6207 138.159 50.8611L147.006 53.488C147.822 53.7311 148.283 54.5792 148.039 55.381L142.178 74.576C141.932 75.3804 141.072 75.8371 140.259 75.5943Z" fill="#B7CFE9"/>
<path d="M141.041 54.6295L137.577 53.583C137.277 53.4925 137.107 53.1738 137.197 52.8727L137.312 52.4886C137.402 52.1874 137.72 52.0166 138.02 52.1071L141.484 53.1537C141.784 53.2441 141.954 53.5628 141.864 53.8639L141.749 54.248C141.659 54.5517 141.341 54.7224 141.041 54.6295Z" fill="#4D5562"/>
<path d="M141.044 53.7345C141.079 53.5808 140.989 53.4286 140.842 53.3948C140.695 53.3607 140.547 53.458 140.511 53.6117C140.476 53.7656 140.566 53.9177 140.713 53.9516C140.86 53.9855 141.008 53.8884 141.044 53.7345Z" fill="#CDDDE0"/>
<path d="M102.651 45.5168L101.535 31.8318C101.364 29.7221 99.6173 28.117 97.5408 28.0681C96.2535 25.7394 93.9694 22.2025 90.5053 18.8263C85.1775 13.6353 75.968 7.91575 62.3392 10.1373C48.7765 12.3492 41.465 19.618 37.7201 25.3279C33.66 31.5176 32.8246 37.1372 32.7928 37.3736L35.2114 37.717C35.2187 37.6634 36.0271 32.319 39.8234 26.5751C44.8825 18.9189 52.5923 14.198 62.7349 12.544C72.8362 10.8973 81.5842 13.5793 88.7369 20.512C91.5485 23.2377 93.5517 26.122 94.8293 28.2679L94.5826 28.2874C92.3205 28.4702 90.6374 30.4481 90.8206 32.7037L91.9369 46.3889C92.1201 48.6445 94.1038 50.3229 96.3658 50.1403L98.8894 49.9356C101.151 49.7481 102.837 47.77 102.651 45.5168Z" fill="#895623"/>
<path d="M100.318 40.3777C102.253 62.269 87.3274 69.1907 69.1233 70.8026C50.919 72.4146 35.6398 67.8401 33.7346 46.2761C32.3147 30.2149 45.952 16.2152 64.1561 14.6032C82.3605 12.9888 98.8984 24.3167 100.318 40.3777Z" fill="#F88B27"/>
<path fill-rule="evenodd" clip-rule="evenodd" d="M81.574 40.0107C80.8981 40.3549 80.4522 41.0014 79.9642 41.7157C79.6638 42.1555 79.0636 42.2685 78.6238 41.968C78.1839 41.6675 78.071 41.0673 78.3715 40.6275C78.3931 40.5958 78.4155 40.5629 78.4386 40.5289C78.8745 39.8876 79.5679 38.8676 80.6986 38.2917C81.976 37.6413 83.5955 37.6401 85.6711 38.6475C86.1503 38.8801 86.3503 39.4572 86.1177 39.9364C85.8851 40.4156 85.308 40.6155 84.8288 40.3829C83.1253 39.5561 82.1632 39.7106 81.574 40.0107ZM66.4622 41.8539C65.7386 42.0951 65.1924 42.678 64.5949 43.3215C64.2325 43.7119 63.6222 43.7345 63.2318 43.3721C62.8415 43.0097 62.8188 42.3994 63.1813 42.009C63.2078 41.9804 63.2353 41.9507 63.2636 41.92C63.7966 41.3433 64.6435 40.4268 65.8522 40.0239C67.223 39.567 68.8289 39.8204 70.7197 41.1598C71.1544 41.4677 71.2572 42.0696 70.9493 42.5043C70.6414 42.939 70.0394 43.0418 69.6047 42.7339C68.0573 41.6378 67.088 41.6453 66.4622 41.8539Z" fill="white"/>
<path d="M37.3983 57.0086L34.8897 57.2133C32.6409 57.3959 30.6714 55.7181 30.4869 53.4633L29.3771 39.7833C29.1951 37.5286 30.8682 35.5537 33.117 35.3687L35.6255 35.1641C37.8741 34.9814 39.8436 36.6592 40.0281 38.914L41.1379 52.594C41.3225 54.8488 39.6468 56.826 37.3983 57.0086Z" fill="#895623"/>
<path d="M219.79 92.0143C222.67 71.0322 247.34 60.6562 264.285 60.6562C281.232 60.6562 307.514 71.492 309.706 92.0143C311.55 123.832 302.213 124.41 264.285 124.524C226.361 124.64 217.599 121.643 219.79 92.0143Z" fill="#F4DA00"/>
<path d="M194.721 72.0158C199.16 72.0158 202.759 68.4173 202.759 63.9783C202.759 59.5393 199.16 55.9408 194.721 55.9408C190.282 55.9408 186.684 59.5393 186.684 63.9783C186.684 68.4173 190.282 72.0158 194.721 72.0158Z" fill="#EC4699"/>
<path d="M317.963 83.5898C322.401 83.5898 326 79.9433 326 75.4451C326 70.9469 322.401 67.3005 317.963 67.3005C313.524 67.3005 309.925 70.9469 309.925 75.4451C309.925 79.9433 313.524 83.5898 317.963 83.5898Z" fill="#EC4699"/>
<path d="M188.956 70.4496L197.803 67.8001C198.619 67.5551 199.079 66.6997 198.835 65.8908L192.975 46.5303C192.729 45.7191 191.869 45.2608 191.056 45.5035L182.209 48.153C181.393 48.398 180.932 49.2534 181.176 50.0623L187.037 69.4226C187.283 70.234 188.143 70.6946 188.956 70.4496Z" fill="#E4CEF0"/>
<path d="M239.032 66.2136C239.032 63.0575 242.914 60.776 245.928 61.7167C252.467 63.7588 263.741 65.4077 280.105 61.4974C282.606 60.8999 285.084 62.7461 285.084 65.317V69.8045C285.084 71.3713 284.141 72.7737 282.647 73.2433C276.386 75.2102 258.985 79.3655 241.244 71.8403C239.879 71.2609 239.032 69.8967 239.032 68.4131V66.2136Z" fill="#FEF4D4"/>
<path d="M188.174 49.2744L191.638 48.3144C191.938 48.2317 192.108 47.9394 192.018 47.6631L191.903 47.3109C191.813 47.0347 191.495 46.8782 191.195 46.9609L187.731 47.9209C187.431 48.0037 187.261 48.296 187.351 48.5723L187.466 48.9244C187.556 49.2007 187.874 49.3572 188.174 49.2744Z" fill="#4D5562"/>
<path d="M188.503 48.7041C188.65 48.6702 188.741 48.5181 188.705 48.3642C188.67 48.2103 188.522 48.1132 188.375 48.1471C188.228 48.1811 188.137 48.3333 188.173 48.487C188.208 48.6409 188.356 48.738 188.503 48.7041Z" fill="#CDDDE0"/>
<path d="M228.897 41.1176C226.961 63.0086 241.887 69.9303 260.093 71.5423C278.296 73.1543 293.576 68.5798 295.481 47.0158C296.9 30.9548 283.262 16.9549 265.059 15.3429C246.856 13.7285 230.313 25.0563 228.897 41.1176Z" fill="#EC4699"/>
<path fill-rule="evenodd" clip-rule="evenodd" d="M299.834 21.3263C301.242 21.3312 302.183 22.7808 301.609 24.0698L294.602 39.7819C293.972 41.195 292.024 41.3461 291.182 40.0474L283.333 27.9288C283.322 27.9241 283.316 27.9215 283.305 27.9168L278.658 25.9068L266.235 28.7694C264.727 29.118 263.434 27.6536 263.966 26.2015L270.424 8.56701C270.955 7.11495 272.888 6.82989 273.819 8.06757L283.376 20.8171L284.447 21.28L299.834 21.3263Z" fill="#A00F2C"/>
<path d="M309.496 105.369C306.043 107.71 304.916 114.019 302.488 114.215C299.108 114.488 300.312 107.177 292.976 106.952C285.639 106.727 287.639 113.717 282.748 114.167C277.857 114.618 280.302 104.472 273.793 105.047C267.284 105.622 268.518 113.266 263.241 113.525C257.962 113.784 260.069 104.697 255.401 105.058C250.733 105.419 248.508 114.844 245.619 114.393C242.727 113.942 243.396 105.148 238.599 105.049C233.805 104.95 234.947 113.942 230.5 113.942C226.055 113.942 229.833 104.697 224.066 105.058C222.659 105.146 221.326 105.883 220.12 106.945C222.565 122.723 234.257 124.617 264.298 124.524C295.76 124.427 307.494 124.006 309.496 105.369Z" fill="#FEF4D4"/>
<path d="M63.9054 105.769H58.5763L56.1895 104.39V101.448H59.0701V103.3H63.4116V99.4521H59.8108V96.983H63.4116V93.6291H59.0701V95.4809H56.1895V92.5386L58.5763 91.16H63.9054L66.2922 92.5386V97.1681L64.5021 98.1969V98.2381L66.2922 99.2669V104.39L63.9054 105.769ZM73.7641 105.666H70.7394L76.2743 93.7731V93.732H71.6448V95.5838H68.7641V91.2628H79.5665V93.1147L73.7641 105.666Z" fill="white"/>
<path d="M138.23 36.4573C139.085 35.3476 140.678 35.1416 141.788 35.9971L148.757 41.3702C149.867 42.2257 150.073 43.8189 149.217 44.9285C148.362 46.0381 146.769 46.2442 145.659 45.3887L138.69 40.0156C137.58 39.1601 137.374 37.5669 138.23 36.4573Z" fill="#FCEE21"/>
<path d="M160.199 23.6971C161.59 23.5281 162.854 24.5187 163.023 25.9095L163.783 32.159C163.952 33.5498 162.962 34.8143 161.571 34.9834C160.18 35.1524 158.916 34.1618 158.747 32.7709L157.987 26.5214C157.818 25.1306 158.808 23.8662 160.199 23.6971Z" fill="#FCEE21"/>
<path d="M180.1 27.8133C180.754 26.5747 182.289 26.1013 183.528 26.756C184.767 27.4108 185.24 28.9456 184.585 30.1843L180.599 37.7252C179.944 38.9637 178.409 39.4371 177.171 38.7824C175.932 38.1276 175.458 36.5923 176.113 35.3536L180.1 27.8133Z" fill="#FCEE21"/>
<path d="M182.888 84.487C183.907 83.5252 185.512 83.5711 186.474 84.5898L192.515 90.9886C193.477 92.0074 193.431 93.6135 192.412 94.5754C191.393 95.5371 189.788 95.4907 188.826 94.4719L182.785 88.0732C181.823 87.0544 181.869 85.4488 182.888 84.487Z" fill="#FCEE21"/>
<path d="M169.128 92.3723C170.528 92.4233 171.622 93.5995 171.571 94.9997L171.342 101.291C171.29 102.691 170.114 103.785 168.714 103.734C167.314 103.683 166.22 102.506 166.271 101.106L166.501 94.8151C166.552 93.4149 167.728 92.3213 169.128 92.3723Z" fill="#FCEE21"/>
<path d="M150.765 86.6819C151.606 85.5612 153.196 85.3343 154.317 86.1752C155.438 87.0161 155.664 88.606 154.823 89.7267L149.704 96.5498C148.863 97.6702 147.273 97.8971 146.153 97.0564C145.032 96.2155 144.805 94.6251 145.646 93.5043L150.765 86.6819Z" fill="#FCEE21"/>
<path fill-rule="evenodd" clip-rule="evenodd" d="M245.943 42.547C245.189 42.6594 244.55 43.1391 243.85 43.6695C243.426 43.9912 242.821 43.9079 242.499 43.4834C242.177 43.0589 242.26 42.454 242.685 42.1322C242.716 42.1086 242.748 42.0842 242.781 42.0589C243.406 41.5832 244.399 40.8269 245.659 40.6391C247.088 40.4262 248.626 40.9535 250.256 42.5998C250.631 42.9783 250.628 43.589 250.25 43.9638C249.871 44.3386 249.261 44.3356 248.886 43.9571C247.552 42.6101 246.596 42.4498 245.943 42.547ZM261.146 43.3454C260.421 43.5675 259.87 44.1271 259.265 44.7463C258.893 45.1275 258.283 45.1348 257.901 44.7627C257.52 44.3906 257.513 43.78 257.885 43.3988C257.912 43.3712 257.94 43.3425 257.969 43.3128C258.509 42.7566 259.368 41.8723 260.581 41.5009C261.952 41.0812 263.547 41.3602 265.418 42.7114C265.85 43.0233 265.947 43.6262 265.635 44.058C265.323 44.4898 264.72 44.587 264.288 44.2751C262.753 43.1659 261.778 43.1517 261.146 43.3454Z" fill="white"/>
<path d="M119.383 9.64497C119.383 4.3182 123.701 0 129.028 0H208.76C214.087 0 218.405 4.3182 218.405 9.64497C218.405 14.9717 214.087 19.2899 208.76 19.2899H129.028C123.701 19.2899 119.383 14.9717 119.383 9.64497Z" fill="#9685FF"/>
<path d="M132.059 8.15323V10.0051C132.059 10.208 132.112 10.3637 132.217 10.4723C132.323 10.578 132.472 10.6309 132.663 10.6309C132.858 10.6309 133.008 10.578 133.113 10.4723C133.219 10.3637 133.272 10.208 133.272 10.0051V8.15323H133.876V10.0008C133.876 10.2551 133.821 10.4709 133.709 10.6481C133.601 10.8224 133.454 10.9539 133.268 11.0424C133.085 11.131 132.88 11.1753 132.655 11.1753C132.432 11.1753 132.229 11.131 132.046 11.0424C131.866 10.9539 131.723 10.8224 131.617 10.6481C131.512 10.4709 131.459 10.2551 131.459 10.0008V8.15323H132.059ZM135.686 8.73621C135.969 8.73621 136.198 8.82623 136.372 9.00627C136.547 9.18346 136.634 9.43209 136.634 9.75215V11.1453H136.034V9.8336C136.034 9.64498 135.987 9.50067 135.892 9.40065C135.798 9.29777 135.669 9.24633 135.506 9.24633C135.341 9.24633 135.209 9.29777 135.112 9.40065C135.018 9.50067 134.971 9.64498 134.971 9.8336V11.1453H134.37V8.77051H134.971V9.06629C135.051 8.96341 135.152 8.8834 135.275 8.82623C135.401 8.76622 135.538 8.73621 135.686 8.73621ZM137.423 8.48759C137.318 8.48759 137.229 8.45473 137.157 8.38899C137.089 8.32041 137.055 8.23611 137.055 8.13608C137.055 8.03605 137.089 7.95319 137.157 7.88746C137.229 7.81887 137.318 7.78458 137.423 7.78458C137.529 7.78458 137.616 7.81887 137.685 7.88746C137.756 7.95319 137.792 8.03605 137.792 8.13608C137.792 8.23611 137.756 8.32041 137.685 8.38899C137.616 8.45473 137.529 8.48759 137.423 8.48759ZM137.719 8.77051V11.1453H137.119V8.77051H137.719ZM138.826 9.11773C138.903 9.00342 139.009 8.91053 139.143 8.83909C139.281 8.76766 139.436 8.73193 139.611 8.73193C139.814 8.73193 139.996 8.78193 140.159 8.88196C140.325 8.98199 140.455 9.12486 140.549 9.31062C140.647 9.49352 140.695 9.70643 140.695 9.94934C140.695 10.1922 140.647 10.408 140.549 10.5966C140.455 10.7824 140.325 10.9267 140.159 11.0296C139.996 11.1325 139.814 11.1839 139.611 11.1839C139.434 11.1839 139.278 11.1496 139.143 11.081C139.012 11.0096 138.906 10.9181 138.826 10.8067V11.1453H138.226V7.97319H138.826V9.11773ZM140.082 9.94934C140.082 9.80644 140.052 9.68356 139.992 9.58068C139.935 9.47495 139.858 9.39492 139.761 9.34063C139.666 9.28634 139.564 9.25919 139.452 9.25919C139.344 9.25919 139.241 9.28776 139.143 9.34492C139.049 9.39921 138.972 9.47924 138.912 9.58497C138.855 9.6907 138.826 9.81501 138.826 9.95791C138.826 10.1008 138.855 10.2251 138.912 10.3308C138.972 10.4366 139.049 10.518 139.143 10.5752C139.241 10.6295 139.344 10.6566 139.452 10.6566C139.564 10.6566 139.666 10.6281 139.761 10.5709C139.858 10.5137 139.935 10.4323 139.992 10.3266C140.052 10.2208 140.082 10.0951 140.082 9.94934ZM143.288 8.77051V11.1453H142.683V10.8452C142.606 10.9481 142.505 11.0296 142.379 11.0896C142.256 11.1467 142.122 11.1753 141.976 11.1753C141.79 11.1753 141.626 11.1367 141.483 11.0596C141.34 10.9796 141.227 10.8638 141.144 10.7124C141.064 10.558 141.024 10.3752 141.024 10.1637V8.77051H141.624V10.0779C141.624 10.2665 141.671 10.4123 141.766 10.5152C141.86 10.6152 141.989 10.6652 142.152 10.6652C142.317 10.6652 142.447 10.6152 142.542 10.5152C142.636 10.4123 142.683 10.2665 142.683 10.0779V8.77051H143.288ZM144.343 10.6523H145.402V11.1453H143.661V10.6609L144.698 9.26347H143.665V8.77051H145.389V9.2549L144.343 10.6523ZM146.329 10.6523H147.388V11.1453H145.648V10.6609L146.685 9.26347H145.652V8.77051H147.375V9.2549L146.329 10.6523ZM148.557 9.64498C148.557 9.35064 148.623 9.08772 148.754 8.85624C148.888 8.62191 149.07 8.44043 149.298 8.31183C149.53 8.18038 149.788 8.11465 150.074 8.11465C150.409 8.11465 150.702 8.20038 150.953 8.37185C151.205 8.54331 151.38 8.78052 151.48 9.08343H150.79C150.721 8.94054 150.624 8.83337 150.499 8.76193C150.376 8.6905 150.233 8.65477 150.07 8.65477C149.896 8.65477 149.74 8.6962 149.603 8.77908C149.468 8.85909 149.363 8.97342 149.285 9.12201C149.211 9.27061 149.174 9.44495 149.174 9.64498C149.174 9.84217 149.211 10.0165 149.285 10.168C149.363 10.3166 149.468 10.4323 149.603 10.5152C149.74 10.5952 149.896 10.6352 150.07 10.6352C150.233 10.6352 150.376 10.5995 150.499 10.528C150.624 10.4537 150.721 10.3451 150.79 10.2022H151.48C151.38 10.508 151.205 10.7467 150.953 10.9181C150.704 11.0867 150.412 11.171 150.074 11.171C149.788 11.171 149.53 11.1067 149.298 10.9781C149.07 10.8467 148.888 10.6652 148.754 10.4337C148.623 10.2022 148.557 9.93933 148.557 9.64498ZM152.962 11.1839C152.733 11.1839 152.527 11.1339 152.344 11.0339C152.162 10.931 152.017 10.7867 151.911 10.6009C151.809 10.4151 151.757 10.2008 151.757 9.95791C151.757 9.71501 151.81 9.50067 151.916 9.31491C152.024 9.12915 152.171 8.98628 152.357 8.88625C152.543 8.78337 152.75 8.73193 152.979 8.73193C153.208 8.73193 153.415 8.78337 153.6 8.88625C153.786 8.98628 153.932 9.12915 154.038 9.31491C154.146 9.50067 154.201 9.71501 154.201 9.95791C154.201 10.2008 154.145 10.4151 154.033 10.6009C153.925 10.7867 153.776 10.931 153.588 11.0339C153.402 11.1339 153.193 11.1839 152.962 11.1839ZM152.962 10.6609C153.07 10.6609 153.172 10.6352 153.266 10.5838C153.363 10.5295 153.44 10.4494 153.497 10.3437C153.555 10.238 153.583 10.1094 153.583 9.95791C153.583 9.73215 153.523 9.55925 153.403 9.43923C153.286 9.31635 153.142 9.2549 152.97 9.2549C152.799 9.2549 152.655 9.31635 152.537 9.43923C152.423 9.55925 152.366 9.73215 152.366 9.95791C152.366 10.1837 152.422 10.358 152.533 10.4809C152.647 10.6009 152.79 10.6609 152.962 10.6609ZM155.155 7.97319V11.1453H154.555V7.97319H155.155ZM156.262 7.97319V11.1453H155.662V7.97319H156.262ZM158.977 9.90647C158.977 9.9922 158.972 10.0694 158.96 10.1379H157.224C157.238 10.3094 157.298 10.4437 157.404 10.5409C157.51 10.6381 157.64 10.6866 157.794 10.6866C158.017 10.6866 158.176 10.5909 158.27 10.3994H158.917C158.849 10.6281 158.717 10.8167 158.523 10.9653C158.329 11.111 158.09 11.1839 157.807 11.1839C157.578 11.1839 157.373 11.1339 157.19 11.0339C157.01 10.931 156.868 10.7867 156.765 10.6009C156.665 10.4151 156.615 10.2008 156.615 9.95791C156.615 9.71213 156.665 9.49639 156.765 9.31062C156.865 9.12486 157.005 8.98199 157.186 8.88196C157.366 8.78193 157.573 8.73193 157.807 8.73193C158.033 8.73193 158.234 8.78052 158.411 8.87767C158.592 8.97483 158.73 9.11344 158.827 9.29348C158.927 9.47067 158.977 9.67499 158.977 9.90647ZM158.356 9.735C158.353 9.58068 158.297 9.45781 158.189 9.36635C158.08 9.27205 157.947 9.22489 157.79 9.22489C157.641 9.22489 157.516 9.27061 157.413 9.36207C157.313 9.45065 157.251 9.57496 157.228 9.735H158.356ZM160.26 8.73193C160.437 8.73193 160.593 8.76766 160.727 8.83909C160.861 8.90768 160.967 8.9977 161.044 9.10915V8.77051H161.649V11.1625C161.649 11.3825 161.604 11.5783 161.516 11.7497C161.427 11.924 161.294 12.0612 161.117 12.1613C160.94 12.2641 160.726 12.3156 160.474 12.3156C160.137 12.3156 159.86 12.237 159.642 12.0798C159.428 11.9226 159.307 11.7083 159.278 11.4368H159.874C159.905 11.5454 159.972 11.6311 160.075 11.694C160.181 11.7597 160.308 11.7926 160.457 11.7926C160.631 11.7926 160.773 11.7397 160.881 11.634C160.99 11.5311 161.044 11.3739 161.044 11.1625V10.7938C160.967 10.9053 160.86 10.9981 160.723 11.0724C160.588 11.1467 160.434 11.1839 160.26 11.1839C160.06 11.1839 159.877 11.1325 159.711 11.0296C159.545 10.9267 159.414 10.7824 159.317 10.5966C159.222 10.408 159.175 10.1922 159.175 9.94934C159.175 9.70928 159.222 9.49639 159.317 9.31062C159.414 9.12486 159.544 8.98199 159.707 8.88196C159.873 8.78193 160.057 8.73193 160.26 8.73193ZM161.044 9.95791C161.044 9.81216 161.016 9.68785 160.958 9.58497C160.901 9.47924 160.824 9.39921 160.727 9.34492C160.63 9.28776 160.525 9.25919 160.414 9.25919C160.303 9.25919 160.2 9.28634 160.105 9.34063C160.011 9.39492 159.934 9.47495 159.874 9.58068C159.817 9.68356 159.788 9.80644 159.788 9.94934C159.788 10.0922 159.817 10.218 159.874 10.3266C159.934 10.4323 160.011 10.5137 160.105 10.5709C160.203 10.6281 160.306 10.6566 160.414 10.6566C160.525 10.6566 160.63 10.6295 160.727 10.5752C160.824 10.518 160.901 10.438 160.958 10.3351C161.016 10.2294 161.044 10.1037 161.044 9.95791ZM164.357 9.90647C164.357 9.9922 164.351 10.0694 164.34 10.1379H162.603C162.618 10.3094 162.678 10.4437 162.783 10.5409C162.889 10.6381 163.019 10.6866 163.174 10.6866C163.396 10.6866 163.555 10.5909 163.649 10.3994H164.297C164.228 10.6281 164.097 10.8167 163.902 10.9653C163.708 11.111 163.469 11.1839 163.186 11.1839C162.958 11.1839 162.752 11.1339 162.569 11.0339C162.389 10.931 162.248 10.7867 162.145 10.6009C162.045 10.4151 161.995 10.2008 161.995 9.95791C161.995 9.71213 162.045 9.49639 162.145 9.31062C162.245 9.12486 162.385 8.98199 162.565 8.88196C162.745 8.78193 162.952 8.73193 163.186 8.73193C163.412 8.73193 163.614 8.78052 163.791 8.87767C163.971 8.97483 164.11 9.11344 164.207 9.29348C164.307 9.47067 164.357 9.67499 164.357 9.90647ZM163.735 9.735C163.732 9.58068 163.677 9.45781 163.568 9.36635C163.459 9.27205 163.326 9.22489 163.169 9.22489C163.021 9.22489 162.895 9.27061 162.792 9.36207C162.692 9.45065 162.631 9.57496 162.608 9.735H163.735ZM166.678 11.1753C166.469 11.1753 166.281 11.1396 166.112 11.0682C165.946 10.9967 165.815 10.8938 165.717 10.7595C165.62 10.6252 165.57 10.4666 165.567 10.2837H166.21C166.219 10.4066 166.262 10.5038 166.339 10.5752C166.419 10.6466 166.528 10.6824 166.665 10.6824C166.805 10.6824 166.915 10.6495 166.995 10.5838C167.075 10.5152 167.115 10.4266 167.115 10.318C167.115 10.2294 167.088 10.1565 167.033 10.0994C166.979 10.0422 166.911 9.99793 166.828 9.96648C166.748 9.93219 166.636 9.89505 166.493 9.85503C166.299 9.79787 166.141 9.74214 166.018 9.68785C165.897 9.63069 165.793 9.54639 165.705 9.43494C165.619 9.32063 165.576 9.16917 165.576 8.98055C165.576 8.80336 165.62 8.64904 165.709 8.51759C165.798 8.38614 165.922 8.28612 166.082 8.21753C166.242 8.14609 166.425 8.11036 166.631 8.11036C166.939 8.11036 167.189 8.18609 167.381 8.33756C167.575 8.48615 167.682 8.69478 167.702 8.96341H167.042C167.036 8.86053 166.992 8.77623 166.909 8.71049C166.829 8.64191 166.722 8.60761 166.588 8.60761C166.471 8.60761 166.376 8.63762 166.305 8.69763C166.236 8.75765 166.202 8.84482 166.202 8.95912C166.202 9.03913 166.228 9.1063 166.279 9.16059C166.333 9.21203 166.399 9.2549 166.476 9.28919C166.556 9.32063 166.668 9.35778 166.811 9.40065C167.005 9.45781 167.164 9.51495 167.286 9.57211C167.409 9.62927 167.515 9.71501 167.604 9.82931C167.692 9.94361 167.736 10.0936 167.736 10.2794C167.736 10.4395 167.695 10.588 167.612 10.7252C167.529 10.8624 167.408 10.9724 167.248 11.0553C167.088 11.1353 166.898 11.1753 166.678 11.1753ZM168.87 9.26347V10.4123C168.87 10.4923 168.889 10.5509 168.926 10.588C168.966 10.6223 169.031 10.6395 169.123 10.6395H169.401V11.1453H169.024C168.518 11.1453 168.265 10.8995 168.265 10.408V9.26347H167.983V8.77051H168.265V8.18324H168.87V8.77051H169.401V9.26347H168.87ZM171.989 8.77051V11.1453H171.385V10.8452C171.308 10.9481 171.206 11.0296 171.08 11.0896C170.957 11.1467 170.823 11.1753 170.678 11.1753C170.492 11.1753 170.327 11.1367 170.185 11.0596C170.042 10.9796 169.929 10.8638 169.846 10.7124C169.766 10.558 169.726 10.3752 169.726 10.1637V8.77051H170.326V10.0779C170.326 10.2665 170.373 10.4123 170.468 10.5152C170.562 10.6152 170.69 10.6652 170.853 10.6652C171.019 10.6652 171.149 10.6152 171.243 10.5152C171.338 10.4123 171.385 10.2665 171.385 10.0779V8.77051H171.989ZM172.341 9.94934C172.341 9.70928 172.388 9.49639 172.483 9.31062C172.58 9.12486 172.711 8.98199 172.877 8.88196C173.043 8.78193 173.227 8.73193 173.43 8.73193C173.584 8.73193 173.732 8.76622 173.872 8.83481C174.012 8.90054 174.123 8.98913 174.206 9.10058V7.97319H174.815V11.1453H174.206V10.7938C174.132 10.911 174.027 11.0053 173.893 11.0767C173.759 11.1482 173.603 11.1839 173.426 11.1839C173.226 11.1839 173.043 11.1325 172.877 11.0296C172.711 10.9267 172.58 10.7824 172.483 10.5966C172.388 10.408 172.341 10.1922 172.341 9.94934ZM174.21 9.95791C174.21 9.81216 174.182 9.68785 174.124 9.58497C174.067 9.47924 173.99 9.39921 173.893 9.34492C173.796 9.28776 173.691 9.25919 173.58 9.25919C173.469 9.25919 173.366 9.28634 173.271 9.34063C173.177 9.39492 173.1 9.47495 173.04 9.58068C172.983 9.68356 172.954 9.80644 172.954 9.94934C172.954 10.0922 172.983 10.218 173.04 10.3266C173.1 10.4323 173.177 10.5137 173.271 10.5709C173.369 10.6281 173.472 10.6566 173.58 10.6566C173.691 10.6566 173.796 10.6295 173.893 10.5752C173.99 10.518 174.067 10.438 174.124 10.3351C174.182 10.2294 174.21 10.1037 174.21 9.95791ZM177.523 9.90647C177.523 9.9922 177.517 10.0694 177.506 10.1379H175.769C175.784 10.3094 175.844 10.4437 175.949 10.5409C176.055 10.6381 176.185 10.6866 176.34 10.6866C176.562 10.6866 176.721 10.5909 176.815 10.3994H177.463C177.394 10.6281 177.263 10.8167 177.068 10.9653C176.874 11.111 176.635 11.1839 176.352 11.1839C176.124 11.1839 175.918 11.1339 175.735 11.0339C175.555 10.931 175.414 10.7867 175.311 10.6009C175.211 10.4151 175.161 10.2008 175.161 9.95791C175.161 9.71213 175.211 9.49639 175.311 9.31062C175.411 9.12486 175.551 8.98199 175.731 8.88196C175.911 8.78193 176.118 8.73193 176.352 8.73193C176.578 8.73193 176.78 8.78052 176.957 8.87767C177.137 8.97483 177.276 9.11344 177.373 9.29348C177.473 9.47067 177.523 9.67499 177.523 9.90647ZM176.901 9.735C176.898 9.58068 176.843 9.45781 176.734 9.36635C176.625 9.27205 176.492 9.22489 176.335 9.22489C176.187 9.22489 176.061 9.27061 175.958 9.36207C175.858 9.45065 175.797 9.57496 175.774 9.735H176.901ZM179.191 8.73621C179.474 8.73621 179.703 8.82623 179.877 9.00627C180.051 9.18346 180.138 9.43209 180.138 9.75215V11.1453H179.538V9.8336C179.538 9.64498 179.491 9.50067 179.397 9.40065C179.303 9.29777 179.174 9.24633 179.011 9.24633C178.845 9.24633 178.714 9.29777 178.617 9.40065C178.522 9.50067 178.475 9.64498 178.475 9.8336V11.1453H177.875V8.77051H178.475V9.06629C178.555 8.96341 178.657 8.8834 178.78 8.82623C178.905 8.76622 179.043 8.73621 179.191 8.73621ZM181.322 9.26347V10.4123C181.322 10.4923 181.341 10.5509 181.378 10.588C181.418 10.6223 181.484 10.6395 181.575 10.6395H181.854V11.1453H181.476C180.971 11.1453 180.718 10.8995 180.718 10.408V9.26347H180.435V8.77051H180.718V8.18324H181.322V8.77051H181.854V9.26347H181.322ZM183.108 11.1839C182.914 11.1839 182.74 11.1496 182.585 11.081C182.431 11.0096 182.308 10.9138 182.217 10.7938C182.128 10.6738 182.079 10.5409 182.071 10.3951H182.675C182.687 10.4866 182.731 10.5623 182.808 10.6223C182.888 10.6824 182.987 10.7124 183.104 10.7124C183.218 10.7124 183.307 10.6895 183.37 10.6438C183.435 10.5981 183.468 10.5395 183.468 10.468C183.468 10.3909 183.428 10.3337 183.348 10.2966C183.271 10.2565 183.147 10.2137 182.975 10.168C182.798 10.1251 182.653 10.0808 182.538 10.0351C182.427 9.98935 182.33 9.91933 182.247 9.82502C182.167 9.73072 182.127 9.60355 182.127 9.44351C182.127 9.31206 182.164 9.19204 182.238 9.08343C182.315 8.97483 182.424 8.8891 182.564 8.82623C182.707 8.76337 182.874 8.73193 183.065 8.73193C183.348 8.73193 183.574 8.80336 183.743 8.94626C183.911 9.08628 184.004 9.27633 184.021 9.51639H183.447C183.438 9.42208 183.398 9.34777 183.327 9.29348C183.258 9.23632 183.165 9.20775 183.048 9.20775C182.94 9.20775 182.855 9.22774 182.795 9.26776C182.738 9.30778 182.71 9.3635 182.71 9.43494C182.71 9.51495 182.75 9.5764 182.83 9.61926C182.91 9.65928 183.034 9.70071 183.203 9.74358C183.374 9.78644 183.515 9.83075 183.627 9.87646C183.738 9.92218 183.834 9.99364 183.914 10.0908C183.997 10.1851 184.04 10.3109 184.043 10.468C184.043 10.6052 184.004 10.7281 183.927 10.8367C183.853 10.9453 183.744 11.031 183.601 11.0939C183.461 11.1539 183.297 11.1839 183.108 11.1839ZM187.469 9.05343C187.4 8.92768 187.306 8.83196 187.186 8.76622C187.066 8.70048 186.926 8.66763 186.766 8.66763C186.589 8.66763 186.431 8.70764 186.294 8.78765C186.157 8.86766 186.05 8.98199 185.973 9.13059C185.896 9.27918 185.857 9.45065 185.857 9.64498C185.857 9.84502 185.896 10.0194 185.973 10.168C186.053 10.3166 186.163 10.4309 186.303 10.5109C186.443 10.5909 186.606 10.6309 186.792 10.6309C187.02 10.6309 187.207 10.5709 187.353 10.4509C187.499 10.328 187.594 10.1579 187.64 9.94076H186.611V9.48209H188.232V10.0051C188.192 10.2137 188.106 10.4066 187.975 10.5838C187.843 10.761 187.673 10.9038 187.465 11.0124C187.259 11.1182 187.027 11.171 186.77 11.171C186.481 11.171 186.22 11.1067 185.986 10.9781C185.754 10.8467 185.571 10.6652 185.437 10.4337C185.305 10.2022 185.24 9.93933 185.24 9.64498C185.24 9.35064 185.305 9.08772 185.437 8.85624C185.571 8.62191 185.754 8.44043 185.986 8.31183C186.22 8.18038 186.48 8.11465 186.766 8.11465C187.103 8.11465 187.396 8.19753 187.645 8.36327C187.893 8.52617 188.065 8.75621 188.159 9.05343H187.469ZM188.436 9.94934C188.436 9.70928 188.483 9.49639 188.577 9.31062C188.674 9.12486 188.804 8.98199 188.967 8.88196C189.133 8.78193 189.317 8.73193 189.52 8.73193C189.697 8.73193 189.852 8.76766 189.983 8.83909C190.118 8.91053 190.225 9.00055 190.305 9.10915V8.77051H190.909V11.1453H190.305V10.7981C190.227 10.9095 190.12 11.0024 189.983 11.0767C189.849 11.1482 189.693 11.1839 189.516 11.1839C189.316 11.1839 189.133 11.1325 188.967 11.0296C188.804 10.9267 188.674 10.7824 188.577 10.5966C188.483 10.408 188.436 10.1922 188.436 9.94934ZM190.305 9.95791C190.305 9.81216 190.276 9.68785 190.219 9.58497C190.162 9.47924 190.085 9.39921 189.987 9.34492C189.89 9.28776 189.786 9.25919 189.674 9.25919C189.563 9.25919 189.46 9.28634 189.366 9.34063C189.272 9.39492 189.194 9.47495 189.134 9.58068C189.077 9.68356 189.049 9.80644 189.049 9.94934C189.049 10.0922 189.077 10.218 189.134 10.3266C189.194 10.4323 189.272 10.5137 189.366 10.5709C189.463 10.6281 189.566 10.6566 189.674 10.6566C189.786 10.6566 189.89 10.6295 189.987 10.5752C190.085 10.518 190.162 10.438 190.219 10.3351C190.276 10.2294 190.305 10.1037 190.305 9.95791ZM192.108 9.26347V10.4123C192.108 10.4923 192.127 10.5509 192.164 10.588C192.204 10.6223 192.27 10.6395 192.361 10.6395H192.64V11.1453H192.263C191.757 11.1453 191.504 10.8995 191.504 10.408V9.26347H191.221V8.77051H191.504V8.18324H192.108V8.77051H192.64V9.26347H192.108ZM194.323 8.73621C194.503 8.73621 194.663 8.77623 194.803 8.85624C194.943 8.9334 195.052 9.04914 195.129 9.20346C195.209 9.35493 195.249 9.53782 195.249 9.75215V11.1453H194.649V9.8336C194.649 9.64498 194.602 9.50067 194.507 9.40065C194.413 9.29777 194.285 9.24633 194.122 9.24633C193.956 9.24633 193.824 9.29777 193.727 9.40065C193.633 9.50067 193.586 9.64498 193.586 9.8336V11.1453H192.986V7.97319H193.586V9.06629C193.663 8.96341 193.766 8.8834 193.894 8.82623C194.023 8.76622 194.166 8.73621 194.323 8.73621ZM197.942 9.90647C197.942 9.9922 197.936 10.0694 197.924 10.1379H196.188C196.203 10.3094 196.263 10.4437 196.368 10.5409C196.474 10.6381 196.604 10.6866 196.758 10.6866C196.981 10.6866 197.14 10.5909 197.234 10.3994H197.882C197.813 10.6281 197.682 10.8167 197.487 10.9653C197.293 11.111 197.054 11.1839 196.771 11.1839C196.543 11.1839 196.337 11.1339 196.154 11.0339C195.974 10.931 195.832 10.7867 195.73 10.6009C195.63 10.4151 195.58 10.2008 195.58 9.95791C195.58 9.71213 195.63 9.49639 195.73 9.31062C195.83 9.12486 195.97 8.98199 196.15 8.88196C196.33 8.78193 196.537 8.73193 196.771 8.73193C196.997 8.73193 197.199 8.78052 197.376 8.87767C197.556 8.97483 197.694 9.11344 197.791 9.29348C197.892 9.47067 197.942 9.67499 197.942 9.90647ZM197.32 9.735C197.317 9.58068 197.261 9.45781 197.153 9.36635C197.044 9.27205 196.911 9.22489 196.754 9.22489C196.606 9.22489 196.48 9.27061 196.377 9.36207C196.277 9.45065 196.215 9.57496 196.193 9.735H197.32ZM198.894 9.13916C198.971 9.01341 199.071 8.91482 199.194 8.84338C199.32 8.77194 199.463 8.73621 199.623 8.73621V9.36635H199.464C199.276 9.36635 199.133 9.41065 199.035 9.49924C198.941 9.58782 198.894 9.74214 198.894 9.9622V11.1453H198.294V8.77051H198.894V9.13916ZM200.246 8.48759C200.14 8.48759 200.051 8.45473 199.98 8.38899C199.911 8.32041 199.877 8.23611 199.877 8.13608C199.877 8.03605 199.911 7.95319 199.98 7.88746C200.051 7.81887 200.14 7.78458 200.246 7.78458C200.351 7.78458 200.438 7.81887 200.507 7.88746C200.578 7.95319 200.614 8.03605 200.614 8.13608C200.614 8.23611 200.578 8.32041 200.507 8.38899C200.438 8.45473 200.351 8.48759 200.246 8.48759ZM200.541 8.77051V11.1453H199.941V8.77051H200.541ZM202.365 8.73621C202.647 8.73621 202.876 8.82623 203.05 9.00627C203.225 9.18346 203.312 9.43209 203.312 9.75215V11.1453H202.712V9.8336C202.712 9.64498 202.665 9.50067 202.57 9.40065C202.476 9.29777 202.347 9.24633 202.184 9.24633C202.019 9.24633 201.887 9.29777 201.79 9.40065C201.696 9.50067 201.649 9.64498 201.649 9.8336V11.1453H201.048V8.77051H201.649V9.06629C201.729 8.96341 201.83 8.8834 201.953 8.82623C202.079 8.76622 202.216 8.73621 202.365 8.73621ZM204.727 8.73193C204.904 8.73193 205.06 8.76766 205.194 8.83909C205.329 8.90768 205.434 8.9977 205.512 9.10915V8.77051H206.116V11.1625C206.116 11.3825 206.072 11.5783 205.983 11.7497C205.895 11.924 205.762 12.0612 205.584 12.1613C205.407 12.2641 205.193 12.3156 204.941 12.3156C204.604 12.3156 204.327 12.237 204.11 12.0798C203.895 11.9226 203.774 11.7083 203.745 11.4368H204.341C204.373 11.5454 204.44 11.6311 204.543 11.694C204.648 11.7597 204.776 11.7926 204.924 11.7926C205.099 11.7926 205.24 11.7397 205.349 11.634C205.457 11.5311 205.512 11.3739 205.512 11.1625V10.7938C205.434 10.9053 205.327 10.9981 205.19 11.0724C205.056 11.1467 204.901 11.1839 204.727 11.1839C204.527 11.1839 204.344 11.1325 204.178 11.0296C204.013 10.9267 203.881 10.7824 203.784 10.5966C203.69 10.408 203.643 10.1922 203.643 9.94934C203.643 9.70928 203.69 9.49639 203.784 9.31062C203.881 9.12486 204.011 8.98199 204.174 8.88196C204.34 8.78193 204.524 8.73193 204.727 8.73193ZM205.512 9.95791C205.512 9.81216 205.483 9.68785 205.426 9.58497C205.369 9.47924 205.291 9.39921 205.194 9.34492C205.097 9.28776 204.993 9.25919 204.881 9.25919C204.77 9.25919 204.667 9.28634 204.573 9.34063C204.478 9.39492 204.401 9.47495 204.341 9.58068C204.284 9.68356 204.256 9.80644 204.256 9.94934C204.256 10.0922 204.284 10.218 204.341 10.3266C204.401 10.4323 204.478 10.5137 204.573 10.5709C204.67 10.6281 204.773 10.6566 204.881 10.6566C204.993 10.6566 205.097 10.6295 205.194 10.5752C205.291 10.518 205.369 10.438 205.426 10.3351C205.483 10.2294 205.512 10.1037 205.512 9.95791Z" fill="white"/>
</g>
<defs>
<clipPath id="clip0_6255_20882">
<rect width="326" height="126.242" fill="white"/>
</clipPath>
</defs>
</svg>
