<svg width="220" height="51" viewBox="0 0 220 51" fill="none" xmlns="http://www.w3.org/2000/svg">
<path d="M14.9596 50.9924C12.2915 51.049 9.65179 50.4357 7.2819 49.2086C5.12451 48.0528 3.34865 46.2961 2.16955 44.1514C0.911242 41.8409 0.277384 39.242 0.330568 36.6116V21.1642C0.330568 18.1544 1.91822 16.6526 5.09352 16.6587C8.26882 16.6648 9.85954 18.1667 9.86566 21.1642V36.5197C9.76105 38.2338 10.2266 39.9344 11.1897 41.3562C11.6326 41.9258 12.2068 42.3798 12.8633 42.6792C13.5199 42.9787 14.2391 43.1147 14.9596 43.0756C15.6809 43.1092 16.3996 42.9678 17.0544 42.6636C17.7092 42.3594 18.2808 41.9014 18.7203 41.3286C19.6835 39.9068 20.149 38.2062 20.0444 36.4921V21.1642C20.0444 18.1575 21.6259 16.6587 24.8074 16.6587C27.9888 16.6587 29.5703 18.1575 29.5703 21.1642V36.63C29.6235 39.2604 28.9896 41.8593 27.7313 44.1698C26.5634 46.2994 24.808 48.0484 22.6741 49.2086C20.2937 50.4428 17.6403 51.0564 14.9596 50.9924Z" fill="#6744FF"/>
<path d="M41.1095 50.9923C37.9342 50.9923 36.3465 49.4904 36.3465 46.4868V30.598C36.3465 26.3683 37.7043 23.0153 40.4199 20.5388C43.1354 18.0623 46.7214 16.8363 51.1779 16.8608C55.6282 16.8608 59.2142 18.0868 61.9359 20.5388C64.6576 22.9908 66.0123 26.3438 66 30.598V46.4868C66 49.4935 64.4185 50.9923 61.2371 50.9923C58.0557 50.9923 56.4741 49.4935 56.4741 46.4868V31.1313C56.5916 29.4363 56.0955 27.7556 55.0765 26.3959C54.59 25.8506 53.9868 25.422 53.3119 25.1418C52.6369 24.8617 51.9075 24.7372 51.1779 24.7776C50.4469 24.7371 49.7161 24.8615 49.0396 25.1417C48.3632 25.4218 47.7584 25.8505 47.2701 26.3959C46.2543 27.7568 45.7616 29.4374 45.8816 31.1313V46.4868C45.8816 49.4966 44.2909 50.9984 41.1095 50.9923Z" fill="#6744FF"/>
<path d="M77.8569 11.1412C77.1021 11.1603 76.351 11.0296 75.6471 10.7565C74.9432 10.4835 74.3004 10.0736 73.756 9.55045C73.221 9.05191 72.7972 8.44623 72.512 7.77291C72.2268 7.09958 72.0867 6.37371 72.1009 5.64262C72.0772 4.89122 72.2124 4.14328 72.4976 3.4477C72.7828 2.75212 73.2116 2.12457 73.756 1.60607C74.8863 0.572907 76.3623 0 77.8937 0C79.425 0 80.901 0.572907 82.0314 1.60607C82.5684 2.12873 82.9906 2.75767 83.2708 3.45271C83.551 4.14775 83.6832 4.89361 83.6589 5.64262C83.6737 6.37128 83.5366 7.09504 83.2564 7.76783C82.9762 8.44062 82.559 9.04771 82.0314 9.55045C81.48 10.0852 80.8256 10.502 80.1079 10.7755C79.3902 11.049 78.6243 11.1734 77.8569 11.1412Z" fill="#6744FF"/>
<path d="M82.6272 46.5606C82.6272 49.5121 81.0732 50.9925 78.0297 50.9925C76.7457 51.0609 75.4789 50.6734 74.4529 49.8983C73.9918 49.4801 73.6328 48.9618 73.4032 48.3832C73.1737 47.8046 73.0798 47.1811 73.1288 46.5606V21.3298C73.0556 20.1269 73.4473 18.9419 74.223 18.0196C74.9525 17.2289 76.1785 16.8335 77.901 16.8335C79.6204 16.8335 80.8525 17.2289 81.5789 18.0196C82.3505 18.9442 82.7417 20.1275 82.6731 21.3298L82.6272 46.5606Z" fill="#6744FF"/>
<path d="M141.614 50.9924C138.943 51.049 136.301 50.4357 133.927 49.2086C131.763 48.0557 129.981 46.2987 128.797 44.1514C127.538 41.8409 126.904 39.242 126.958 36.6116V21.1642C126.958 18.1544 128.548 16.6526 131.73 16.6587C134.911 16.6648 136.505 18.1667 136.511 21.1642V36.5197C136.407 38.2338 136.872 39.9344 137.835 41.3562C138.305 41.8961 138.885 42.329 139.536 42.6257C140.187 42.9224 140.894 43.0759 141.61 43.0759C142.325 43.0759 143.032 42.9224 143.684 42.6257C144.335 42.329 144.915 41.8961 145.384 41.3562C146.347 39.9344 146.813 38.2338 146.708 36.5197V21.1642C146.708 18.1544 148.296 16.6526 151.471 16.6587C154.646 16.6648 156.237 18.1667 156.243 21.1642V36.63C156.297 39.2604 155.663 41.8593 154.404 44.1698C153.22 46.3061 151.445 48.0557 149.292 49.2086C146.923 50.4383 144.283 51.0517 141.614 50.9924Z" fill="#6744FF"/>
<path d="M166.362 50.459C165.831 50.4691 165.305 50.3545 164.826 50.1246C164.347 49.8947 163.928 49.5557 163.604 49.135C162.86 48.2235 162.472 47.0739 162.509 45.8984C162.493 45.1062 162.7 44.3254 163.107 43.6456L173.313 27.6925C173.657 27.123 174.057 26.59 174.509 26.1018C174.787 25.8113 175.126 25.5853 175.502 25.4397H166.233C163.273 25.4397 161.801 24.0881 161.801 21.4032C161.801 18.7183 163.273 17.3574 166.233 17.3574H182.582C183.145 17.3457 183.704 17.4582 184.219 17.6871C184.734 17.9159 185.192 18.2554 185.561 18.6815C186.361 19.5701 186.789 20.7321 186.756 21.9273C186.767 22.7188 186.56 23.498 186.159 24.18L175.373 40.2711C175.09 40.7992 174.697 41.261 174.222 41.6257C173.746 41.9903 173.198 42.2495 172.615 42.3859H183.869C186.83 42.3859 188.31 43.7774 188.31 46.5604C188.31 49.1656 186.83 50.4652 183.869 50.459H166.362Z" fill="#6744FF"/>
<path d="M197.743 50.459C197.212 50.4676 196.686 50.3525 196.207 50.1226C195.728 49.8928 195.31 49.5547 194.984 49.135C194.245 48.2211 193.857 47.0732 193.89 45.8984C193.878 45.1067 194.085 44.3271 194.488 43.6456L204.694 27.6925C205.037 27.123 205.438 26.59 205.889 26.1018C206.165 25.8076 206.505 25.5811 206.882 25.4397H197.614C194.653 25.4397 193.173 24.0881 193.173 21.4032C193.173 18.7183 194.653 17.3574 197.614 17.3574H213.962C214.526 17.3457 215.085 17.4582 215.6 17.6871C216.115 17.9159 216.573 18.2554 216.942 18.6815C217.742 19.5701 218.17 20.7321 218.137 21.9273C218.148 22.7188 217.941 23.498 217.539 24.18L206.745 40.2711C206.462 40.7996 206.069 41.2617 205.594 41.6264C205.118 41.9911 204.57 42.25 203.986 42.3859H215.241C218.201 42.3859 219.673 43.7743 219.673 46.5604C219.673 49.1625 218.201 50.459 215.241 50.459H197.743Z" fill="#6744FF"/>
<path d="M119.387 25.3926C118.238 23.4064 116.7 21.6735 114.863 20.2987C112.691 18.6767 110.061 17.785 107.351 17.7517H107.111C105.189 17.6895 103.272 17.9825 101.457 18.616C100.004 19.1661 98.7798 20.1898 97.981 21.5216C98.2838 20.6199 98.5235 19.6982 98.6982 18.7631C98.8538 17.8504 98.9551 16.9293 99.0016 16.0047C99.066 14.9013 99.1027 13.4853 99.1027 11.7658V6.10176C99.1027 2.65674 97.6254 0.934235 94.6708 0.934235C91.4465 0.934235 89.8343 2.65674 89.8343 6.10176V34.1002C89.7521 37.2297 90.2509 40.3474 91.3055 43.2951C91.4637 43.705 91.6543 44.1016 91.8756 44.4812C94.634 49.1982 99.7096 50.7429 105.493 50.7613C108.563 50.8824 111.621 50.3104 114.44 49.0879C118.817 47.0006 121.796 42.6514 121.796 34.422C121.814 31.251 120.982 28.1331 119.387 25.3926ZM103.314 34.9001C103.171 34.8954 103.031 34.8626 102.901 34.8036C102.772 34.7447 102.655 34.6607 102.557 34.5565C102.46 34.4523 102.384 34.33 102.334 34.1965C102.284 34.0629 102.261 33.9209 102.266 33.7784V30.7073C102.26 30.564 102.282 30.421 102.331 30.2864C102.381 30.1518 102.457 30.0283 102.554 29.9232C102.651 29.818 102.769 29.7332 102.899 29.6737C103.03 29.6141 103.171 29.581 103.314 29.5763C103.601 29.5883 103.872 29.7126 104.068 29.9225C104.264 30.1324 104.37 30.4109 104.362 30.6981V33.7692C104.368 33.9124 104.346 34.0555 104.297 34.1901C104.247 34.3247 104.171 34.4481 104.074 34.5533C103.977 34.6584 103.859 34.7433 103.729 34.8028C103.598 34.8623 103.457 34.8954 103.314 34.9001ZM111.268 34.9001C111.132 34.8954 110.999 34.864 110.876 34.8079C110.753 34.7517 110.642 34.6718 110.55 34.5727C110.458 34.4736 110.386 34.3574 110.339 34.2305C110.291 34.1037 110.27 33.9688 110.275 33.8335V30.6521C110.28 30.4633 110.334 30.2791 110.433 30.1179C110.531 29.9566 110.67 29.8238 110.835 29.7326C110.965 29.6624 111.111 29.6245 111.258 29.6223C111.394 29.627 111.527 29.6584 111.65 29.7146C111.773 29.7708 111.884 29.8507 111.976 29.9497C112.068 30.0488 112.14 30.1651 112.187 30.2919C112.235 30.4187 112.256 30.5536 112.251 30.6889V33.8703C112.241 34.1256 112.136 34.368 111.958 34.5512C111.78 34.7344 111.541 34.8455 111.286 34.8634L111.268 34.9001Z" fill="#C4B8FF"/>
<path d="M103.318 29.577C103.175 29.5829 103.035 29.6169 102.906 29.6769C102.776 29.737 102.66 29.822 102.563 29.927C102.467 30.0321 102.392 30.1551 102.343 30.2891C102.294 30.4231 102.272 30.5655 102.278 30.708V33.7791C102.278 34.0546 102.388 34.3189 102.583 34.5138C102.778 34.7086 103.042 34.8181 103.318 34.8181C103.593 34.8181 103.857 34.7086 104.052 34.5138C104.247 34.3189 104.357 34.0546 104.357 33.7791V30.6988C104.364 30.4131 104.26 30.1359 104.065 29.9263C103.871 29.7167 103.603 29.5913 103.318 29.577Z" fill="white"/>
<path d="M112.203 30.6153C112.208 30.4801 112.186 30.3451 112.139 30.2183C112.092 30.0915 112.02 29.9752 111.928 29.8762C111.836 29.7771 111.725 29.6972 111.602 29.641C111.479 29.5848 111.346 29.5535 111.21 29.5487C111.062 29.551 110.917 29.5888 110.787 29.659C110.622 29.7502 110.483 29.883 110.385 30.0443C110.286 30.2055 110.232 30.3897 110.226 30.5785V33.76C110.222 33.8952 110.243 34.0301 110.291 34.157C110.338 34.2838 110.41 34.4001 110.502 34.4991C110.594 34.5982 110.705 34.6781 110.828 34.7343C110.951 34.7905 111.084 34.8218 111.219 34.8266C111.479 34.7967 111.717 34.6704 111.887 34.4728C112.058 34.2752 112.148 34.0207 112.139 33.76L112.203 30.6153Z" fill="white"/>
</svg>
