<svg width="326" height="127" viewBox="0 0 326 127" fill="none" xmlns="http://www.w3.org/2000/svg">
<g clip-path="url(#clip0_8985_73728)">
<path opacity="0.35" d="M67.837 126.242C91.5707 126.242 110.811 123.843 110.811 120.884C110.811 117.924 91.5707 115.525 67.837 115.525C44.1033 115.525 24.8633 117.924 24.8633 120.884C24.8633 123.843 44.1033 126.242 67.837 126.242Z" fill="#464A60"/>
<path opacity="0.35" d="M265.021 126.242C288.754 126.242 307.994 123.843 307.994 120.884C307.994 117.924 288.754 115.525 265.021 115.525C241.288 115.525 222.047 117.924 222.047 120.884C222.047 123.843 241.288 126.242 265.021 126.242Z" fill="#464A60"/>
<path d="M107.518 74.3516C68.4916 89.8656 41.3464 80.118 28.2093 72.5223C23.6813 77.2897 20.4586 83.1538 19.5023 90.1245C17.1847 121.509 26.4552 124.684 66.5864 124.562C106.718 124.44 116.598 123.829 114.646 90.1245C113.997 84.0576 111.365 78.7917 107.518 74.3516Z" fill="#4879BA"/>
<path d="M107.518 74.3516C97.5767 62.8747 79.514 56.9055 66.5842 56.9055C54.2763 56.9055 38.1191 62.0834 28.207 72.5197C41.3465 80.118 68.4919 89.8656 107.518 74.3516Z" fill="#4879BA" stroke="white" stroke-width="4" stroke-miterlimit="10"/>
<path d="M134.495 77.1598C138.934 77.1598 142.532 73.5613 142.532 69.1223C142.532 64.6833 138.934 61.0848 134.495 61.0848C130.055 61.0848 126.457 64.6833 126.457 69.1223C126.457 73.5613 130.055 77.1598 134.495 77.1598Z" fill="#F88B27"/>
<path d="M8.03748 85.7331C12.4765 85.7331 16.075 82.1346 16.075 77.6956C16.075 73.2566 12.4765 69.6581 8.03748 69.6581C3.5985 69.6581 0 73.2566 0 77.6956C0 82.1346 3.5985 85.7331 8.03748 85.7331Z" fill="#F88B27"/>
<path d="M35.4889 76.0881C35.4889 76.0881 37.7816 97.2046 19.0742 94.7509" stroke="white" stroke-width="4" stroke-miterlimit="10"/>
<path d="M100.601 77.3741C100.601 77.3741 98.6057 99.2105 114.884 96.6733" stroke="white" stroke-width="4" stroke-miterlimit="10"/>
<path d="M140.257 75.5943L131.41 72.9672C130.595 72.7244 130.134 71.8763 130.378 71.0742L136.238 51.8794C136.484 51.075 137.344 50.6207 138.157 50.8611L147.004 53.488C147.82 53.7311 148.281 54.5792 148.037 55.381L142.177 74.576C141.93 75.3804 141.07 75.8371 140.257 75.5943Z" fill="#B7CFE9"/>
<path d="M141.04 54.6295L137.576 53.583C137.276 53.4925 137.106 53.1738 137.196 52.8727L137.311 52.4886C137.401 52.1874 137.719 52.0166 138.019 52.1071L141.483 53.1537C141.783 53.2441 141.953 53.5628 141.863 53.8639L141.748 54.248C141.658 54.5517 141.34 54.7224 141.04 54.6295Z" fill="#4D5562"/>
<path d="M141.044 53.7345C141.08 53.5808 140.989 53.4286 140.842 53.3948C140.695 53.3607 140.547 53.458 140.512 53.6117C140.476 53.7656 140.567 53.9177 140.714 53.9516C140.861 53.9855 141.009 53.8884 141.044 53.7345Z" fill="#CDDDE0"/>
<path d="M102.651 45.5168L101.535 31.8318C101.364 29.7222 99.6174 28.117 97.5409 28.0682C96.2537 25.7394 93.9695 22.2025 90.5055 18.8263C85.1776 13.6353 75.9681 7.91576 62.3394 10.1373C48.7766 12.3492 41.4651 19.618 37.7203 25.3279C33.6602 31.5176 32.8247 37.1372 32.793 37.3736L35.2115 37.717C35.2188 37.6634 36.0272 32.319 39.8235 26.5751C44.8826 18.9189 52.5924 14.198 62.735 12.544C72.8363 10.8973 81.5843 13.5793 88.737 20.512C91.5486 23.2377 93.5518 26.122 94.8294 28.2679L94.5827 28.2874C92.3206 28.4702 90.6375 30.4481 90.8207 32.7037L91.937 46.3889C92.1202 48.6445 94.1039 50.323 96.366 50.1404L98.8895 49.9357C101.152 49.7481 102.837 47.7701 102.651 45.5168Z" fill="#895623"/>
<path d="M100.318 40.3777C102.252 62.269 87.3272 69.1907 69.1231 70.8027C50.9187 72.4146 35.6396 67.8401 33.7344 46.2761C32.3144 30.2149 45.9518 16.2152 64.1559 14.6032C82.3602 12.9888 98.8981 24.3167 100.318 40.3777Z" fill="#F88B27"/>
<path fill-rule="evenodd" clip-rule="evenodd" d="M81.5723 40.0107C80.8964 40.3549 80.4505 41.0014 79.9625 41.7157C79.662 42.1555 79.0619 42.2685 78.6221 41.968C78.1822 41.6675 78.0693 41.0673 78.3698 40.6275C78.3914 40.5958 78.4138 40.5629 78.4369 40.5289C78.8728 39.8876 79.5662 38.8676 80.6969 38.2917C81.9743 37.6413 83.5938 37.6401 85.6694 38.6475C86.1486 38.8801 86.3486 39.4572 86.116 39.9364C85.8834 40.4156 85.3063 40.6155 84.8271 40.3829C83.1236 39.5561 82.1615 39.7106 81.5723 40.0107ZM66.4605 41.8539C65.7369 42.0951 65.1907 42.678 64.5932 43.3215C64.2308 43.7119 63.6205 43.7345 63.2301 43.3721C62.8398 43.0097 62.8171 42.3994 63.1796 42.009C63.2061 41.9804 63.2336 41.9507 63.2619 41.92C63.7949 41.3433 64.6418 40.4268 65.8505 40.0239C67.2213 39.567 68.8271 39.8204 70.718 41.1598C71.1527 41.4677 71.2555 42.0696 70.9476 42.5043C70.6397 42.939 70.0377 43.0418 69.603 42.7339C68.0556 41.6378 67.0863 41.6453 66.4605 41.8539Z" fill="white"/>
<path d="M37.398 57.0086L34.8895 57.2133C32.6407 57.3959 30.6712 55.7181 30.4866 53.4634L29.3768 39.7834C29.1949 37.5286 30.8679 35.5537 33.1167 35.3688L35.6253 35.1641C37.8738 34.9815 39.8433 36.6593 40.0279 38.914L41.1377 52.594C41.3222 54.8488 39.6466 56.826 37.398 57.0086Z" fill="#895623"/>
<path d="M219.789 92.0143C222.67 71.0322 247.339 60.6562 264.284 60.6562C281.232 60.6562 307.513 71.492 309.706 92.0143C311.549 123.832 302.213 124.41 264.284 124.524C226.36 124.64 217.598 121.643 219.789 92.0143Z" fill="#F4DA00"/>
<path d="M194.721 72.0158C199.16 72.0158 202.759 68.4173 202.759 63.9783C202.759 59.5393 199.16 55.9408 194.721 55.9408C190.282 55.9408 186.684 59.5393 186.684 63.9783C186.684 68.4173 190.282 72.0158 194.721 72.0158Z" fill="#EC4699"/>
<path d="M317.963 83.5897C322.402 83.5897 326.001 79.9433 326.001 75.4451C326.001 70.9469 322.402 67.3005 317.963 67.3005C313.524 67.3005 309.926 70.9469 309.926 75.4451C309.926 79.9433 313.524 83.5897 317.963 83.5897Z" fill="#EC4699"/>
<path d="M188.954 70.4496L197.801 67.8001C198.617 67.5551 199.078 66.6997 198.834 65.8908L192.974 46.5303C192.727 45.7191 191.867 45.2608 191.054 45.5035L182.207 48.153C181.391 48.398 180.931 49.2534 181.175 50.0623L187.035 69.4226C187.281 70.234 188.141 70.6946 188.954 70.4496Z" fill="#E4CEF0"/>
<path d="M239.031 66.2136C239.031 63.0575 242.913 60.776 245.926 61.7167C252.466 63.7588 263.74 65.4077 280.104 61.4974C282.605 60.8999 285.083 62.7461 285.083 65.317V69.8045C285.083 71.3713 284.14 72.7737 282.646 73.2433C276.385 75.2102 258.983 79.3655 241.243 71.8403C239.878 71.2609 239.031 69.8967 239.031 68.4131V66.2136Z" fill="#FEF4D4"/>
<path d="M188.176 49.2744L191.639 48.3144C191.939 48.2317 192.11 47.9394 192.02 47.6631L191.904 47.3109C191.814 47.0347 191.496 46.8782 191.196 46.9609L187.733 47.9209C187.432 48.0037 187.262 48.296 187.352 48.5723L187.468 48.9244C187.558 49.2007 187.875 49.3572 188.176 49.2744Z" fill="#4D5562"/>
<path d="M188.502 48.7041C188.649 48.6702 188.74 48.5181 188.704 48.3642C188.669 48.2103 188.521 48.1132 188.374 48.147C188.227 48.1811 188.136 48.3333 188.172 48.487C188.207 48.6409 188.355 48.738 188.502 48.7041Z" fill="#CDDDE0"/>
<path d="M228.896 41.1176C226.96 63.0087 241.887 69.9303 260.092 71.5423C278.295 73.1543 293.575 68.5798 295.48 47.0158C296.899 30.9548 283.261 16.9549 265.058 15.3429C246.855 13.7285 230.313 25.0564 228.896 41.1176Z" fill="#EC4699"/>
<path fill-rule="evenodd" clip-rule="evenodd" d="M299.834 21.3263C301.242 21.3312 302.183 22.7808 301.609 24.0698L294.602 39.7819C293.972 41.195 292.024 41.3461 291.181 40.0474L283.333 27.9288C283.322 27.9241 283.315 27.9216 283.305 27.9168L278.658 25.9068L266.235 28.7694C264.726 29.118 263.434 27.6536 263.965 26.2015L270.423 8.56701C270.955 7.11495 272.888 6.82989 273.818 8.06757L283.375 20.8171L284.447 21.28L299.834 21.3263Z" fill="#A00F2C"/>
<path d="M309.498 105.369C306.045 107.71 304.918 114.019 302.489 114.215C299.109 114.488 300.314 107.177 292.977 106.952C285.64 106.727 287.64 113.717 282.749 114.168C277.858 114.618 280.304 104.472 273.794 105.047C267.285 105.622 268.52 113.266 263.243 113.525C257.964 113.784 260.071 104.697 255.402 105.058C250.734 105.419 248.509 114.844 245.62 114.393C242.729 113.942 243.398 105.148 238.601 105.049C233.806 104.95 234.949 113.942 230.501 113.942C226.056 113.942 229.835 104.697 224.067 105.058C222.661 105.146 221.328 105.883 220.121 106.945C222.567 122.723 234.258 124.617 264.299 124.524C295.761 124.427 307.496 124.006 309.498 105.369Z" fill="#FEF4D4"/>
<path d="M63.9074 105.769H58.5782L56.1914 104.39V101.448H59.072V103.3H63.4136V99.4521H59.8128V96.983H63.4136V93.6291H59.072V95.4809H56.1914V92.5386L58.5782 91.16H63.9074L66.2942 92.5386V97.1682L64.5041 98.197V98.2381L66.2942 99.2669V104.39L63.9074 105.769ZM73.766 105.666H70.7414L76.2763 93.7731V93.732H71.6467V95.5838H68.7661V91.2629H79.5685V93.1147L73.766 105.666Z" fill="white"/>
<path d="M147.208 43.3794L140.238 38.0063" stroke="#FCEE21" stroke-width="8" stroke-miterlimit="10" stroke-linecap="round"/>
<path d="M161.264 32.465L160.504 26.2155" stroke="#FCEE21" stroke-width="8" stroke-miterlimit="10" stroke-linecap="round"/>
<path d="M178.355 36.5394L182.342 28.9988" stroke="#FCEE21" stroke-width="8" stroke-miterlimit="10" stroke-linecap="round"/>
<path d="M184.629 86.3315L190.67 92.7304" stroke="#FCEE21" stroke-width="8" stroke-miterlimit="10" stroke-linecap="round"/>
<path d="M169.034 94.9074L168.805 101.199" stroke="#FCEE21" stroke-width="8" stroke-miterlimit="10" stroke-linecap="round"/>
<path d="M152.795 88.2043L147.676 95.027" stroke="#FCEE21" stroke-width="8" stroke-miterlimit="10" stroke-linecap="round"/>
<path fill-rule="evenodd" clip-rule="evenodd" d="M245.945 42.5471C245.191 42.6595 244.552 43.1392 243.852 43.6695C243.427 43.9913 242.822 43.908 242.501 43.4835C242.179 43.0589 242.262 42.454 242.687 42.1322C242.718 42.1087 242.75 42.0842 242.783 42.059C243.408 41.5832 244.4 40.8269 245.661 40.6391C247.09 40.4262 248.628 40.9535 250.258 42.5998C250.633 42.9783 250.63 43.589 250.251 43.9638C249.873 44.3386 249.262 44.3356 248.887 43.9571C247.554 42.6101 246.598 42.4498 245.945 42.5471ZM261.148 43.3454C260.422 43.5675 259.872 44.1271 259.267 44.7464C258.895 45.1275 258.284 45.1348 257.903 44.7627C257.522 44.3906 257.515 43.78 257.887 43.3988C257.914 43.3712 257.942 43.3425 257.97 43.3128C258.511 42.7566 259.37 41.8723 260.583 41.5009C261.954 41.0812 263.549 41.3602 265.419 42.7114C265.851 43.0233 265.948 43.6263 265.637 44.058C265.325 44.4898 264.722 44.587 264.29 44.2751C262.755 43.166 261.78 43.1518 261.148 43.3454Z" fill="white"/>
</g>
<defs>
<clipPath id="clip0_8985_73728">
<rect width="326" height="126.242" fill="white"/>
</clipPath>
</defs>
</svg>
