<svg width="240" height="128" viewBox="0 0 240 128" fill="none" xmlns="http://www.w3.org/2000/svg">
<g clip-path="url(#clip0_7278_28324)">
<path d="M45.0006 128.749C64.4676 128.749 80.25 127.074 80.25 125.006C80.25 122.939 64.4676 121.264 45.0006 121.264C25.5324 121.264 9.75 122.939 9.75 125.006C9.75 127.074 25.5324 128.749 45.0006 128.749Z" fill="#D2D2D2"/>
<path d="M9 111.18C13.9708 111.18 18 107.661 18 103.321C18 98.9798 13.9708 95.4609 9 95.4609C4.0296 95.4609 0 98.9798 0 103.321C0 107.661 4.0296 111.18 9 111.18Z" fill="#C4B8FF"/>
<path d="M7.03599 97.7895C9.53302 78.6179 30.4268 69.2105 44.7587 69.2639C59.091 69.3171 81.2895 79.3066 83.0835 98.0724C84.5535 127.166 76.6545 127.663 44.5774 127.649C12.5006 127.635 5.09943 124.868 7.03599 97.7895Z" fill="#88123B"/>
<path d="M93.375 69.2623C97.7243 69.2623 101.25 65.7432 101.25 61.4026C101.25 57.062 97.7243 53.543 93.375 53.543C89.0258 53.543 85.5 57.062 85.5 61.4026C85.5 65.7432 89.0258 69.2623 93.375 69.2623Z" fill="#C4B8FF"/>
<path d="M123.263 28.5185C123.689 28.0415 124.483 27.9529 125.036 28.3207L128.508 30.6305C129.061 30.9983 129.164 31.6832 128.737 32.1602C128.311 32.6373 127.517 32.7258 126.965 32.3581L123.492 30.0482C122.939 29.6805 122.837 28.9956 123.263 28.5185Z" fill="#FCEE21"/>
<path d="M148.868 0.0836335C149.546 -0.157016 150.285 0.139376 150.518 0.745587L151.566 3.46953C151.799 4.07574 151.439 4.76228 150.761 5.00298C150.083 5.24368 149.345 4.94726 149.111 4.34103L148.063 1.61709C147.83 1.01087 148.19 0.324336 148.868 0.0836335Z" fill="#FCEE21"/>
<path d="M192.952 3.33486C193.577 3.6909 193.834 4.44305 193.525 5.01482L192.139 7.58405C191.83 8.15579 191.074 8.33065 190.45 7.97464C189.825 7.61864 189.568 6.86648 189.877 6.29468L191.263 3.72541C191.571 3.15368 192.328 2.97885 192.952 3.33486Z" fill="#FCEE21"/>
<path d="M164.743 78.2463C153.386 78.2463 144.18 77.0943 144.18 75.6729C144.18 74.2518 153.386 73.0996 164.743 73.0996C176.1 73.0996 185.307 74.2518 185.307 75.6729C185.307 77.0943 176.1 78.2463 164.743 78.2463Z" fill="#D2D2D2"/>
<path d="M213.07 78.2463C224.427 78.2463 233.634 77.0943 233.634 75.6729C233.634 74.2518 224.427 73.0996 213.07 73.0996C201.713 73.0996 192.506 74.2518 192.506 75.6729C192.506 77.0943 201.713 78.2463 213.07 78.2463Z" fill="#D2D2D2"/>
<path d="M145.755 53.3239C164.43 60.775 177.42 56.0934 183.707 52.4453C185.874 54.735 187.416 57.5515 187.873 60.8994C188.982 75.973 184.546 77.4978 165.342 77.4394C146.139 77.3802 141.411 77.0868 142.344 60.8994C142.655 57.9855 143.914 55.4564 145.755 53.3239Z" fill="#4879BA"/>
<path d="M145.755 53.3239C150.512 47.8118 159.156 44.9453 165.343 44.9453C171.232 44.9453 178.964 47.4321 183.707 52.4445C177.42 56.0938 164.43 60.775 145.755 53.3239Z" fill="#4879BA"/>
<path d="M165.339 44.7246C162.296 44.7246 158.674 45.4175 155.234 46.7676C151.795 48.1173 148.5 50.1396 146.145 52.8285L145.609 53.4401L146.37 53.739C164.443 60.8448 177.066 56.3878 183.213 52.8723L183.851 52.5074L183.343 51.9789C178.669 47.1118 171.1 44.7246 165.339 44.7246ZM165.339 45.8742C170.64 45.8742 177.529 48.0034 181.971 52.2436C175.945 55.4965 164.221 59.2569 147.586 52.9736C149.739 50.7566 152.617 49.0317 155.662 47.8361C158.98 46.5336 162.458 45.8742 165.339 45.8742Z" fill="white"/>
<path d="M132.847 54.6736C130.722 54.6736 129 52.9453 129 50.8133C129 48.6813 130.722 46.9531 132.847 46.9531C134.971 46.9531 136.693 48.6813 136.693 50.8133C136.693 52.9453 134.971 54.6736 132.847 54.6736Z" fill="#F88B27"/>
<path d="M179.608 53.788V53.7905C179.608 53.7925 179.607 53.7952 179.607 53.7985C179.607 53.8049 179.605 53.8138 179.604 53.8252C179.602 53.848 179.6 53.8805 179.597 53.922C179.59 54.0049 179.582 54.1239 179.576 54.2734C179.563 54.5723 179.555 54.995 179.574 55.4972C179.612 56.4965 179.759 57.8363 180.204 59.1502C180.65 60.4655 181.409 61.7912 182.691 62.7C183.982 63.6145 185.732 64.0555 188.061 63.7357L187.904 62.4881C185.802 62.7768 184.363 62.365 183.365 61.6578C182.359 60.945 181.728 59.8801 181.337 58.729C180.946 57.5764 180.81 56.3738 180.775 55.4471C180.757 54.9864 180.765 54.6001 180.776 54.3309C180.782 54.1965 180.789 54.0915 180.794 54.0216C180.797 53.9865 180.8 53.9603 180.801 53.9435C180.802 53.9352 180.803 53.9293 180.803 53.9257V53.922C180.803 53.922 180.773 53.919 180.206 53.8544C179.634 53.7894 179.609 53.7869 179.608 53.7871V53.788Z" fill="white"/>
<path d="M149.174 54.4504L148.569 54.5073C148.569 54.507 148.569 54.5073 148.569 54.5073C148.569 54.508 148.569 54.51 148.569 54.5119C148.57 54.5159 148.57 54.5223 148.571 54.5312C148.572 54.5491 148.574 54.5769 148.577 54.6136C148.581 54.6871 148.587 54.7971 148.592 54.9376C148.603 55.2187 148.61 55.6214 148.594 56.1016C148.563 57.067 148.442 58.3228 148.094 59.5272C147.745 60.7366 147.183 61.8377 146.308 62.5656C145.453 63.2762 144.229 63.6901 142.42 63.3985L142.232 64.6417C144.326 64.9791 145.909 64.5115 147.07 63.5459C148.211 62.5975 148.873 61.2274 149.26 59.8872C149.648 58.542 149.777 57.1691 149.81 56.1436C149.827 55.6285 149.819 55.1951 149.808 54.889C149.803 54.7359 149.795 54.6142 149.79 54.5297C149.787 54.4876 149.785 54.4547 149.783 54.4317C149.783 54.4202 149.782 54.4111 149.781 54.4047C149.781 54.4015 149.781 54.3989 149.78 54.397C149.78 54.3961 149.78 54.3952 149.78 54.3946C149.78 54.3942 149.78 54.3933 149.174 54.4504Z" fill="white"/>
<path d="M148.419 41.3501L148.293 34.7572C148.273 33.7408 149.028 32.8905 150.014 32.7681C150.516 31.5938 151.433 29.7947 152.92 28.0161C155.208 25.2813 159.318 22.1089 165.913 22.5207C172.477 22.9309 176.308 26.0559 178.365 28.6059C180.596 31.3702 181.263 34.0159 181.29 34.1273L180.155 34.4068C180.149 34.3815 179.508 31.8661 177.424 29.3022C174.647 25.8847 170.749 23.9964 165.84 23.6896C160.952 23.3844 156.915 25.0832 153.843 28.7373C152.635 30.174 151.82 31.6478 151.315 32.7342L151.434 32.7318C152.519 32.7113 153.416 33.5762 153.437 34.6629L153.563 41.256C153.584 42.3426 152.72 43.2393 151.634 43.26L150.423 43.2825C149.337 43.3007 148.439 42.4358 148.419 41.3501Z" fill="#895623"/>
<path d="M71.25 63.7628C71.25 80.0911 59.2676 84.2343 45.1189 84.2343C30.97 84.2343 19.5 79.8479 19.5 63.7628C19.5 51.7837 30.97 42.3164 45.1189 42.3164C59.2676 42.3164 71.25 51.7837 71.25 63.7628Z" fill="#C4B8FF"/>
<path d="M149.284 38.783C149.415 49.3366 156.854 51.9326 165.599 51.8349C174.344 51.7371 181.399 48.8224 181.27 38.4266C181.175 30.6835 174.009 24.6436 165.264 24.7414C156.519 24.838 149.188 31.0401 149.284 38.783Z" fill="#F88B27"/>
<path fill-rule="evenodd" clip-rule="evenodd" d="M158.196 37.9017C158.541 38.0149 158.799 38.2886 159.084 38.5913C159.258 38.7777 159.551 38.7868 159.736 38.6116C159.921 38.4365 159.93 38.1433 159.756 37.957C159.743 37.9435 159.729 37.9296 159.716 37.9151C159.462 37.6432 159.058 37.2106 158.481 37.0213C157.828 36.8073 157.062 36.9269 156.156 37.5588C155.948 37.7047 155.896 37.9933 156.042 38.2034C156.188 38.4136 156.475 38.4656 156.684 38.3197C157.428 37.8011 157.894 37.8031 158.196 37.9017ZM165.477 37.6557C165.837 37.7164 166.139 37.9525 166.469 38.2136C166.67 38.3719 166.96 38.3374 167.118 38.1365C167.274 37.9355 167.24 37.6443 167.04 37.486C167.025 37.4744 167.01 37.4623 166.994 37.4499C166.698 37.2157 166.23 36.8437 165.628 36.7422C164.946 36.627 164.206 36.8664 163.413 37.642C163.23 37.8203 163.226 38.1136 163.404 38.297C163.582 38.4804 163.875 38.4845 164.057 38.3062C164.706 37.6715 165.165 37.6031 165.477 37.6557Z" fill="white"/>
<path d="M188.347 68.7497C186.222 68.7497 184.5 67.0215 184.5 64.8895C184.5 62.7575 186.222 61.0293 188.347 61.0293C190.471 61.0293 192.193 62.7575 192.193 64.8895C192.193 67.0215 190.471 68.7497 188.347 68.7497Z" fill="#F88B27"/>
<path d="M180.041 43.7313L181.246 43.7095C182.325 43.6896 183.182 42.7938 183.162 41.7075L183.033 35.1172C183.011 34.031 182.12 33.167 181.04 33.1858L179.836 33.2077C178.757 33.2276 177.899 34.1233 177.92 35.2097L178.049 41.8C178.07 42.8863 178.962 43.7512 180.041 43.7313Z" fill="#895623"/>
<path d="M191.425 61.8068C192.803 51.7296 204.609 46.7461 212.717 46.7461C220.827 46.7461 233.404 51.9503 234.453 61.8068C235.335 77.0887 230.867 77.3656 212.717 77.421C194.569 77.4764 190.377 76.037 191.425 61.8068Z" fill="#F4DA00"/>
<path d="M187.596 50.0368C189.72 50.0368 191.442 48.3086 191.442 46.1766C191.442 44.0446 189.72 42.3164 187.596 42.3164C185.472 42.3164 183.75 44.0446 183.75 46.1766C183.75 48.3086 185.472 50.0368 187.596 50.0368Z" fill="#EC4699"/>
<path d="M200.634 49.4151C200.634 47.8993 202.491 46.8035 203.933 47.2553C207.062 48.2361 212.458 49.028 220.288 47.1499C221.485 46.863 222.67 47.7497 222.67 48.9845V51.1397C222.67 51.8922 222.22 52.5658 221.504 52.7913C218.509 53.736 210.181 55.7316 201.692 52.1175C201.039 51.8392 200.634 51.184 200.634 50.4714V49.4151Z" fill="#FEF4D4"/>
<path d="M195.784 37.3627C194.858 47.8766 202 51.2009 210.712 51.9751C219.423 52.7494 226.734 50.5523 227.646 40.1956C228.325 32.4817 221.799 25.7579 213.088 24.9837C204.378 24.2083 196.461 29.6489 195.784 37.3627Z" fill="#EC4699"/>
<path fill-rule="evenodd" clip-rule="evenodd" d="M229.729 27.856C230.402 27.8583 230.853 28.5545 230.578 29.1736L227.225 36.7198C226.924 37.3985 225.991 37.4711 225.588 36.8473L221.832 31.027C221.827 31.0247 221.824 31.0235 221.819 31.0212L219.595 30.0559L213.651 31.4307C212.929 31.5981 212.31 30.8949 212.564 30.1975L215.655 21.7279C215.909 21.0305 216.834 20.8936 217.279 21.4881L221.853 27.6114L222.365 27.8337L229.729 27.856Z" fill="#A00F2C"/>
<path d="M234.353 68.2208C232.7 69.345 232.161 72.3752 230.999 72.4694C229.382 72.6004 229.958 69.0894 226.447 68.9812C222.936 68.8729 223.893 72.23 221.552 72.4466C219.212 72.6632 220.382 67.7898 217.268 68.066C214.153 68.3422 214.743 72.0134 212.218 72.138C209.692 72.2625 210.7 67.8981 208.466 68.0715C206.233 68.2447 205.168 72.7715 203.786 72.5549C202.402 72.3383 202.722 68.1147 200.426 68.0671C198.132 68.0194 198.679 72.3383 196.55 72.3383C194.423 72.3383 196.232 67.8981 193.472 68.0715C192.799 68.1137 192.161 68.4677 191.583 68.9779C192.754 76.5551 198.349 77.4653 212.724 77.4204C227.78 77.374 233.395 77.1719 234.353 68.2208Z" fill="#FEF4D4"/>
<path d="M162.823 68.4149H160.273L159.131 67.7528V66.3396H160.509V67.2289H162.587V65.381H160.863V64.1951H162.587V62.5843H160.509V63.4738H159.131V62.0606L160.273 61.3984H162.823L163.965 62.0606V64.2841L163.109 64.7782V64.7979L163.965 65.292V67.7528L162.823 68.4149ZM167.541 68.3655H166.093L168.742 62.6535V62.6337H166.527V63.5232H165.148V61.4478H170.317V62.3373L167.541 68.3655Z" fill="white"/>
<path d="M235.596 70.3508C237.72 70.3508 239.442 68.5994 239.442 66.4391C239.442 64.2786 237.72 62.5273 235.596 62.5273C233.472 62.5273 231.75 64.2786 231.75 66.4391C231.75 68.5994 233.472 70.3508 235.596 70.3508Z" fill="#EC4699"/>
<path d="M204.383 35.5782C203.764 35.5828 203.26 35.9926 203.259 36.4938L203.25 39.1694C203.249 39.6706 203.748 40.0738 204.367 40.0693C204.986 40.0647 205.49 39.6549 205.491 39.1536L205.5 36.4781C205.503 35.9765 205.002 35.5737 204.383 35.5782Z" fill="white"/>
<path d="M211.883 35.5782C211.264 35.5828 210.76 35.9926 210.759 36.4938L210.75 39.1694C210.749 39.6706 211.248 40.0738 211.867 40.0693C212.486 40.0647 212.99 39.6549 212.991 39.1536L213 36.4781C213.003 35.9765 212.502 35.5737 211.883 35.5782Z" fill="white"/>
<path d="M20.4236 76H46.3264C50.9783 76 54.75 79.7651 54.75 84.4091V116.994C54.75 121.638 50.9783 125.404 46.3264 125.404H20.4236C15.7718 125.404 12 121.638 12 116.994V84.4091C12 79.7637 15.7718 76 20.4236 76Z" fill="#9E2A4B"/>
<path d="M20.25 86.4915C20.25 85.6584 20.8623 84.9824 21.6176 84.9824C22.3729 84.9824 22.9853 85.6584 22.9853 86.4915V110.636H40.7647V86.4915C40.7647 85.6584 41.3771 84.9824 42.1324 84.9824C42.8877 84.9824 43.5 85.6584 43.5 86.4915V112.145C43.5 112.979 42.8877 113.654 42.1324 113.654H21.6176C20.8623 113.654 20.25 112.979 20.25 112.145V86.4915Z" fill="#CA5878"/>
<path d="M29.8232 108.875C29.8232 108.875 29.8232 107.617 30.9629 107.617H33.2423C33.2423 107.617 34.382 107.617 34.382 108.875V115.162C34.382 115.162 34.382 116.42 33.2423 116.42H30.9629C30.9629 116.42 29.8232 116.42 29.8232 115.162V108.875Z" fill="#FFAFC6"/>
</g>
<defs>
<clipPath id="clip0_7278_28324">
<rect width="240" height="128" fill="white"/>
</clipPath>
</defs>
</svg>
