<svg width="100" height="125" viewBox="0 0 100 125" fill="none" xmlns="http://www.w3.org/2000/svg">
<g clip-path="url(#clip0_7278_28517)">
<path d="M13.5461 78.7127C20.4889 59.523 45.9067 54.6956 61.9339 58.0944C77.9615 61.4932 100.642 76.9746 98.5895 96.7473C93.9388 127.095 84.9914 125.765 49.0974 118.267C13.2034 110.768 5.51963 106.187 13.5461 78.7127Z" fill="#88123B"/>
<path d="M55.6452 77.0101L58.5911 69.3478C58.899 68.5454 59.8016 68.1451 60.6061 68.4539L76.2169 74.4226C77.0221 74.7299 77.4247 75.6298 77.115 76.4312L74.2296 83.9386C73.8247 84.9896 72.4676 85.2764 71.6688 84.4803L66.8729 79.689C66.5844 79.4007 66.1964 79.2374 65.7863 79.2318L57.0818 79.1224C55.9971 79.1075 55.2553 78.0205 55.6452 77.0101Z" fill="white"/>
<path d="M99.3082 55.0838C95.6534 74.7337 80.8209 77.1455 64.3989 74.1072C47.9765 71.0689 35.649 63.3278 39.247 43.9725C41.9291 29.5595 57.359 20.6283 73.781 23.6667C90.2011 26.7046 101.989 40.6682 99.3082 55.0838Z" fill="#C4B8FF"/>
<path d="M85.1054 44.1945C83.9315 43.8273 82.6785 44.4757 82.3099 45.6476L80.5035 51.3682C80.1349 52.5375 80.7856 53.786 81.9617 54.1528C83.1356 54.5196 84.3886 53.8716 84.7572 52.6997L86.5636 46.9791C86.9322 45.8094 86.2796 44.5617 85.1054 44.1945Z" fill="white"/>
<path d="M70.2945 41.7325C69.1721 41.4044 67.9945 42.0439 67.6646 43.1618L65.9049 49.1298C65.5751 50.2477 66.2169 51.4211 67.3392 51.7496C68.4616 52.0777 69.6392 51.4382 69.9691 50.3203L71.7288 44.3523C72.0605 43.234 71.4169 42.061 70.2945 41.7325Z" fill="white"/>
<path d="M61.9403 0H0V125H61.9403V0Z" fill="#F3F4F6"/>
<path d="M61.0078 104.911C65.6448 104.911 69.4034 101.163 69.4034 96.5405C69.4034 91.9177 65.6448 88.1699 61.0078 88.1699C56.3713 88.1699 52.6123 91.9177 52.6123 96.5405C52.6123 101.163 56.3713 104.911 61.0078 104.911Z" fill="#C4B8FF"/>
</g>
<defs>
<clipPath id="clip0_7278_28517">
<rect width="100" height="125" fill="white"/>
</clipPath>
</defs>
</svg>
