<svg width="320" height="94" viewBox="0 0 320 94" fill="none" xmlns="http://www.w3.org/2000/svg">
<g clip-path="url(#clip0_7286_55907)">
<path d="M149.664 44.9695C149.581 70.1286 132.299 76.452 111.916 76.3807C91.5342 76.3095 75.0336 69.4927 75.1155 44.709C75.1766 26.2516 91.7479 11.722 112.13 11.7932C132.512 11.8644 149.725 26.512 149.664 44.9695Z" fill="#6AD0DB"/>
<path d="M106.551 32.5704C106.544 31.0633 105.319 29.8477 103.817 29.8555C102.314 29.8632 101.102 31.0912 101.109 32.5983L101.147 40.2817C101.154 41.7888 102.378 43.0044 103.881 42.9966C105.383 42.9889 106.595 41.7609 106.588 40.2538L106.551 32.5704Z" fill="white"/>
<path d="M122.19 32.3643C122.183 30.9327 121.02 29.7779 119.593 29.7852C118.165 29.7926 117.014 30.9591 117.021 32.3909L117.059 40.3472C117.066 41.7789 118.229 42.9336 119.657 42.9264C121.084 42.919 122.236 41.7525 122.229 40.3207L122.19 32.3643Z" fill="white"/>
<path d="M243.76 44.9695C243.677 70.1286 226.394 76.452 206.012 76.3807C185.629 76.3095 169.129 69.4927 169.21 44.709C169.272 26.2516 185.844 11.722 206.226 11.7932C226.608 11.8644 243.82 26.512 243.76 44.9695Z" fill="#F2D151"/>
<path d="M200.645 32.5704C200.639 31.0633 199.415 29.8477 197.911 29.8555C196.409 29.8632 195.197 31.0912 195.204 32.5983L195.242 40.2817C195.248 41.7888 196.473 43.0044 197.976 42.9966C199.478 42.9889 200.691 41.7609 200.683 40.2538L200.645 32.5704Z" fill="white"/>
<path d="M216.285 32.3643C216.278 30.9327 215.116 29.7779 213.687 29.7852C212.26 29.7926 211.109 30.9591 211.115 32.3909L211.154 40.3472C211.161 41.7789 212.324 42.9336 213.752 42.9264C215.179 42.919 216.33 41.7525 216.324 40.3207L216.285 32.3643Z" fill="white"/>
<path d="M0 72.5156H320V94.0013H0V72.5156Z" fill="white"/>
<path d="M0 72.5156H320V94.0013H0V72.5156Z" fill="white"/>
<path d="M0 72.5147V73.8576H320V72.5147V71.1719H0V72.5147Z" fill="#E9E9E9"/>
<path d="M68.2845 83.2552C74.2003 83.2552 78.9958 78.4455 78.9958 72.5124C78.9958 66.5792 74.2003 61.7695 68.2845 61.7695C62.3688 61.7695 57.5732 66.5792 57.5732 72.5124C57.5732 78.4455 62.3688 83.2552 68.2845 83.2552Z" fill="#69D0DB"/>
<path d="M151.297 83.2552C157.213 83.2552 162.009 78.4455 162.009 72.5124C162.009 66.5792 157.213 61.7695 151.297 61.7695C145.382 61.7695 140.586 66.5792 140.586 72.5124C140.586 78.4455 145.382 83.2552 151.297 83.2552Z" fill="#69D0DB"/>
<path d="M254.393 83.2552C260.308 83.2552 265.104 78.4455 265.104 72.5124C265.104 66.5792 260.308 61.7695 254.393 61.7695C248.478 61.7695 243.682 66.5792 243.682 72.5124C243.682 78.4455 248.478 83.2552 254.393 83.2552Z" fill="#F1D151"/>
<path d="M166.025 83.2552C171.94 83.2552 176.736 78.4455 176.736 72.5124C176.736 66.5792 171.94 61.7695 166.025 61.7695C160.109 61.7695 155.313 66.5792 155.313 72.5124C155.313 78.4455 160.109 83.2552 166.025 83.2552Z" fill="#F1D151"/>
<path d="M224.103 1.70434C208.275 -3.47216 198.427 4.36872 195.481 8.93622C198.094 12.7428 225.64 19.7839 239.086 22.8286C240.687 17.9441 239.932 6.88084 224.103 1.70434Z" fill="#E36464"/>
<path d="M191.481 10.6815C191.969 9.13066 193.694 8.29474 195.333 8.81443C213.902 10.8678 223.242 13.821 237.964 22.341C239.603 22.8607 240.533 24.5393 240.044 26.0902L239.193 28.7892C238.704 30.34 236.98 31.176 235.342 30.6563C219.76 20.8732 210.524 17.5731 192.71 17.1297C191.071 16.61 190.14 14.9315 190.629 13.3806L191.481 10.6815Z" fill="#FF8BA8"/>
<path d="M234.497 22.381C234.548 22.0689 234.844 21.8561 235.16 21.9054C235.476 21.9546 235.692 22.2478 235.642 22.5597C235.542 23.1835 235.342 24.1318 235.064 24.9547C234.926 25.3635 234.759 25.7677 234.56 26.0902C234.385 26.3776 234.09 26.756 233.639 26.8453C233.326 26.9072 233.021 26.7062 232.958 26.3964C232.895 26.0866 233.098 25.7854 233.412 25.7234C233.346 25.7364 233.414 25.7506 233.57 25.4974C233.703 25.2793 233.839 24.966 233.966 24.5915C234.218 23.8475 234.405 22.965 234.497 22.381ZM227.548 18.567C227.599 18.2549 227.895 18.0421 228.211 18.0914C228.527 18.1408 228.743 18.4338 228.693 18.7457C228.593 19.3695 228.393 20.3178 228.115 21.1407C227.977 21.5495 227.81 21.9537 227.611 22.2763C227.436 22.5636 227.141 22.942 226.69 23.0313C226.377 23.0933 226.072 22.8922 226.009 22.5824C225.946 22.2726 226.149 21.9714 226.463 21.9094C226.397 21.9224 226.465 21.9366 226.621 21.6834C226.755 21.4653 226.89 21.152 227.017 20.7775C227.269 20.0335 227.456 19.151 227.548 18.567ZM216.381 14.5464C216.496 14.2517 216.831 14.1055 217.129 14.2196C217.428 14.3338 217.575 14.6651 217.46 14.9597L216.118 18.3804C216.003 18.6748 215.667 18.8212 215.37 18.7071C215.071 18.5929 214.924 18.2615 215.039 17.967L216.381 14.5464ZM205.594 11.542C205.734 11.2577 206.079 11.1386 206.367 11.2761C206.655 11.4138 206.775 11.756 206.637 12.0404C206.449 12.4254 206.192 13.0526 206.043 13.6628C205.968 13.968 205.924 14.2493 205.922 14.4838C205.921 14.6968 205.953 14.8258 205.987 14.8952L206.001 14.9214L206.03 14.9727C206.159 15.2331 206.071 15.553 205.815 15.7095C205.561 15.866 205.232 15.8037 205.052 15.5743L205.019 15.5262L204.981 15.4647C204.807 15.1544 204.762 14.7961 204.764 14.474C204.767 14.1215 204.83 13.7474 204.917 13.3935C205.09 12.6857 205.379 11.9809 205.594 11.542ZM196.312 11.0653C196.451 10.781 196.798 10.6618 197.086 10.7994C197.373 10.937 197.494 11.2793 197.355 11.5637C197.166 11.9486 196.91 12.5759 196.76 13.1861C196.685 13.4913 196.642 13.7726 196.64 14.0069C196.638 14.2201 196.671 14.3491 196.705 14.4185L196.719 14.4446L196.748 14.496C196.877 14.7564 196.788 15.0763 196.534 15.2327C196.28 15.3893 195.949 15.3268 195.769 15.0976L195.736 15.0495L195.7 14.988C195.526 14.6777 195.479 14.3193 195.482 13.9973C195.484 13.6448 195.547 13.2707 195.634 12.9168C195.808 12.209 196.096 11.5042 196.312 11.0653Z" fill="#B8667A"/>
<path d="M91.1901 16.8653C90.5922 17.2091 90.1717 17.5065 90.1879 17.6256C90.2419 18.022 90.6198 18.4238 91.1308 18.7252C91.5303 18.961 92.332 19.0058 93.18 19.0736C93.9494 19.1351 94.8374 18.8312 95.5197 18.5534C95.7206 18.4716 95.488 19.3754 95.6091 20.2306C95.703 20.8943 97.1686 21.0119 98.0535 21.143C98.5984 21.2237 99.2467 21.1369 99.8061 20.9915C100.662 20.7693 100.981 20.38 101.263 20.3378C102.616 20.135 102.153 21.7066 103.298 22.1959C103.856 22.4343 104.566 22.5216 105.66 22.5812C107.66 22.6904 109.515 22.2671 110.412 21.8562C110.938 21.6153 111.124 21.3852 111.309 21.2832C111.802 21.0111 112.152 22.1759 113.108 22.6231C113.915 23.0007 115.499 22.9279 117.413 22.8661C118.34 22.8363 119.008 22.5285 119.439 22.2761C120.136 21.8674 120.041 21.3801 120.038 21.3C120.033 21.1596 120.363 21.7487 121.031 22.0607C121.648 22.3493 122.518 22.3803 123.24 22.4045C123.894 22.4263 124.525 22.284 125.113 22.0584C126.237 21.6272 126.557 21.0092 126.914 20.3925C127.006 20.2339 126.968 20.0731 127.089 19.988C127.767 19.5129 130.712 19.8207 133.895 19.1296C135.169 18.8531 135.704 18.4481 135.882 18.1252C136.328 17.3145 136.038 15.396 136.348 14.0978C136.381 13.9686 136.248 13.8779 136.027 13.8049C135.491 13.6275 134.363 13.6512 133.541 13.5362C131.622 13.2681 135.047 11.8178 135.277 11.0925C135.323 10.9486 135.209 10.8555 135.082 10.7952C134.458 10.5 132.885 10.6431 132.064 10.6862C130.97 10.7436 131.96 9.43356 131.354 9.08659C130.856 8.80106 129.439 8.94105 128.156 9.03031C127.4 9.0829 126.823 9.27967 126.371 9.51365C126.383 9.47429 126.392 9.43431 126.4 9.3939C126.492 8.91809 126.34 8.47128 125.985 8.10178C124.927 7.00041 121.784 7.21819 119.653 7.28697C118.995 7.30822 118.595 7.73327 118.133 8.03732C117.299 8.58608 116.36 6.44433 114.837 6.01325C113.372 5.59861 111.51 6.05669 110.421 6.36216C108.701 6.84462 108.099 7.44155 107.537 7.44562C105.01 7.46391 103.252 6.74148 100.962 6.92721C99.9125 7.01233 98.9291 7.26404 98.09 7.49782C96.934 7.81987 96.8969 8.60186 96.7605 9.24436C96.6656 9.69139 93.0675 9.93639 91.1163 10.3217C90.6066 10.4223 90.4343 10.694 90.348 10.9347C90.2295 11.2649 90.4604 11.5528 90.5005 11.7736C90.6525 12.6092 87.3947 13.4308 86.3371 14.0117C86.1792 14.0983 86.1551 14.2391 86.1894 14.366C86.3468 14.9489 87.9423 15.3269 88.9538 15.5031C89.4211 15.5844 89.9572 15.4235 90.3018 15.3954C90.7027 15.3629 90.2959 16.1086 90.4376 16.6451C90.4909 16.8464 90.8176 16.8586 91.1324 16.8645C91.1514 16.8649 91.1707 16.8652 91.1901 16.8653Z" fill="#5EAAB2"/>
<path d="M87.4893 21.2829C86.7798 21.6303 86.2803 21.9302 86.2988 22.0492C86.3604 22.4455 86.8051 22.845 87.4081 23.1434C87.8796 23.3768 88.8284 23.4169 89.8315 23.4796C90.7418 23.5364 91.7943 23.2272 92.6036 22.9452C92.8418 22.8622 92.5611 23.7675 92.6993 24.6221C92.8066 25.2855 94.5406 25.3944 95.5871 25.5201C96.2315 25.5976 96.9992 25.5068 97.6621 25.3582C98.6761 25.1307 99.0567 24.7394 99.3898 24.6956C100.993 24.4845 100.435 26.0591 101.788 26.5418C102.446 26.7768 103.286 26.8599 104.581 26.913C106.948 27.0101 109.146 26.5755 110.209 26.1592C110.833 25.915 111.054 25.6839 111.274 25.5808C111.86 25.3058 112.266 26.4687 113.396 26.9102C114.349 27.283 116.223 27.2007 118.49 27.1275C119.587 27.0921 120.379 26.7801 120.89 26.525C121.718 26.112 121.608 25.6251 121.606 25.5451C121.601 25.4048 121.988 25.992 122.776 26.3C123.505 26.5849 124.534 26.6106 125.388 26.6305C126.162 26.6485 126.91 26.5024 127.607 26.2732C128.94 25.8351 129.323 25.2151 129.749 24.5961C129.858 24.4368 129.814 24.2764 129.959 24.1904C130.764 23.7113 134.247 24.0015 138.019 23.2911C139.528 23.0068 140.164 22.5986 140.377 22.2746C140.91 21.4611 140.578 19.5439 140.953 18.2434C140.99 18.1141 140.836 18.0243 140.575 17.9526C139.94 17.7784 138.606 17.8089 137.633 17.6988C135.364 17.442 139.426 15.971 139.702 15.2442C139.757 15.0999 139.623 15.0075 139.472 14.9479C138.737 14.6564 136.873 14.8091 135.902 14.857C134.608 14.9211 135.786 13.6048 135.072 13.2614C134.483 12.9788 132.805 13.1274 131.286 13.2244C130.392 13.2815 129.707 13.4818 129.172 13.7184C129.185 13.6791 129.197 13.639 129.206 13.5985C129.318 13.1221 129.14 12.6761 128.723 12.3087C127.477 11.2134 123.756 11.4502 121.233 11.5317C120.454 11.5569 119.978 11.9845 119.43 12.2914C118.439 12.8453 117.341 10.7087 115.542 10.2867C113.81 9.88077 111.604 10.3501 110.313 10.6622C108.274 11.1551 107.558 11.7558 106.892 11.7632C103.902 11.7967 101.826 11.0846 99.114 11.2842C97.8715 11.3756 96.7061 11.6333 95.7117 11.8721C94.3416 12.2012 94.2929 12.9836 94.1276 13.627C94.0126 14.0747 89.7528 14.3414 87.4411 14.7383C86.8373 14.8421 86.6318 15.115 86.5281 15.3562C86.3859 15.687 86.6575 15.9737 86.7037 16.1942C86.8785 17.0292 83.0178 17.8704 81.7627 18.4578C81.5754 18.5454 81.546 18.6864 81.5858 18.8132C81.7686 19.3952 83.6547 19.7637 84.8509 19.9337C85.4033 20.0122 86.0388 19.848 86.447 19.8179C86.9215 19.783 86.4356 20.5314 86.6002 21.0671C86.6619 21.2679 87.0486 21.2783 87.421 21.2823C87.4435 21.2826 87.4663 21.2827 87.4893 21.2829Z" fill="#5EA3AA"/>
</g>
<defs>
<clipPath id="clip0_7286_55907">
<rect width="320" height="94" fill="white"/>
</clipPath>
</defs>
</svg>
