<svg width="40" height="40" viewBox="0 0 40 40" fill="none" xmlns="http://www.w3.org/2000/svg">
<rect x="0.5" y="0.5" width="39" height="39" rx="7.5" fill="#F3F2FF"/>
<rect x="0.5" y="0.5" width="39" height="39" rx="7.5" stroke="#E9E8FF"/>
<path d="M9.5 16.6691V25.25C9.5 26.9069 10.8431 28.25 12.5 28.25H27.5C29.1569 28.25 30.5 26.9069 30.5 25.25V16.6691L21.5723 22.1631C20.6081 22.7564 19.3919 22.7564 18.4277 22.1631L9.5 16.6691Z" fill="#6744FF"/>
<path d="M30.5 14.9078V14.75C30.5 13.0931 29.1569 11.75 27.5 11.75H12.5C10.8431 11.75 9.5 13.0931 9.5 14.75V14.9078L19.2139 20.8856C19.696 21.1823 20.304 21.1823 20.7861 20.8856L30.5 14.9078Z" fill="#6744FF"/>
<path d="M37 27C37 30.866 33.866 34 30 34C26.134 34 23 30.866 23 27C23 23.134 26.134 20 30 20C33.866 20 37 23.134 37 27Z" fill="#6744FF"/>
<path d="M29 24C29 23.4477 29.4477 23 30 23C30.5523 23 31 23.4477 31 24V30C31 30.5523 30.5523 31 30 31C29.4477 31 29 30.5523 29 30V24Z" fill="#F3F2FF"/>
<path d="M27 28C26.4477 28 26 27.5523 26 27C26 26.4477 26.4477 26 27 26H33C33.5523 26 34 26.4477 34 27C34 27.5523 33.5523 28 33 28L27 28Z" fill="#F3F2FF"/>
</svg>
