<svg width="16" height="16" viewBox="0 0 16 16" fill="none" xmlns="http://www.w3.org/2000/svg">
<path fill-rule="evenodd" clip-rule="evenodd" d="M3.23224 1.84734C4.78868 1.61849 6.38075 1.5 8.00019 1.5C9.61948 1.5 11.2114 1.61846 12.7677 1.84727C14.0866 2.04118 15 3.1963 15 4.4937V8.5063C15 9.80371 14.0866 10.9588 12.7677 11.1527C12.0036 11.2651 11.2309 11.3508 10.4506 11.409C10.3676 11.4152 10.2954 11.4583 10.2527 11.5224L8.41603 14.2774C8.32329 14.4164 8.16718 14.5 8 14.5C7.83282 14.5 7.67671 14.4164 7.58397 14.2774L5.74728 11.5223C5.7046 11.4583 5.63235 11.4151 5.54939 11.409C4.76905 11.3508 3.99635 11.265 3.23224 11.1527C1.91336 10.9587 1 9.80362 1 8.50623V4.49376C1 3.19637 1.91336 2.04126 3.23224 1.84734ZM4.5 5.5C4.5 5.22386 4.72386 5 5 5H11C11.2761 5 11.5 5.22386 11.5 5.5C11.5 5.77614 11.2761 6 11 6H5C4.72386 6 4.5 5.77614 4.5 5.5ZM5 7C4.72386 7 4.5 7.22386 4.5 7.5C4.5 7.77614 4.72386 8 5 8H8C8.27614 8 8.5 7.77614 8.5 7.5C8.5 7.22386 8.27614 7 8 7H5Z" fill="white"/>
</svg>
