<svg width="40" height="40" viewBox="0 0 40 40" fill="none" xmlns="http://www.w3.org/2000/svg">
<rect x="0.5" y="0.5" width="39" height="39" rx="7.5" fill="#F3F2FF"/>
<rect x="0.5" y="0.5" width="39" height="39" rx="7.5" stroke="#E9E8FF"/>
<path fill-rule="evenodd" clip-rule="evenodd" d="M11.7915 10.9382C14.4607 10.4856 17.2031 10.25 20.0001 10.25C22.7969 10.25 25.5394 10.4856 28.2085 10.9382C29.1108 11.0912 29.75 11.8768 29.75 12.774V13.818C29.75 14.6137 29.4339 15.3767 28.8713 15.9393L22.6893 22.1213C22.408 22.4026 22.25 22.7842 22.25 23.182V26.1094C22.25 27.2457 21.608 28.2845 20.5916 28.7927L18.8354 29.6708C18.6029 29.7871 18.3268 29.7746 18.1057 29.638C17.8846 29.5013 17.75 29.2599 17.75 29V23.182C17.75 22.7842 17.592 22.4026 17.3107 22.1213L11.1287 15.9393C10.5661 15.3767 10.25 14.6137 10.25 13.818V12.774C10.25 11.8768 10.8892 11.0913 11.7915 10.9382Z" fill="#6744FF"/>
</svg>
