<svg width="13" height="13" viewBox="0 0 13 13" fill="none" xmlns="http://www.w3.org/2000/svg">
<path d="M4.75 0C3.23122 0 2 1.23122 2 2.75C2 4.26878 3.23122 5.5 4.75 5.5C6.26878 5.5 7.5 4.26878 7.5 2.75C7.5 1.23122 6.26878 0 4.75 0Z" fill="#EF4444"/>
<path d="M4.75 6.5C2.12665 6.5 0 8.62665 0 11.25C0 11.2772 0.000229836 11.3043 0.000684261 11.3313C0.00358194 11.5036 0.0950418 11.6623 0.242707 11.7512C1.55953 12.5441 3.10229 13 4.75 13C6.39771 13 7.94047 12.5441 9.25729 11.7512C9.40496 11.6623 9.49642 11.5036 9.49932 11.3313C9.49976 11.3049 9.49999 11.2782 9.5 11.2517V11.25C9.5 8.62665 7.37335 6.5 4.75 6.5Z" fill="#EF4444"/>
<path d="M8.5 5C8.22386 5 8 5.22386 8 5.5C8 5.77614 8.22386 6 8.5 6H12.5C12.7761 6 13 5.77614 13 5.5C13 5.22386 12.7761 5 12.5 5H8.5Z" fill="#EF4444"/>
</svg>
