<svg width="358" height="139" viewBox="0 0 358 139" fill="none" xmlns="http://www.w3.org/2000/svg">
<g clip-path="url(#clip0_6485_36610)">
<path opacity="0.35" d="M74.4952 138.85C100.559 138.85 121.687 136.215 121.687 132.965C121.687 129.716 100.559 127.081 74.4952 127.081C48.4318 127.081 27.3032 129.716 27.3032 132.965C27.3032 136.215 48.4318 138.85 74.4952 138.85Z" fill="#464A60"/>
<path opacity="0.35" d="M291.037 138.85C317.099 138.85 338.229 136.215 338.229 132.965C338.229 129.716 317.099 127.081 291.037 127.081C264.974 127.081 243.845 129.716 243.845 132.965C243.845 136.215 264.974 138.85 291.037 138.85Z" fill="#464A60"/>
<path d="M118.071 81.8658C75.2141 98.9027 45.4043 88.1983 30.9777 79.8569C26.0053 85.0923 22.4663 91.5321 21.4161 99.1871C18.871 133.653 29.0514 137.139 73.1219 137.005C117.192 136.871 128.043 136.2 125.899 99.1871C125.187 92.5246 122.296 86.7418 118.071 81.8658Z" fill="#4879BA"/>
<path d="M118.072 81.8656C107.155 69.2621 87.3188 62.707 73.1198 62.707C59.6038 62.707 41.8606 68.3931 30.9756 79.8538C45.4048 88.198 75.2148 98.9025 118.072 81.8656Z" fill="#4879BA"/>
<path d="M73.1197 61.314C80.4134 61.314 89.096 62.993 97.34 66.265C105.581 69.5359 113.48 74.4368 119.125 80.9533L120.408 82.4354L118.586 83.1598C75.2676 100.38 45.0111 89.5791 30.2782 81.0594L28.7485 80.1752L29.9654 78.8944C41.1681 67.0992 59.3094 61.314 73.1197 61.314ZM73.1197 64.1C60.4144 64.1 43.902 69.26 33.2547 79.5358C47.6992 87.4191 75.8001 96.5322 115.672 81.305C110.511 75.9322 103.613 71.752 96.3122 68.8544C88.3595 65.698 80.0249 64.1 73.1197 64.1Z" fill="white"/>
<path d="M147.696 84.9497C152.57 84.9497 156.522 80.9981 156.522 76.1233C156.522 71.2485 152.57 67.2969 147.696 67.2969C142.821 67.2969 138.869 71.2485 138.869 76.1233C138.869 80.9981 142.821 84.9497 147.696 84.9497Z" fill="#F88B27"/>
<path d="M8.82643 94.3643C13.7011 94.3643 17.6529 90.4126 17.6529 85.5379C17.6529 80.6631 13.7011 76.7114 8.82643 76.7114C3.95172 76.7114 0 80.6631 0 85.5379C0 90.4126 3.95172 94.3643 8.82643 94.3643Z" fill="#F88B27"/>
<path d="M40.3595 83.6256C40.3597 83.6271 40.3593 83.6289 40.3595 83.631C40.36 83.6354 40.3608 83.6415 40.3615 83.6487C40.363 83.6631 40.3653 83.6828 40.3677 83.7079C40.3724 83.7584 40.3787 83.8304 40.386 83.9222C40.4006 84.1057 40.4185 84.3692 40.4336 84.7003C40.4639 85.3619 40.4827 86.2976 40.4384 87.4094C40.3502 89.6217 40.01 92.588 38.9774 95.4967C37.9436 98.4085 36.1855 101.344 33.2122 103.355C30.2202 105.38 26.1652 106.356 20.7671 105.648L21.1289 102.886C26.0023 103.525 29.3368 102.614 31.6506 101.048C33.983 99.4701 35.4472 97.1127 36.3519 94.5642C37.2577 92.0126 37.5727 89.35 37.6544 87.2985C37.6951 86.2787 37.6776 85.4235 37.6504 84.8275C37.6368 84.5298 37.6212 84.2974 37.6089 84.1425C37.6027 84.0651 37.5974 84.0069 37.5939 83.9698C37.5922 83.9514 37.5906 83.9382 37.5898 83.9303L37.5892 83.9222C37.5923 83.9222 37.6568 83.9155 38.974 83.7725C40.2985 83.6287 40.3562 83.6231 40.3588 83.6236C40.3589 83.6239 40.3594 83.6249 40.3595 83.6256Z" fill="white"/>
<path d="M110.474 85.1848L111.861 85.3107C111.861 85.3107 111.861 85.3113 111.861 85.312C111.861 85.3136 111.861 85.3166 111.861 85.3209C111.86 85.3296 111.859 85.344 111.857 85.3637C111.854 85.4033 111.85 85.4647 111.844 85.546C111.833 85.7089 111.819 85.9525 111.807 86.2636C111.783 86.8862 111.768 87.778 111.803 88.8414C111.875 90.9796 112.151 93.7607 112.948 96.4281C113.748 99.1064 115.035 101.545 117.04 103.157C118.997 104.731 121.801 105.648 125.945 105.002L126.373 107.755C121.579 108.502 117.953 107.467 115.294 105.328C112.682 103.228 111.165 100.193 110.278 97.2253C109.388 94.246 109.095 91.2056 109.019 88.9346C108.981 87.7937 108.997 86.834 109.023 86.1561C109.036 85.817 109.052 85.5473 109.064 85.3603C109.071 85.267 109.076 85.1942 109.08 85.1433C109.082 85.1179 109.084 85.0977 109.085 85.0835C109.085 85.0764 109.086 85.0707 109.086 85.0665C109.086 85.0644 109.087 85.0624 109.087 85.061V85.0597C109.087 85.059 109.087 85.0581 110.474 85.1848Z" fill="white"/>
<path d="M154.027 83.2306L144.312 80.3456C143.416 80.079 142.91 79.1476 143.178 78.2668L149.613 57.1879C149.883 56.3046 150.828 55.8056 151.721 56.0697L161.436 58.9544C162.332 59.2213 162.838 60.1527 162.57 61.0332L156.135 82.1124C155.864 82.9957 154.92 83.4973 154.027 83.2306Z" fill="#B7CFE9"/>
<path d="M154.885 60.2078L151.082 59.0585C150.752 58.9592 150.565 58.6092 150.664 58.2785L150.791 57.8567C150.89 57.526 151.239 57.3384 151.568 57.4377L155.372 58.587C155.702 58.6864 155.888 59.0364 155.79 59.3671L155.663 59.7888C155.564 60.1224 155.215 60.3097 154.885 60.2078Z" fill="#4D5562"/>
<path d="M154.888 59.2248C154.928 59.056 154.828 58.8889 154.667 58.8517C154.505 58.8143 154.343 58.9211 154.304 59.0899C154.265 59.2589 154.364 59.426 154.526 59.4632C154.687 59.5004 154.85 59.3938 154.888 59.2248Z" fill="#CDDDE0"/>
<path d="M112.728 50.2006L111.501 35.1723C111.314 32.8556 109.396 31.0929 107.115 31.0392C105.702 28.4819 103.193 24.5978 99.3893 20.8902C93.5384 15.1897 83.4249 8.90867 68.4584 11.3483C53.5643 13.7773 45.5351 21.7596 41.4227 28.03C36.964 34.8273 36.0466 40.9985 36.0117 41.2581L38.6676 41.6352C38.6757 41.5763 39.5635 35.7073 43.7324 29.3996C49.2881 20.9918 57.7546 15.8076 68.8929 13.9913C79.9857 12.1829 89.5924 15.1281 97.4472 22.7413C100.535 25.7346 102.735 28.902 104.138 31.2586L103.867 31.28C101.383 31.4808 99.5342 33.6528 99.7355 36.1298L100.961 51.1583C101.163 53.6353 103.341 55.4785 105.825 55.278L108.596 55.0532C111.08 54.8473 112.931 52.675 112.728 50.2006Z" fill="#895623"/>
<path d="M110.165 44.5571C112.29 68.5972 95.8996 76.1983 75.9085 77.9685C55.9172 79.7388 39.1383 74.7152 37.0461 51.0345C35.4868 33.3967 50.4627 18.0228 70.4538 16.2526C90.4451 14.4797 108.606 26.9195 110.165 44.5571Z" fill="#F88B27"/>
<path fill-rule="evenodd" clip-rule="evenodd" d="M89.5812 44.1539C88.839 44.5319 88.3494 45.2419 87.8135 46.0263C87.4835 46.5093 86.8244 46.6333 86.3414 46.3033C85.8584 45.9734 85.7344 45.3143 86.0643 44.8313C86.0881 44.7965 86.1127 44.7603 86.1381 44.723C86.6168 44.0187 87.3782 42.8986 88.62 42.2662C90.0227 41.5519 91.8012 41.5507 94.0805 42.657C94.6068 42.9124 94.8263 43.5461 94.5709 44.0723C94.3155 44.5986 93.6818 44.8181 93.1556 44.5627C91.2848 43.6547 90.2283 43.8244 89.5812 44.1539ZM72.9861 46.178C72.1915 46.4429 71.5916 47.083 70.9355 47.7898C70.5375 48.2184 69.8673 48.2433 69.4386 47.8453C69.0099 47.4473 68.9851 46.7771 69.3831 46.3484C69.4123 46.317 69.4424 46.2844 69.4735 46.2507C70.0588 45.6173 70.9888 44.6108 72.3162 44.1684C73.8215 43.6666 75.585 43.945 77.6615 45.4158C78.1389 45.7539 78.2517 46.415 77.9136 46.8923C77.5755 47.3697 76.9144 47.4825 76.4371 47.1444C74.7377 45.9407 73.6733 45.949 72.9861 46.178Z" fill="white"/>
<path d="M41.0695 62.8202L38.3147 63.0449C35.8452 63.2455 33.6824 61.403 33.4797 58.9269L32.261 43.9041C32.0611 41.428 33.8984 39.2592 36.368 39.0561L39.1228 38.8313C41.592 38.6308 43.7549 40.4733 43.9575 42.9494L45.1763 57.9722C45.3789 60.4483 43.5388 62.6196 41.0695 62.8202Z" fill="#895623"/>
<path d="M241.364 101.262C244.527 78.2207 271.619 66.8262 290.227 66.8262C308.838 66.8262 337.699 78.7256 340.107 101.262C342.131 136.204 331.878 136.838 290.227 136.964C248.58 137.091 238.958 133.799 241.364 101.262Z" fill="#F4DA00"/>
<path d="M213.835 79.3008C218.71 79.3008 222.661 75.3492 222.661 70.4744C222.661 65.5996 218.71 61.6479 213.835 61.6479C208.96 61.6479 205.008 65.5996 205.008 70.4744C205.008 75.3492 208.96 79.3008 213.835 79.3008Z" fill="#EC4699"/>
<path d="M349.174 92.0108C354.048 92.0108 358 88.0064 358 83.0667C358 78.1269 354.048 74.1226 349.174 74.1226C344.299 74.1226 340.347 78.1269 340.347 83.0667C340.347 88.0064 344.299 92.0108 349.174 92.0108Z" fill="#EC4699"/>
<path d="M207.504 77.5809L217.219 74.6713C218.115 74.4022 218.621 73.4629 218.353 72.5746L211.917 51.3137C211.647 50.4228 210.702 49.9196 209.809 50.186L200.094 53.0957C199.198 53.3647 198.692 54.3041 198.96 55.1924L205.396 76.453C205.666 77.3441 206.611 77.85 207.504 77.5809Z" fill="#E4CEF0"/>
<path d="M262.496 72.9291C262.496 69.4633 266.758 66.9578 270.068 67.9908C277.249 70.2334 289.629 72.0441 307.6 67.75C310.347 67.0938 313.068 69.1213 313.068 71.9446V76.8725C313.068 78.5931 312.032 80.1331 310.391 80.6488C303.516 82.8088 284.406 87.372 264.925 79.1081C263.425 78.4719 262.496 76.9738 262.496 75.3445V72.9291Z" fill="#FEF4D4"/>
<path d="M206.646 54.3271L210.449 53.2729C210.779 53.182 210.966 52.861 210.867 52.5576L210.74 52.1709C210.641 51.8675 210.292 51.6956 209.962 51.7865L206.159 52.8407C205.829 52.9316 205.642 53.2526 205.741 53.556L205.868 53.9427C205.967 54.2461 206.316 54.418 206.646 54.3271Z" fill="#4D5562"/>
<path d="M207.007 53.7007C207.168 53.6635 207.267 53.4964 207.229 53.3274C207.19 53.1584 207.027 53.0518 206.866 53.0889C206.704 53.1264 206.605 53.2935 206.644 53.4622C206.683 53.6312 206.845 53.7379 207.007 53.7007Z" fill="#CDDDE0"/>
<path d="M251.365 45.3693C249.24 69.4092 265.631 77.0103 285.623 78.7805C305.614 80.5507 322.393 75.5272 324.486 51.8465C326.044 34.2089 311.067 18.8348 291.077 17.0646C271.087 15.2917 252.921 27.7315 251.365 45.3693Z" fill="#EC4699"/>
<path fill-rule="evenodd" clip-rule="evenodd" d="M329.266 23.6353C330.812 23.6407 331.845 25.2326 331.215 26.6481L323.52 43.9025C322.828 45.4543 320.689 45.6202 319.764 44.1941L311.145 30.8859C311.133 30.8808 311.126 30.8779 311.114 30.8728L306.011 28.6654L292.369 31.8091C290.712 32.1918 289.293 30.5837 289.876 28.9891L296.968 9.62356C297.552 8.02897 299.675 7.71593 300.696 9.0751L311.192 23.0761L312.368 23.5845L329.266 23.6353Z" fill="#A00F2C"/>
<path d="M339.876 115.928C336.085 118.498 334.847 125.427 332.18 125.642C328.468 125.942 329.791 117.914 321.734 117.666C313.677 117.419 315.873 125.095 310.502 125.59C305.131 126.085 307.817 114.942 300.668 115.574C293.52 116.205 294.876 124.6 289.081 124.884C283.284 125.169 285.597 115.19 280.471 115.586C275.345 115.982 272.902 126.333 269.729 125.838C266.554 125.342 267.288 115.685 262.02 115.576C256.755 115.467 258.01 125.342 253.126 125.342C248.244 125.342 252.394 115.19 246.06 115.586C244.516 115.683 243.052 116.492 241.727 117.659C244.412 134.985 257.252 137.065 290.241 136.963C324.792 136.857 337.678 136.394 339.876 115.928Z" fill="#FEF4D4"/>
<path d="M70.1784 116.367H64.3262L61.7051 114.853V111.622H64.8685V113.656H69.6362V109.43H65.6819V106.719H69.6362V103.036H64.8685V105.069H61.7051V101.838L64.3262 100.324H70.1784L72.7995 101.838V106.922L70.8337 108.052V108.097L72.7995 109.227V114.853L70.1784 116.367ZM81.0048 116.254H77.6833L83.7615 103.194V103.149H78.6775V105.182H75.5141V100.437H87.3768V102.471L81.0048 116.254Z" fill="white"/>
<path d="M151.798 40.2516C152.738 39.033 154.488 38.8068 155.706 39.7462L163.359 45.6467C164.578 46.5862 164.804 48.3358 163.865 49.5543C162.925 50.7729 161.176 50.9992 159.957 50.0597L152.304 44.1592C151.085 43.2197 150.859 41.4701 151.798 40.2516Z" fill="#FCEE21"/>
<path d="M175.924 26.2389C177.451 26.0533 178.84 27.1411 179.025 28.6685L179.86 35.5314C180.046 37.0587 178.958 38.4473 177.43 38.633C175.903 38.8187 174.515 37.7308 174.329 36.2034L173.494 29.3405C173.309 27.8131 174.396 26.4246 175.924 26.2389Z" fill="#FCEE21"/>
<path d="M197.778 30.7594C198.497 29.3992 200.183 28.8794 201.543 29.5983C202.903 30.3174 203.423 32.0028 202.704 33.3631L198.326 41.6442C197.607 43.0044 195.922 43.5242 194.562 42.8053C193.201 42.0862 192.682 40.4001 193.401 39.0398L197.778 30.7594Z" fill="#FCEE21"/>
<path d="M200.84 92.9961C201.959 91.9399 203.722 91.9904 204.778 93.109L211.413 100.136C212.469 101.255 212.418 103.019 211.299 104.075C210.18 105.131 208.417 105.08 207.361 103.961L200.727 96.9343C199.671 95.8155 199.721 94.0524 200.84 92.9961Z" fill="#FCEE21"/>
<path d="M185.73 101.655C187.267 101.711 188.468 103.003 188.412 104.54L188.161 111.45C188.104 112.987 186.813 114.188 185.275 114.132C183.738 114.076 182.537 112.784 182.593 111.246L182.844 104.338C182.9 102.8 184.192 101.599 185.73 101.655Z" fill="#FCEE21"/>
<path d="M165.564 95.4066C166.488 94.1758 168.233 93.9267 169.464 94.8502C170.695 95.7736 170.944 97.5196 170.021 98.7503L164.399 106.243C163.476 107.474 161.729 107.723 160.499 106.799C159.268 105.876 159.019 104.129 159.942 102.899L165.564 95.4066Z" fill="#FCEE21"/>
<path fill-rule="evenodd" clip-rule="evenodd" d="M270.085 46.9394C269.257 47.0629 268.555 47.5896 267.786 48.172C267.32 48.5254 266.656 48.4339 266.303 47.9677C265.949 47.5015 266.041 46.8372 266.507 46.4838C266.541 46.458 266.576 46.4311 266.613 46.4034C267.299 45.8809 268.389 45.0504 269.773 44.8442C271.342 44.6104 273.031 45.1894 274.822 46.9974C275.233 47.413 275.23 48.0836 274.814 48.4952C274.399 48.9069 273.728 48.9036 273.316 48.4879C271.851 47.0086 270.802 46.8327 270.085 46.9394ZM286.78 47.8161C285.984 48.06 285.379 48.6745 284.715 49.3546C284.306 49.7732 283.636 49.7812 283.217 49.3726C282.798 48.9639 282.79 48.2934 283.199 47.8748C283.229 47.8444 283.259 47.8129 283.291 47.7804C283.884 47.1696 284.828 46.1985 286.16 45.7906C287.665 45.3297 289.417 45.6361 291.471 47.1199C291.945 47.4625 292.052 48.1245 291.709 48.5987C291.367 49.0729 290.705 49.1796 290.231 48.8371C288.545 47.6191 287.475 47.6035 286.78 47.8161Z" fill="white"/>
<path d="M131.102 10.8075C131.102 4.9579 135.844 0.21582 141.694 0.21582H229.252C235.102 0.21582 239.844 4.9579 239.844 10.8075C239.844 16.6572 235.102 21.3993 229.252 21.3993H141.694C135.844 21.3993 131.102 16.6572 131.102 10.8075Z" fill="#9685FF"/>
<path d="M145.022 9.16949V11.2031C145.022 11.4259 145.08 11.5969 145.196 11.7162C145.312 11.8323 145.475 11.8904 145.686 11.8904C145.899 11.8904 146.064 11.8323 146.18 11.7162C146.296 11.5969 146.354 11.4259 146.354 11.2031V9.16949H147.018V11.1984C147.018 11.4777 146.957 11.7146 146.834 11.9092C146.715 12.1006 146.553 12.245 146.349 12.3423C146.149 12.4396 145.924 12.4882 145.676 12.4882C145.431 12.4882 145.208 12.4396 145.008 12.3423C144.81 12.245 144.653 12.1006 144.537 11.9092C144.421 11.7146 144.363 11.4777 144.363 11.1984V9.16949H145.022ZM149.005 9.8097C149.316 9.8097 149.567 9.90855 149.759 10.1063C149.95 10.3008 150.046 10.5739 150.046 10.9254V12.4553H149.387V11.0148C149.387 10.8077 149.335 10.6492 149.231 10.5393C149.128 10.4264 148.987 10.3699 148.808 10.3699C148.626 10.3699 148.482 10.4264 148.375 10.5393C148.271 10.6492 148.219 10.8077 148.219 11.0148V12.4553H147.56V9.84736H148.219V10.1722C148.307 10.0592 148.419 9.97133 148.554 9.90855C148.692 9.84265 148.842 9.8097 149.005 9.8097ZM150.913 9.53667C150.797 9.53667 150.699 9.50058 150.621 9.4284C150.546 9.35308 150.508 9.26051 150.508 9.15066C150.508 9.04081 150.546 8.94982 150.621 8.87763C150.699 8.80231 150.797 8.76465 150.913 8.76465C151.029 8.76465 151.125 8.80231 151.2 8.87763C151.278 8.94982 151.318 9.04081 151.318 9.15066C151.318 9.26051 151.278 9.35308 151.2 9.4284C151.125 9.50058 151.029 9.53667 150.913 9.53667ZM151.238 9.84736V12.4553H150.578V9.84736H151.238ZM152.453 10.2287C152.538 10.1031 152.654 10.0011 152.802 9.92268C152.952 9.84423 153.124 9.80499 153.315 9.80499C153.538 9.80499 153.739 9.8599 153.917 9.96975C154.1 10.0796 154.242 10.2365 154.346 10.4405C154.453 10.6413 154.506 10.8752 154.506 11.1419C154.506 11.4086 154.453 11.6456 154.346 11.8527C154.242 12.0567 154.1 12.2152 153.917 12.3282C153.739 12.4412 153.538 12.4976 153.315 12.4976C153.12 12.4976 152.949 12.46 152.802 12.3847C152.658 12.3062 152.541 12.2058 152.453 12.0834V12.4553H151.794V8.97178H152.453V10.2287ZM153.833 11.1419C153.833 10.985 153.8 10.85 153.734 10.7371C153.671 10.621 153.587 10.5331 153.48 10.4734C153.376 10.4138 153.263 10.384 153.141 10.384C153.022 10.384 152.909 10.4154 152.802 10.4782C152.698 10.5378 152.614 10.6257 152.548 10.7418C152.485 10.8579 152.453 10.9944 152.453 11.1513C152.453 11.3082 152.485 11.4448 152.548 11.5609C152.614 11.677 152.698 11.7664 152.802 11.8292C152.909 11.8888 153.022 11.9186 153.141 11.9186C153.263 11.9186 153.376 11.8873 153.48 11.8245C153.587 11.7617 153.671 11.6723 153.734 11.5562C153.8 11.44 153.833 11.302 153.833 11.1419ZM157.353 9.84736V12.4553H156.689V12.1258C156.604 12.2387 156.493 12.3282 156.355 12.3941C156.22 12.4569 156.072 12.4882 155.912 12.4882C155.708 12.4882 155.528 12.4459 155.371 12.3611C155.214 12.2733 155.09 12.1462 154.999 11.9798C154.911 11.8104 154.867 11.6095 154.867 11.3773V9.84736H155.526V11.2831C155.526 11.4903 155.578 11.6503 155.682 11.7633C155.785 11.8731 155.926 11.928 156.105 11.928C156.287 11.928 156.43 11.8731 156.534 11.7633C156.637 11.6503 156.689 11.4903 156.689 11.2831V9.84736H157.353ZM158.511 11.9139H159.674V12.4553H157.763V11.9233L158.902 10.3887H157.768V9.84736H159.66V10.3793L158.511 11.9139ZM160.693 11.9139H161.856V12.4553H159.944V11.9233L161.084 10.3887H159.949V9.84736H161.841V10.3793L160.693 11.9139ZM163.139 10.8077C163.139 10.4844 163.211 10.1957 163.356 9.94151C163.503 9.68417 163.703 9.48488 163.953 9.34366C164.208 9.19931 164.492 9.12712 164.806 9.12712C165.173 9.12712 165.494 9.22127 165.771 9.40957C166.047 9.59786 166.24 9.85835 166.35 10.191H165.592C165.516 10.0341 165.41 9.91639 165.272 9.83794C165.137 9.75949 164.98 9.72026 164.801 9.72026C164.609 9.72026 164.438 9.76575 164.288 9.85677C164.14 9.94464 164.024 10.0702 163.939 10.2334C163.858 10.3965 163.817 10.588 163.817 10.8077C163.817 11.0242 163.858 11.2156 163.939 11.382C164.024 11.5452 164.14 11.6723 164.288 11.7633C164.438 11.8511 164.609 11.8951 164.801 11.8951C164.98 11.8951 165.137 11.8559 165.272 11.7774C165.41 11.6958 165.516 11.5766 165.592 11.4196H166.35C166.24 11.7554 166.047 12.0175 165.771 12.2058C165.498 12.3909 165.176 12.4835 164.806 12.4835C164.492 12.4835 164.208 12.4129 163.953 12.2717C163.703 12.1273 163.503 11.928 163.356 11.6738C163.211 11.4196 163.139 11.1309 163.139 10.8077ZM167.976 12.4976C167.725 12.4976 167.499 12.4427 167.299 12.3329C167.098 12.2199 166.939 12.0614 166.823 11.8574C166.71 11.6534 166.654 11.4181 166.654 11.1513C166.654 10.8846 166.712 10.6492 166.828 10.4452C166.947 10.2412 167.109 10.0843 167.313 9.97446C167.517 9.86148 167.744 9.80499 167.995 9.80499C168.246 9.80499 168.474 9.86148 168.678 9.97446C168.882 10.0843 169.042 10.2412 169.158 10.4452C169.277 10.6492 169.337 10.8846 169.337 11.1513C169.337 11.4181 169.276 11.6534 169.153 11.8574C169.034 12.0614 168.871 12.2199 168.664 12.3329C168.46 12.4427 168.231 12.4976 167.976 12.4976ZM167.976 11.9233C168.096 11.9233 168.207 11.8951 168.311 11.8386C168.417 11.779 168.502 11.6911 168.565 11.575C168.628 11.4589 168.659 11.3177 168.659 11.1513C168.659 10.9034 168.593 10.7135 168.461 10.5817C168.333 10.4468 168.174 10.3793 167.986 10.3793C167.798 10.3793 167.639 10.4468 167.51 10.5817C167.385 10.7135 167.322 10.9034 167.322 11.1513C167.322 11.3992 167.383 11.5907 167.506 11.7256C167.631 11.8574 167.788 11.9233 167.976 11.9233ZM170.385 8.97178V12.4553H169.726V8.97178H170.385ZM171.601 8.97178V12.4553H170.942V8.97178H171.601ZM174.583 11.0948C174.583 11.189 174.576 11.2737 174.564 11.349H172.657C172.673 11.5373 172.739 11.6848 172.855 11.7915C172.971 11.8982 173.114 11.9516 173.283 11.9516C173.528 11.9516 173.702 11.8464 173.806 11.6362H174.517C174.441 11.8873 174.297 12.0944 174.084 12.2576C173.87 12.4176 173.608 12.4976 173.297 12.4976C173.046 12.4976 172.82 12.4427 172.62 12.3329C172.422 12.2199 172.267 12.0614 172.154 11.8574C172.044 11.6534 171.989 11.4181 171.989 11.1513C171.989 10.8814 172.044 10.6445 172.154 10.4405C172.263 10.2365 172.417 10.0796 172.615 9.96975C172.813 9.8599 173.04 9.80499 173.297 9.80499C173.545 9.80499 173.767 9.85835 173.961 9.96504C174.159 10.0717 174.311 10.224 174.418 10.4217C174.528 10.6162 174.583 10.8406 174.583 11.0948ZM173.9 10.9065C173.897 10.7371 173.836 10.6021 173.716 10.5017C173.597 10.3981 173.451 10.3463 173.279 10.3463C173.115 10.3463 172.977 10.3965 172.864 10.497C172.754 10.5943 172.687 10.7308 172.662 10.9065H173.9ZM175.991 9.80499C176.185 9.80499 176.357 9.84423 176.504 9.92268C176.652 9.998 176.768 10.0969 176.852 10.2192V9.84736H177.516V12.4741C177.516 12.7158 177.468 12.9307 177.37 13.119C177.273 13.3104 177.127 13.4611 176.932 13.5709C176.738 13.6839 176.503 13.7404 176.226 13.7404C175.856 13.7404 175.552 13.6541 175.313 13.4815C175.078 13.3089 174.944 13.0735 174.913 12.7754H175.567C175.602 12.8946 175.675 12.9888 175.788 13.0578C175.905 13.13 176.044 13.1661 176.207 13.1661C176.399 13.1661 176.554 13.108 176.673 12.9919C176.793 12.8789 176.852 12.7063 176.852 12.4741V12.0693C176.768 12.1917 176.65 12.2936 176.499 12.3752C176.352 12.4569 176.182 12.4976 175.991 12.4976C175.771 12.4976 175.57 12.4412 175.388 12.3282C175.206 12.2152 175.062 12.0567 174.955 11.8527C174.852 11.6456 174.8 11.4086 174.8 11.1419C174.8 10.8783 174.852 10.6445 174.955 10.4405C175.062 10.2365 175.205 10.0796 175.384 9.96975C175.566 9.8599 175.768 9.80499 175.991 9.80499ZM176.852 11.1513C176.852 10.9913 176.821 10.8547 176.758 10.7418C176.696 10.6257 176.611 10.5378 176.504 10.4782C176.397 10.4154 176.283 10.384 176.16 10.384C176.038 10.384 175.925 10.4138 175.821 10.4734C175.718 10.5331 175.633 10.621 175.567 10.7371C175.505 10.85 175.473 10.985 175.473 11.1419C175.473 11.2988 175.505 11.4369 175.567 11.5562C175.633 11.6723 175.718 11.7617 175.821 11.8245C175.928 11.8873 176.041 11.9186 176.16 11.9186C176.283 11.9186 176.397 11.8888 176.504 11.8292C176.611 11.7664 176.696 11.6785 176.758 11.5656C176.821 11.4495 176.852 11.3114 176.852 11.1513ZM180.49 11.0948C180.49 11.189 180.484 11.2737 180.471 11.349H178.565C178.58 11.5373 178.646 11.6848 178.762 11.7915C178.878 11.8982 179.021 11.9516 179.191 11.9516C179.435 11.9516 179.61 11.8464 179.713 11.6362H180.424C180.349 11.8873 180.204 12.0944 179.991 12.2576C179.777 12.4176 179.516 12.4976 179.205 12.4976C178.954 12.4976 178.728 12.4427 178.527 12.3329C178.329 12.2199 178.174 12.0614 178.061 11.8574C177.951 11.6534 177.896 11.4181 177.896 11.1513C177.896 10.8814 177.951 10.6445 178.061 10.4405C178.171 10.2365 178.325 10.0796 178.522 9.96975C178.72 9.8599 178.948 9.80499 179.205 9.80499C179.453 9.80499 179.674 9.85835 179.869 9.96504C180.066 10.0717 180.219 10.224 180.325 10.4217C180.435 10.6162 180.49 10.8406 180.49 11.0948ZM179.807 10.9065C179.804 10.7371 179.743 10.6021 179.624 10.5017C179.504 10.3981 179.359 10.3463 179.186 10.3463C179.023 10.3463 178.885 10.3965 178.772 10.497C178.662 10.5943 178.595 10.7308 178.569 10.9065H179.807ZM183.039 12.4882C182.81 12.4882 182.603 12.449 182.417 12.3705C182.235 12.2921 182.091 12.1791 181.984 12.0316C181.878 11.8841 181.823 11.7099 181.82 11.5091H182.526C182.535 11.644 182.582 11.7507 182.667 11.8292C182.755 11.9076 182.874 11.9469 183.025 11.9469C183.179 11.9469 183.299 11.9108 183.387 11.8386C183.475 11.7633 183.519 11.666 183.519 11.5467C183.519 11.4495 183.489 11.3694 183.43 11.3067C183.37 11.2439 183.295 11.1953 183.204 11.1607C183.116 11.1231 182.993 11.0823 182.836 11.0383C182.623 10.9756 182.449 10.9144 182.314 10.8547C182.182 10.792 182.068 10.6994 181.97 10.577C181.876 10.4515 181.829 10.2851 181.829 10.078C181.829 9.88344 181.878 9.71397 181.975 9.56962C182.072 9.42527 182.209 9.31542 182.384 9.2401C182.56 9.16165 182.761 9.12241 182.987 9.12241C183.326 9.12241 183.601 9.20557 183.811 9.37191C184.024 9.53509 184.142 9.7642 184.164 10.0592H183.439C183.433 9.94621 183.384 9.85364 183.293 9.78145C183.205 9.70613 183.088 9.66847 182.94 9.66847C182.811 9.66847 182.708 9.70143 182.629 9.76733C182.554 9.83324 182.516 9.92896 182.516 10.0545C182.516 10.1423 182.545 10.2161 182.601 10.2757C182.661 10.3322 182.733 10.3793 182.818 10.417C182.906 10.4515 183.028 10.4923 183.185 10.5393C183.398 10.6021 183.572 10.6649 183.707 10.7276C183.842 10.7904 183.958 10.8846 184.056 11.0101C184.153 11.1356 184.202 11.3004 184.202 11.5044C184.202 11.6801 184.156 11.8433 184.065 11.9939C183.974 12.1446 183.841 12.2654 183.665 12.3564C183.489 12.4443 183.281 12.4882 183.039 12.4882ZM185.446 10.3887V11.6503C185.446 11.7382 185.467 11.8025 185.507 11.8433C185.551 11.881 185.623 11.8998 185.724 11.8998H186.03V12.4553H185.616C185.06 12.4553 184.782 12.1854 184.782 11.6456V10.3887H184.472V9.84736H184.782V9.20244H185.446V9.84736H186.03V10.3887H185.446ZM188.872 9.84736V12.4553H188.208V12.1258C188.123 12.2387 188.012 12.3282 187.874 12.3941C187.739 12.4569 187.591 12.4882 187.431 12.4882C187.227 12.4882 187.047 12.4459 186.89 12.3611C186.733 12.2733 186.609 12.1462 186.518 11.9798C186.43 11.8104 186.386 11.6095 186.386 11.3773V9.84736H187.045V11.2831C187.045 11.4903 187.097 11.6503 187.201 11.7633C187.304 11.8731 187.445 11.928 187.624 11.928C187.806 11.928 187.949 11.8731 188.053 11.7633C188.156 11.6503 188.208 11.4903 188.208 11.2831V9.84736H188.872ZM189.258 11.1419C189.258 10.8783 189.31 10.6445 189.414 10.4405C189.52 10.2365 189.665 10.0796 189.847 9.96975C190.029 9.8599 190.231 9.80499 190.454 9.80499C190.623 9.80499 190.785 9.84265 190.939 9.91797C191.093 9.99016 191.215 10.0874 191.306 10.2098V8.97178H191.974V12.4553H191.306V12.0693C191.225 12.1979 191.11 12.3015 190.962 12.38C190.815 12.4584 190.644 12.4976 190.449 12.4976C190.23 12.4976 190.029 12.4412 189.847 12.3282C189.665 12.2152 189.52 12.0567 189.414 11.8527C189.31 11.6456 189.258 11.4086 189.258 11.1419ZM191.311 11.1513C191.311 10.9913 191.279 10.8547 191.217 10.7418C191.154 10.6257 191.069 10.5378 190.962 10.4782C190.856 10.4154 190.741 10.384 190.619 10.384C190.496 10.384 190.383 10.4138 190.28 10.4734C190.176 10.5331 190.091 10.621 190.026 10.7371C189.963 10.85 189.931 10.985 189.931 11.1419C189.931 11.2988 189.963 11.4369 190.026 11.5562C190.091 11.6723 190.176 11.7617 190.28 11.8245C190.387 11.8873 190.5 11.9186 190.619 11.9186C190.741 11.9186 190.856 11.8888 190.962 11.8292C191.069 11.7664 191.154 11.6785 191.217 11.5656C191.279 11.4495 191.311 11.3114 191.311 11.1513ZM194.948 11.0948C194.948 11.189 194.942 11.2737 194.93 11.349H193.023C193.039 11.5373 193.105 11.6848 193.221 11.7915C193.337 11.8982 193.48 11.9516 193.649 11.9516C193.894 11.9516 194.068 11.8464 194.172 11.6362H194.882C194.807 11.8873 194.663 12.0944 194.449 12.2576C194.236 12.4176 193.974 12.4976 193.663 12.4976C193.412 12.4976 193.186 12.4427 192.985 12.3329C192.788 12.2199 192.632 12.0614 192.519 11.8574C192.409 11.6534 192.355 11.4181 192.355 11.1513C192.355 10.8814 192.409 10.6445 192.519 10.4405C192.629 10.2365 192.783 10.0796 192.981 9.96975C193.178 9.8599 193.406 9.80499 193.663 9.80499C193.911 9.80499 194.132 9.85835 194.327 9.96504C194.525 10.0717 194.677 10.224 194.784 10.4217C194.894 10.6162 194.948 10.8406 194.948 11.0948ZM194.266 10.9065C194.263 10.7371 194.202 10.6021 194.082 10.5017C193.963 10.3981 193.817 10.3463 193.644 10.3463C193.481 10.3463 193.343 10.3965 193.23 10.497C193.12 10.5943 193.053 10.7308 193.028 10.9065H194.266ZM196.78 9.8097C197.091 9.8097 197.342 9.90855 197.534 10.1063C197.725 10.3008 197.821 10.5739 197.821 10.9254V12.4553H197.162V11.0148C197.162 10.8077 197.11 10.6492 197.006 10.5393C196.903 10.4264 196.762 10.3699 196.583 10.3699C196.401 10.3699 196.256 10.4264 196.15 10.5393C196.046 10.6492 195.994 10.8077 195.994 11.0148V12.4553H195.335V9.84736H195.994V10.1722C196.082 10.0592 196.194 9.97133 196.329 9.90855C196.467 9.84265 196.617 9.8097 196.78 9.8097ZM199.121 10.3887V11.6503C199.121 11.7382 199.141 11.8025 199.182 11.8433C199.226 11.881 199.298 11.8998 199.399 11.8998H199.705V12.4553H199.29C198.735 12.4553 198.457 12.1854 198.457 11.6456V10.3887H198.146V9.84736H198.457V9.20244H199.121V9.84736H199.705V10.3887H199.121ZM201.082 12.4976C200.869 12.4976 200.677 12.46 200.508 12.3847C200.338 12.3062 200.203 12.2011 200.103 12.0693C200.006 11.9375 199.952 11.7915 199.943 11.6315H200.607C200.619 11.7319 200.668 11.8151 200.753 11.881C200.841 11.9469 200.949 11.9798 201.077 11.9798C201.203 11.9798 201.3 11.9547 201.369 11.9045C201.442 11.8543 201.478 11.7899 201.478 11.7115C201.478 11.6268 201.434 11.564 201.346 11.5232C201.261 11.4793 201.125 11.4322 200.936 11.382C200.742 11.3349 200.582 11.2863 200.456 11.236C200.334 11.1858 200.227 11.1089 200.136 11.0054C200.048 10.9018 200.004 10.7622 200.004 10.5864C200.004 10.4421 200.045 10.3103 200.127 10.191C200.211 10.0717 200.331 9.97759 200.484 9.90855C200.641 9.83952 200.825 9.80499 201.035 9.80499C201.346 9.80499 201.594 9.88344 201.779 10.0404C201.964 10.1941 202.066 10.4028 202.085 10.6665H201.454C201.445 10.5629 201.401 10.4813 201.322 10.4217C201.247 10.3589 201.145 10.3275 201.016 10.3275C200.897 10.3275 200.804 10.3495 200.738 10.3934C200.676 10.4374 200.644 10.4986 200.644 10.577C200.644 10.6649 200.688 10.7324 200.776 10.7794C200.864 10.8234 201.001 10.8689 201.186 10.9159C201.374 10.963 201.529 11.0117 201.652 11.0619C201.774 11.1121 201.879 11.1906 201.967 11.2972C202.058 11.4008 202.105 11.5389 202.108 11.7115C202.108 11.8621 202.066 11.9971 201.981 12.1163C201.9 12.2356 201.78 12.3297 201.623 12.3988C201.47 12.4647 201.289 12.4976 201.082 12.4976ZM205.871 10.158C205.795 10.02 205.692 9.91484 205.56 9.84265C205.428 9.77046 205.274 9.73438 205.099 9.73438C204.904 9.73438 204.732 9.77832 204.581 9.86619C204.43 9.95405 204.313 10.0796 204.228 10.2428C204.143 10.406 204.101 10.5943 204.101 10.8077C204.101 11.0273 204.143 11.2188 204.228 11.382C204.316 11.5452 204.436 11.6707 204.59 11.7586C204.744 11.8464 204.923 11.8904 205.127 11.8904C205.378 11.8904 205.584 11.8245 205.743 11.6927C205.904 11.5577 206.009 11.371 206.059 11.1325H204.929V10.6288H206.709V11.2031C206.665 11.4322 206.571 11.644 206.426 11.8386C206.282 12.0332 206.095 12.1901 205.866 12.3093C205.64 12.4255 205.386 12.4835 205.103 12.4835C204.786 12.4835 204.499 12.4129 204.242 12.2717C203.988 12.1273 203.787 11.928 203.639 11.6738C203.495 11.4196 203.423 11.1309 203.423 10.8077C203.423 10.4844 203.495 10.1957 203.639 9.94151C203.787 9.68417 203.988 9.48488 204.242 9.34366C204.499 9.19931 204.785 9.12712 205.099 9.12712C205.469 9.12712 205.791 9.21814 206.064 9.40015C206.337 9.57903 206.525 9.83166 206.629 10.158H205.871ZM206.933 11.1419C206.933 10.8783 206.984 10.6445 207.088 10.4405C207.194 10.2365 207.337 10.0796 207.516 9.96975C207.698 9.8599 207.901 9.80499 208.124 9.80499C208.318 9.80499 208.488 9.84423 208.632 9.92268C208.779 10.0011 208.897 10.1 208.985 10.2192V9.84736H209.649V12.4553H208.985V12.074C208.9 12.1964 208.783 12.2984 208.632 12.38C208.484 12.4584 208.313 12.4976 208.119 12.4976C207.899 12.4976 207.698 12.4412 207.516 12.3282C207.337 12.2152 207.194 12.0567 207.088 11.8527C206.984 11.6456 206.933 11.4086 206.933 11.1419ZM208.985 11.1513C208.985 10.9913 208.954 10.8547 208.891 10.7418C208.828 10.6257 208.743 10.5378 208.637 10.4782C208.53 10.4154 208.415 10.384 208.293 10.384C208.171 10.384 208.058 10.4138 207.954 10.4734C207.85 10.5331 207.766 10.621 207.7 10.7371C207.637 10.85 207.606 10.985 207.606 11.1419C207.606 11.2988 207.637 11.4369 207.7 11.5562C207.766 11.6723 207.85 11.7617 207.954 11.8245C208.061 11.8873 208.174 11.9186 208.293 11.9186C208.415 11.9186 208.53 11.8888 208.637 11.8292C208.743 11.7664 208.828 11.6785 208.891 11.5656C208.954 11.4495 208.985 11.3114 208.985 11.1513ZM210.966 10.3887V11.6503C210.966 11.7382 210.986 11.8025 211.027 11.8433C211.071 11.881 211.143 11.8998 211.243 11.8998H211.549V12.4553H211.135C210.58 12.4553 210.302 12.1854 210.302 11.6456V10.3887H209.991V9.84736H210.302V9.20244H210.966V9.84736H211.549V10.3887H210.966ZM213.398 9.8097C213.596 9.8097 213.771 9.85364 213.925 9.94151C214.079 10.0262 214.198 10.1533 214.283 10.3228C214.371 10.4891 214.415 10.69 214.415 10.9254V12.4553H213.756V11.0148C213.756 10.8077 213.704 10.6492 213.6 10.5393C213.497 10.4264 213.356 10.3699 213.177 10.3699C212.995 10.3699 212.85 10.4264 212.744 10.5393C212.64 10.6492 212.588 10.8077 212.588 11.0148V12.4553H211.929V8.97178H212.588V10.1722C212.673 10.0592 212.786 9.97133 212.927 9.90855C213.068 9.84265 213.225 9.8097 213.398 9.8097ZM217.371 11.0948C217.371 11.189 217.365 11.2737 217.353 11.349H215.446C215.462 11.5373 215.528 11.6848 215.644 11.7915C215.76 11.8982 215.903 11.9516 216.072 11.9516C216.317 11.9516 216.491 11.8464 216.595 11.6362H217.306C217.23 11.8873 217.086 12.0944 216.873 12.2576C216.659 12.4176 216.397 12.4976 216.086 12.4976C215.835 12.4976 215.609 12.4427 215.408 12.3329C215.211 12.2199 215.055 12.0614 214.942 11.8574C214.833 11.6534 214.778 11.4181 214.778 11.1513C214.778 10.8814 214.833 10.6445 214.942 10.4405C215.052 10.2365 215.206 10.0796 215.404 9.96975C215.601 9.8599 215.829 9.80499 216.086 9.80499C216.334 9.80499 216.556 9.85835 216.75 9.96504C216.948 10.0717 217.1 10.224 217.207 10.4217C217.317 10.6162 217.371 10.8406 217.371 11.0948ZM216.689 10.9065C216.686 10.7371 216.625 10.6021 216.505 10.5017C216.386 10.3981 216.24 10.3463 216.068 10.3463C215.904 10.3463 215.766 10.3965 215.653 10.497C215.544 10.5943 215.476 10.7308 215.451 10.9065H216.689ZM218.417 10.2522C218.502 10.1141 218.612 10.0058 218.747 9.92738C218.885 9.84893 219.042 9.8097 219.218 9.8097V10.5017H219.044C218.836 10.5017 218.679 10.5503 218.573 10.6476C218.469 10.7449 218.417 10.9144 218.417 11.156V12.4553H217.758V9.84736H218.417V10.2522ZM219.902 9.53667C219.786 9.53667 219.688 9.50058 219.61 9.4284C219.535 9.35308 219.497 9.26051 219.497 9.15066C219.497 9.04081 219.535 8.94982 219.61 8.87763C219.688 8.80231 219.786 8.76465 219.902 8.76465C220.018 8.76465 220.114 8.80231 220.189 8.87763C220.267 8.94982 220.307 9.04081 220.307 9.15066C220.307 9.26051 220.267 9.35308 220.189 9.4284C220.114 9.50058 220.018 9.53667 219.902 9.53667ZM220.227 9.84736V12.4553H219.568V9.84736H220.227ZM222.229 9.8097C222.539 9.8097 222.79 9.90855 222.982 10.1063C223.173 10.3008 223.269 10.5739 223.269 10.9254V12.4553H222.61V11.0148C222.61 10.8077 222.558 10.6492 222.455 10.5393C222.351 10.4264 222.21 10.3699 222.031 10.3699C221.849 10.3699 221.705 10.4264 221.598 10.5393C221.494 10.6492 221.442 10.8077 221.442 11.0148V12.4553H220.783V9.84736H221.442V10.1722C221.531 10.0592 221.642 9.97133 221.777 9.90855C221.915 9.84265 222.066 9.8097 222.229 9.8097ZM224.823 9.80499C225.018 9.80499 225.189 9.84423 225.336 9.92268C225.484 9.998 225.6 10.0969 225.685 10.2192V9.84736H226.348V12.4741C226.348 12.7158 226.3 12.9307 226.202 13.119C226.105 13.3104 225.959 13.4611 225.765 13.5709C225.57 13.6839 225.335 13.7404 225.058 13.7404C224.688 13.7404 224.384 13.6541 224.145 13.4815C223.91 13.3089 223.776 13.0735 223.745 12.7754H224.399C224.434 12.8946 224.508 12.9888 224.621 13.0578C224.737 13.13 224.877 13.1661 225.04 13.1661C225.231 13.1661 225.386 13.108 225.506 12.9919C225.625 12.8789 225.685 12.7063 225.685 12.4741V12.0693C225.6 12.1917 225.482 12.2936 225.332 12.3752C225.184 12.4569 225.014 12.4976 224.823 12.4976C224.604 12.4976 224.403 12.4412 224.221 12.3282C224.039 12.2152 223.894 12.0567 223.787 11.8527C223.684 11.6456 223.632 11.4086 223.632 11.1419C223.632 10.8783 223.684 10.6445 223.787 10.4405C223.894 10.2365 224.037 10.0796 224.216 9.96975C224.398 9.8599 224.6 9.80499 224.823 9.80499ZM225.685 11.1513C225.685 10.9913 225.653 10.8547 225.59 10.7418C225.528 10.6257 225.443 10.5378 225.336 10.4782C225.23 10.4154 225.115 10.384 224.993 10.384C224.87 10.384 224.757 10.4138 224.654 10.4734C224.55 10.5331 224.465 10.621 224.399 10.7371C224.337 10.85 224.305 10.985 224.305 11.1419C224.305 11.2988 224.337 11.4369 224.399 11.5562C224.465 11.6723 224.55 11.7617 224.654 11.8245C224.76 11.8873 224.873 11.9186 224.993 11.9186C225.115 11.9186 225.23 11.8888 225.336 11.8292C225.443 11.7664 225.528 11.6785 225.59 11.5656C225.653 11.4495 225.685 11.3114 225.685 11.1513Z" fill="white"/>
</g>
<defs>
<clipPath id="clip0_6485_36610">
<rect width="358" height="138.634" fill="white" transform="translate(0 0.21582)"/>
</clipPath>
</defs>
</svg>
