<svg width="358" height="145" viewBox="0 0 358 145" fill="none" xmlns="http://www.w3.org/2000/svg">
<g clip-path="url(#clip0_6485_36564)">
<mask id="mask0_6485_36564" style="mask-type:luminance" maskUnits="userSpaceOnUse" x="0" y="3" width="175" height="142">
<path d="M174.749 3.23584H0V144.216H174.749V3.23584Z" fill="white"/>
</mask>
<g mask="url(#mask0_6485_36564)">
<path opacity="0.35" d="M85.339 144.216C113.964 144.216 137.169 141.555 137.169 138.272C137.169 134.99 113.964 132.329 85.339 132.329C56.7141 132.329 33.5093 134.99 33.5093 138.272C33.5093 141.555 56.7141 144.216 85.339 144.216Z" fill="#464A60"/>
<path d="M23.682 97.4656C27.5966 68.9991 61.1058 54.9224 84.1238 54.9224C107.142 54.9224 142.843 69.6249 145.819 97.4656C148.324 140.634 135.64 141.416 84.1238 141.573C32.6072 141.729 20.7068 137.662 23.682 97.4656Z" fill="#128841"/>
<path d="M97.6495 86.2415C98.3414 86.2415 98.9023 85.6811 98.9023 84.9901C98.9023 84.2991 98.3414 83.7388 97.6495 83.7388C96.9578 83.7388 96.397 84.2991 96.397 84.9901C96.397 85.6811 96.9578 86.2415 97.6495 86.2415Z" fill="white"/>
<path d="M98.8678 94.9158C99.5597 94.9158 100.121 94.3554 100.121 93.6644C100.121 92.9735 99.5597 92.4131 98.8678 92.4131C98.1761 92.4131 97.6152 92.9735 97.6152 93.6644C97.6152 94.3554 98.1761 94.9158 98.8678 94.9158Z" fill="white"/>
<path d="M82.1102 80.5355L80.5037 69.0894C80.3346 67.8915 81.1708 66.7842 82.3702 66.6182L105.629 63.3586C106.829 63.1898 107.937 64.025 108.103 65.223L109.679 76.4376C109.898 78.008 108.426 79.2842 106.901 78.8464L97.7375 76.2029C97.1863 76.0435 96.5976 76.1061 96.0901 76.3781L85.3171 82.1621C83.9736 82.8817 82.3201 82.0464 82.1102 80.5355Z" fill="white"/>
<path d="M99.5297 100.621C100.672 100.46 101.729 101.257 101.889 102.399L103.324 112.622C103.484 113.765 102.688 114.821 101.545 114.982C100.402 115.142 99.346 114.346 99.1855 113.203L97.751 102.98C97.5907 101.837 98.3869 100.781 99.5297 100.621Z" fill="white"/>
<path d="M166.607 68.8271C171.104 68.8271 174.749 65.1857 174.749 60.6937C174.749 56.2019 171.104 52.5605 166.607 52.5605C162.11 52.5605 158.464 56.2019 158.464 60.6937C158.464 65.1857 162.11 68.8271 166.607 68.8271Z" fill="#F3A7FF"/>
<path d="M8.14245 123.883C12.6394 123.883 16.2849 120.241 16.2849 115.749C16.2849 111.258 12.6394 107.616 8.14245 107.616C3.64548 107.616 0 111.258 0 115.749C0 120.241 3.64548 123.883 8.14245 123.883Z" fill="#F3A7FF"/>
<path d="M129.715 37.6734C131.378 65.7738 111.968 74.0727 88.546 75.4554C65.124 76.838 45.6949 70.4098 44.0539 42.7316C42.8356 22.1202 60.8554 4.70572 84.2774 3.32307C107.696 1.94041 128.494 17.0588 129.715 37.6734Z" fill="#F3A7FF"/>
<path d="M85.2327 28.5268C86.8111 27.823 88.6651 28.5268 89.3697 30.1066L92.8208 37.8175C93.5255 39.394 92.8208 41.2459 91.2393 41.9499C89.6609 42.6536 87.8069 41.9499 87.1022 40.37L83.6512 32.6591C82.9465 31.0826 83.6542 29.2307 85.2327 28.5268Z" fill="white"/>
<path d="M105.498 22.6835C107.011 22.0422 108.758 22.746 109.4 24.2568L112.826 32.3213C113.468 33.8321 112.764 35.5777 111.251 36.2191C109.738 36.8603 107.991 36.1565 107.349 34.6457L103.923 26.5812C103.278 25.0703 103.986 23.3247 105.498 22.6835Z" fill="white"/>
</g>
<path opacity="0.35" d="M274.049 138.312C311.155 138.312 341.233 137.678 341.233 136.895C341.233 136.113 311.155 135.479 274.049 135.479C236.943 135.479 206.865 136.113 206.865 136.895C206.865 137.678 236.943 138.312 274.049 138.312Z" fill="#464A60" fill-opacity="0.13"/>
<path d="M193.169 9.13971C193.169 6.00962 195.706 3.47217 198.836 3.47217H349.263C352.392 3.47217 354.93 6.00962 354.93 9.13971V86.8323C354.93 89.9625 352.392 92.4999 349.263 92.4999H198.836C195.706 92.4999 193.169 89.9625 193.169 86.8323V9.13971Z" fill="#A6E1DF"/>
<path d="M226.938 24.9612C226.938 23.3962 228.207 22.1274 229.772 22.1274H283.85C285.415 22.1274 286.683 23.3962 286.683 24.9612V26.142C286.683 27.7069 285.415 28.9757 283.85 28.9757H229.772C228.207 28.9757 226.938 27.7069 226.938 26.142V24.9612Z" fill="#F2EDEE"/>
<path d="M235.472 23.79V25.8303C235.472 26.0539 235.531 26.2254 235.647 26.3451C235.763 26.4615 235.927 26.5198 236.138 26.5198C236.353 26.5198 236.518 26.4615 236.634 26.3451C236.75 26.2254 236.809 26.0539 236.809 25.8303V23.79H237.475V25.8256C237.475 26.1059 237.413 26.3434 237.291 26.5387C237.17 26.7307 237.01 26.8757 236.804 26.9732C236.603 27.0708 236.377 27.1196 236.129 27.1196C235.883 27.1196 235.66 27.0708 235.458 26.9732C235.26 26.8757 235.102 26.7307 234.986 26.5387C234.869 26.3434 234.811 26.1059 234.811 25.8256V23.79H235.472ZM239.47 24.4323C239.782 24.4323 240.032 24.5315 240.226 24.7298C240.417 24.9251 240.514 25.1991 240.514 25.5516V27.0866H239.853V25.6414C239.853 25.4336 239.801 25.2746 239.697 25.1643C239.593 25.051 239.451 24.9943 239.272 24.9943C239.088 24.9943 238.944 25.051 238.837 25.1643C238.733 25.2746 238.681 25.4336 238.681 25.6414V27.0866H238.02V24.4701H238.681V24.796C238.769 24.6826 238.88 24.5945 239.017 24.5315C239.154 24.4653 239.305 24.4323 239.47 24.4323ZM241.383 24.1584C241.265 24.1584 241.168 24.1222 241.09 24.0497C241.015 23.9742 240.977 23.8813 240.977 23.7711C240.977 23.6609 241.015 23.5696 241.09 23.4971C241.168 23.4216 241.265 23.3838 241.383 23.3838C241.499 23.3838 241.596 23.4216 241.671 23.4971C241.749 23.5696 241.789 23.6609 241.789 23.7711C241.789 23.8813 241.749 23.9742 241.671 24.0497C241.596 24.1222 241.499 24.1584 241.383 24.1584ZM241.709 24.4701V27.0866H241.048V24.4701H241.709ZM242.927 24.8526C243.012 24.7268 243.13 24.6243 243.277 24.5456C243.428 24.467 243.6 24.4276 243.792 24.4276C244.016 24.4276 244.217 24.4826 244.396 24.5929C244.58 24.7031 244.722 24.8604 244.826 25.0652C244.935 25.2666 244.987 25.5013 244.987 25.7689C244.987 26.0364 244.935 26.2742 244.826 26.482C244.722 26.6868 244.58 26.8457 244.396 26.9591C244.217 27.0724 244.016 27.1291 243.792 27.1291C243.598 27.1291 243.426 27.0913 243.277 27.0157C243.133 26.9371 243.017 26.8363 242.927 26.7135V27.0866H242.266V23.5916H242.927V24.8526ZM244.311 25.7689C244.311 25.6114 244.278 25.4761 244.212 25.3627C244.151 25.2463 244.066 25.158 243.957 25.0982C243.853 25.0385 243.74 25.0085 243.617 25.0085C243.499 25.0085 243.386 25.0399 243.277 25.1029C243.173 25.1627 243.088 25.251 243.022 25.3674C242.96 25.4839 242.927 25.6208 242.927 25.7783C242.927 25.9358 242.96 26.0728 243.022 26.1892C243.088 26.3056 243.173 26.3954 243.277 26.4584C243.386 26.5182 243.499 26.5482 243.617 26.5482C243.74 26.5482 243.853 26.5168 243.957 26.4537C244.066 26.3907 244.151 26.3009 244.212 26.1845C244.278 26.0681 244.311 25.9295 244.311 25.7689ZM247.844 24.4701V27.0866H247.178V26.756C247.093 26.8693 246.982 26.9591 246.843 27.0252C246.708 27.0882 246.559 27.1196 246.399 27.1196C246.193 27.1196 246.014 27.0771 245.856 26.9921C245.697 26.904 245.575 26.7765 245.483 26.6096C245.395 26.4395 245.35 26.2381 245.35 26.005V24.4701H246.012V25.9106C246.012 26.1184 246.063 26.279 246.167 26.3923C246.271 26.5026 246.413 26.5576 246.592 26.5576C246.774 26.5576 246.918 26.5026 247.022 26.3923C247.126 26.279 247.178 26.1184 247.178 25.9106V24.4701H247.844ZM249.006 26.5434H250.172V27.0866H248.255V26.5529L249.398 25.0132H248.26V24.4701H250.158V25.0038L249.006 26.5434ZM251.195 26.5434H252.362V27.0866H250.444V26.5529L251.587 25.0132H250.449V24.4701H252.347V25.0038L251.195 26.5434ZM253.649 25.4336C253.649 25.1093 253.722 24.8196 253.866 24.5645C254.015 24.3064 254.215 24.1064 254.466 23.9647C254.721 23.8199 255.006 23.7475 255.32 23.7475C255.689 23.7475 256.012 23.8419 256.289 24.0308C256.567 24.2198 256.761 24.4812 256.87 24.8148H256.109C256.034 24.6573 255.927 24.5393 255.788 24.4606C255.653 24.382 255.495 24.3425 255.316 24.3425C255.124 24.3425 254.952 24.3881 254.801 24.4795C254.655 24.5676 254.536 24.6937 254.451 24.8574C254.371 25.021 254.329 25.2132 254.329 25.4336C254.329 25.6508 254.371 25.8428 254.451 26.0098C254.536 26.1734 254.655 26.3009 254.801 26.3923C254.952 26.4804 255.124 26.5246 255.316 26.5246C255.495 26.5246 255.653 26.4851 255.788 26.4065C255.927 26.3245 256.034 26.205 256.109 26.0475H256.87C256.761 26.3845 256.567 26.6474 256.289 26.8363C256.015 27.0221 255.694 27.1149 255.32 27.1149C255.006 27.1149 254.721 27.0441 254.466 26.9024C254.215 26.7576 254.015 26.5576 253.866 26.3026C253.722 26.0475 253.649 25.7578 253.649 25.4336ZM258.501 27.1291C258.251 27.1291 258.024 27.0741 257.821 26.9638C257.621 26.8504 257.462 26.6915 257.344 26.4868C257.231 26.282 257.174 26.0459 257.174 25.7783C257.174 25.5108 257.233 25.2746 257.349 25.0699C257.469 24.8651 257.632 24.7079 257.835 24.5976C258.041 24.4842 258.27 24.4276 258.52 24.4276C258.773 24.4276 259.002 24.4842 259.205 24.5976C259.411 24.7079 259.571 24.8651 259.687 25.0699C259.807 25.2746 259.866 25.5108 259.866 25.7783C259.866 26.0459 259.805 26.282 259.682 26.4868C259.564 26.6915 259.399 26.8504 259.191 26.9638C258.988 27.0741 258.756 27.1291 258.501 27.1291ZM258.501 26.5529C258.622 26.5529 258.733 26.5246 258.837 26.4679C258.945 26.4081 259.03 26.3198 259.092 26.2034C259.156 26.087 259.186 25.9453 259.186 25.7783C259.186 25.5297 259.12 25.3391 258.988 25.2069C258.86 25.0715 258.7 25.0038 258.511 25.0038C258.322 25.0038 258.164 25.0715 258.034 25.2069C257.909 25.3391 257.845 25.5297 257.845 25.7783C257.845 26.027 257.906 26.2192 258.029 26.3545C258.157 26.4868 258.312 26.5529 258.501 26.5529ZM260.92 23.5916V27.0866H260.258V23.5916H260.92ZM262.14 23.5916V27.0866H261.479V23.5916H262.14ZM265.13 25.7217C265.13 25.8161 265.123 25.9011 265.111 25.9767H263.198C263.215 26.1656 263.281 26.3137 263.397 26.4206C263.512 26.5276 263.656 26.5812 263.826 26.5812C264.072 26.5812 264.247 26.4757 264.351 26.2648H265.064C264.988 26.5168 264.844 26.7246 264.629 26.8882C264.415 27.0488 264.152 27.1291 263.841 27.1291C263.588 27.1291 263.361 27.0741 263.161 26.9638C262.962 26.8504 262.806 26.6915 262.693 26.4868C262.582 26.282 262.528 26.0459 262.528 25.7783C262.528 25.5075 262.582 25.2699 262.693 25.0652C262.804 24.8604 262.957 24.7031 263.156 24.5929C263.354 24.4826 263.583 24.4276 263.841 24.4276C264.089 24.4276 264.311 24.4812 264.507 24.5881C264.705 24.6951 264.858 24.8479 264.965 25.0463C265.076 25.2416 265.13 25.4666 265.13 25.7217ZM264.445 25.5327C264.443 25.3627 264.381 25.2274 264.261 25.1266C264.141 25.0227 263.994 24.9707 263.822 24.9707C263.659 24.9707 263.52 25.021 263.406 25.1218C263.295 25.2194 263.229 25.3563 263.203 25.5327H264.445ZM266.545 24.4276C266.738 24.4276 266.911 24.467 267.059 24.5456C267.206 24.6212 267.324 24.7204 267.409 24.8432V24.4701H268.075V27.1055C268.075 27.348 268.025 27.5636 267.928 27.7525C267.829 27.9445 267.683 28.0956 267.489 28.2059C267.293 28.3193 267.057 28.376 266.781 28.376C266.408 28.376 266.103 28.2893 265.864 28.1162C265.628 27.9431 265.494 27.7069 265.463 27.4077H266.12C266.153 27.5275 266.228 27.6219 266.341 27.6911C266.457 27.7636 266.597 27.7998 266.762 27.7998C266.953 27.7998 267.109 27.7414 267.229 27.625C267.347 27.5117 267.409 27.3386 267.409 27.1055V26.6993C267.324 26.8221 267.206 26.9244 267.055 27.0063C266.906 27.0882 266.736 27.1291 266.545 27.1291C266.323 27.1291 266.122 27.0724 265.94 26.9591C265.756 26.8457 265.612 26.6868 265.505 26.482C265.402 26.2742 265.35 26.0364 265.35 25.7689C265.35 25.5044 265.402 25.2699 265.505 25.0652C265.612 24.8604 265.756 24.7031 265.935 24.5929C266.117 24.4826 266.32 24.4276 266.545 24.4276ZM267.409 25.7783C267.409 25.6177 267.376 25.4808 267.314 25.3674C267.251 25.251 267.166 25.1627 267.059 25.1029C266.951 25.0399 266.837 25.0085 266.715 25.0085C266.592 25.0085 266.478 25.0385 266.375 25.0982C266.271 25.158 266.186 25.2463 266.12 25.3627C266.056 25.4761 266.025 25.6114 266.025 25.7689C266.025 25.9264 266.056 26.0648 266.12 26.1845C266.186 26.3009 266.271 26.3907 266.375 26.4537C266.481 26.5168 266.594 26.5482 266.715 26.5482C266.837 26.5482 266.951 26.5182 267.059 26.4584C267.166 26.3954 267.251 26.3073 267.314 26.1939C267.376 26.0775 267.409 25.9389 267.409 25.7783ZM271.057 25.7217C271.057 25.8161 271.05 25.9011 271.038 25.9767H269.126C269.142 26.1656 269.208 26.3137 269.324 26.4206C269.44 26.5276 269.584 26.5812 269.754 26.5812C269.999 26.5812 270.174 26.4757 270.278 26.2648H270.991C270.916 26.5168 270.772 26.7246 270.557 26.8882C270.342 27.0488 270.08 27.1291 269.768 27.1291C269.515 27.1291 269.289 27.0741 269.088 26.9638C268.89 26.8504 268.734 26.6915 268.62 26.4868C268.509 26.282 268.455 26.0459 268.455 25.7783C268.455 25.5075 268.509 25.2699 268.62 25.0652C268.731 24.8604 268.885 24.7031 269.083 24.5929C269.282 24.4826 269.511 24.4276 269.768 24.4276C270.016 24.4276 270.238 24.4812 270.434 24.5881C270.632 24.6951 270.786 24.8479 270.892 25.0463C271.003 25.2416 271.057 25.4666 271.057 25.7217ZM270.373 25.5327C270.37 25.3627 270.309 25.2274 270.188 25.1266C270.068 25.0227 269.921 24.9707 269.749 24.9707C269.586 24.9707 269.447 25.021 269.333 25.1218C269.222 25.2194 269.156 25.3563 269.13 25.5327H270.373Z" fill="white"/>
<path d="M221.506 25.6697C221.506 21.6267 218.229 18.3491 214.186 18.3491C210.143 18.3491 206.865 21.6267 206.865 25.6697C206.865 29.7127 210.143 32.9903 214.186 32.9903C218.229 32.9903 221.506 29.7127 221.506 25.6697Z" fill="#F3F2FF"/>
<path d="M213.902 22.5501C213.674 22.3711 213.388 22.318 213.116 22.4041L211.277 22.9867C210.899 23.1068 210.644 23.468 210.644 23.8859V28.0367C210.644 28.3364 210.775 28.6108 211.002 28.7896C211.23 28.9686 211.516 29.0217 211.788 28.9355L213.16 28.5005C213.118 28.3511 213.096 28.195 213.096 28.0367V26.1516C213.096 25.7558 213.232 25.3777 213.481 25.0877C213.664 24.874 213.901 24.7165 214.166 24.6322L214.26 24.6039V23.3033C214.26 23.0035 214.13 22.7291 213.902 22.5501H213.902Z" fill="#05009B"/>
<path d="M217.256 25.5746V27.4565C217.256 27.8733 217.002 28.2344 216.623 28.3538L214.784 28.9355C214.699 28.9626 214.612 28.9759 214.526 28.9759C214.338 28.9759 214.154 28.9126 213.998 28.7898C213.927 28.7336 213.865 28.6686 213.814 28.5959C213.752 28.5085 213.706 28.4115 213.677 28.3071C213.677 28.3071 213.676 28.3071 213.676 28.3073L213.677 28.3066C213.653 28.2209 213.64 28.1309 213.64 28.0381V26.1563C213.64 25.9631 213.694 25.7817 213.791 25.6311C213.887 25.4806 214.025 25.3604 214.192 25.2889C214.218 25.2775 214.246 25.2672 214.273 25.2587L214.498 25.1876L216.112 24.677C216.384 24.5911 216.67 24.644 216.898 24.8227C217.125 25.0013 217.256 25.2754 217.256 25.5746Z" fill="#05009B"/>
<path d="M226.938 22.9544C226.938 21.3893 228.207 20.1206 229.772 20.1206H283.85C285.415 20.1206 286.683 21.3893 286.683 22.9544V28.3858C286.683 29.9507 285.415 31.2196 283.85 31.2196H229.772C228.207 31.2196 226.938 29.9507 226.938 28.3858V22.9544Z" fill="#05A4CC"/>
<path d="M239.487 24.1445V26.1848C239.487 26.4084 239.546 26.5798 239.662 26.6996C239.777 26.816 239.943 26.8743 240.153 26.8743C240.368 26.8743 240.533 26.816 240.649 26.6996C240.764 26.5798 240.823 26.4084 240.823 26.1848V24.1445H241.489V26.18C241.489 26.4604 241.428 26.6979 241.305 26.8932C241.185 27.0852 241.024 27.2302 240.819 27.3277C240.618 27.4253 240.391 27.4741 240.143 27.4741C239.898 27.4741 239.673 27.4253 239.473 27.3277C239.274 27.2302 239.116 27.0852 239 26.8932C238.885 26.6979 238.826 26.4604 238.826 26.18V24.1445H239.487ZM243.485 24.7868C243.797 24.7868 244.047 24.886 244.241 25.0843C244.432 25.2796 244.529 25.5535 244.529 25.9061V27.4411H243.867V25.9959C243.867 25.788 243.815 25.6291 243.712 25.5188C243.608 25.4055 243.466 25.3488 243.287 25.3488C243.102 25.3488 242.958 25.4055 242.852 25.5188C242.748 25.6291 242.696 25.788 242.696 25.9959V27.4411H242.035V24.8246H242.696V25.1504C242.784 25.0371 242.895 24.949 243.031 24.886C243.168 24.8198 243.32 24.7868 243.485 24.7868ZM245.398 24.5128C245.28 24.5128 245.183 24.4767 245.105 24.4042C245.029 24.3287 244.991 24.2358 244.991 24.1256C244.991 24.0154 245.029 23.9241 245.105 23.8516C245.183 23.7761 245.28 23.7383 245.398 23.7383C245.513 23.7383 245.61 23.7761 245.686 23.8516C245.764 23.9241 245.804 24.0154 245.804 24.1256C245.804 24.2358 245.764 24.3287 245.686 24.4042C245.61 24.4767 245.513 24.5128 245.398 24.5128ZM245.724 24.8246V27.4411H245.062V24.8246H245.724ZM246.942 25.2071C247.027 25.0813 247.145 24.9788 247.292 24.9001C247.443 24.8215 247.615 24.7821 247.806 24.7821C248.031 24.7821 248.231 24.8371 248.411 24.9474C248.595 25.0576 248.737 25.2149 248.841 25.4197C248.949 25.6211 249.001 25.8558 249.001 26.1234C249.001 26.3909 248.949 26.6287 248.841 26.8365C248.737 27.0413 248.595 27.2002 248.411 27.3136C248.231 27.4269 248.031 27.4836 247.806 27.4836C247.613 27.4836 247.44 27.4458 247.292 27.3702C247.148 27.2916 247.032 27.1908 246.942 27.068V27.4411H246.281V23.9461H246.942V25.2071ZM248.326 26.1234C248.326 25.9659 248.293 25.8305 248.227 25.7172C248.165 25.6008 248.08 25.5125 247.972 25.4527C247.868 25.393 247.754 25.363 247.632 25.363C247.514 25.363 247.4 25.3944 247.292 25.4574C247.188 25.5172 247.103 25.6055 247.037 25.7219C246.975 25.8383 246.942 25.9753 246.942 26.1328C246.942 26.2903 246.975 26.4273 247.037 26.5437C247.103 26.6601 247.188 26.7499 247.292 26.8129C247.4 26.8727 247.514 26.9027 247.632 26.9027C247.754 26.9027 247.868 26.8713 247.972 26.8082C248.08 26.7452 248.165 26.6554 248.227 26.539C248.293 26.4226 248.326 26.284 248.326 26.1234ZM251.859 24.8246V27.4411H251.193V27.1105C251.108 27.2238 250.997 27.3136 250.857 27.3797C250.723 27.4427 250.574 27.4741 250.413 27.4741C250.208 27.4741 250.029 27.4316 249.87 27.3466C249.712 27.2585 249.589 27.131 249.497 26.9641C249.41 26.794 249.365 26.5926 249.365 26.3595V24.8246H250.026V26.2651C250.026 26.4729 250.078 26.6335 250.182 26.7468C250.286 26.8571 250.428 26.9121 250.607 26.9121C250.789 26.9121 250.933 26.8571 251.037 26.7468C251.141 26.6335 251.193 26.4729 251.193 26.2651V24.8246H251.859ZM253.021 26.8979H254.187V27.4411H252.27V26.9074L253.413 25.3677H252.274V24.8246H254.173V25.3583L253.021 26.8979ZM255.21 26.8979H256.376V27.4411H254.459V26.9074L255.602 25.3677H254.463V24.8246H256.362V25.3583L255.21 26.8979ZM257.663 25.788C257.663 25.4638 257.736 25.1741 257.88 24.919C258.029 24.6609 258.23 24.4609 258.48 24.3192C258.735 24.1744 259.021 24.1019 259.335 24.1019C259.703 24.1019 260.027 24.1964 260.303 24.3853C260.582 24.5742 260.776 24.8357 260.884 25.1693H260.124C260.048 25.0118 259.942 24.8938 259.803 24.8151C259.668 24.7365 259.51 24.697 259.33 24.697C259.139 24.697 258.967 24.7426 258.816 24.834C258.669 24.9221 258.551 25.0482 258.466 25.2118C258.386 25.3755 258.343 25.5677 258.343 25.788C258.343 26.0053 258.386 26.1973 258.466 26.3642C258.551 26.5279 258.669 26.6554 258.816 26.7468C258.967 26.8349 259.139 26.879 259.33 26.879C259.51 26.879 259.668 26.8396 259.803 26.761C259.942 26.679 260.048 26.5595 260.124 26.402H260.884C260.776 26.739 260.582 27.0018 260.303 27.1908C260.029 27.3766 259.708 27.4694 259.335 27.4694C259.021 27.4694 258.735 27.3986 258.48 27.2569C258.23 27.1121 258.029 26.9121 257.88 26.6571C257.736 26.402 257.663 26.1123 257.663 25.788ZM262.516 27.4836C262.266 27.4836 262.039 27.4286 261.836 27.3183C261.635 27.2049 261.477 27.046 261.359 26.8413C261.246 26.6365 261.189 26.4004 261.189 26.1328C261.189 25.8653 261.248 25.6291 261.364 25.4244C261.484 25.2196 261.647 25.0624 261.85 24.9521C262.056 24.8387 262.285 24.7821 262.535 24.7821C262.788 24.7821 263.017 24.8387 263.22 24.9521C263.425 25.0624 263.586 25.2196 263.701 25.4244C263.822 25.6291 263.881 25.8653 263.881 26.1328C263.881 26.4004 263.82 26.6365 263.697 26.8413C263.579 27.046 263.413 27.2049 263.206 27.3183C263.002 27.4286 262.771 27.4836 262.516 27.4836ZM262.516 26.9074C262.636 26.9074 262.747 26.879 262.851 26.8224C262.96 26.7626 263.045 26.6743 263.106 26.5579C263.17 26.4415 263.201 26.2998 263.201 26.1328C263.201 25.8842 263.135 25.6936 263.002 25.5613C262.875 25.426 262.714 25.3583 262.525 25.3583C262.337 25.3583 262.178 25.426 262.048 25.5613C261.923 25.6936 261.86 25.8842 261.86 26.1328C261.86 26.3815 261.921 26.5737 262.044 26.709C262.171 26.8413 262.327 26.9074 262.516 26.9074ZM264.934 23.9461V27.4411H264.273V23.9461H264.934ZM266.155 23.9461V27.4411H265.494V23.9461H266.155ZM269.145 26.0761C269.145 26.1706 269.138 26.2556 269.126 26.3312H267.213C267.23 26.5201 267.296 26.6682 267.411 26.7751C267.527 26.8821 267.671 26.9357 267.841 26.9357C268.087 26.9357 268.262 26.8302 268.365 26.6193H269.079C269.003 26.8713 268.859 27.0791 268.644 27.2427C268.429 27.4033 268.167 27.4836 267.855 27.4836C267.603 27.4836 267.376 27.4286 267.175 27.3183C266.977 27.2049 266.821 27.046 266.708 26.8413C266.597 26.6365 266.542 26.4004 266.542 26.1328C266.542 25.862 266.597 25.6244 266.708 25.4197C266.819 25.2149 266.972 25.0576 267.17 24.9474C267.369 24.8371 267.598 24.7821 267.855 24.7821C268.103 24.7821 268.325 24.8357 268.521 24.9426C268.72 25.0496 268.873 25.2024 268.979 25.4008C269.09 25.5961 269.145 25.8211 269.145 26.0761ZM268.46 25.8872C268.457 25.7172 268.396 25.5819 268.276 25.4811C268.155 25.3771 268.009 25.3252 267.836 25.3252C267.673 25.3252 267.534 25.3755 267.421 25.4763C267.31 25.5739 267.244 25.7108 267.218 25.8872H268.46ZM270.559 24.7821C270.753 24.7821 270.925 24.8215 271.074 24.9001C271.22 24.9757 271.339 25.0749 271.424 25.1977V24.8246H272.089V27.46C272.089 27.7025 272.04 27.9181 271.943 28.107C271.844 28.299 271.697 28.4501 271.504 28.5604C271.308 28.6738 271.072 28.7304 270.795 28.7304C270.422 28.7304 270.118 28.6438 269.879 28.4707C269.643 28.2976 269.508 28.0614 269.478 27.7622H270.134C270.167 27.882 270.243 27.9764 270.356 28.0456C270.472 28.1181 270.611 28.1542 270.776 28.1542C270.968 28.1542 271.124 28.0959 271.244 27.9795C271.362 27.8661 271.424 27.693 271.424 27.46V27.0538C271.339 27.1766 271.22 27.2788 271.069 27.3608C270.921 27.4427 270.75 27.4836 270.559 27.4836C270.337 27.4836 270.137 27.4269 269.955 27.3136C269.77 27.2002 269.626 27.0413 269.52 26.8365C269.416 26.6287 269.364 26.3909 269.364 26.1234C269.364 25.8589 269.416 25.6244 269.52 25.4197C269.626 25.2149 269.77 25.0576 269.95 24.9474C270.132 24.8371 270.335 24.7821 270.559 24.7821ZM271.424 26.1328C271.424 25.9722 271.39 25.8353 271.329 25.7219C271.265 25.6055 271.18 25.5172 271.074 25.4574C270.965 25.3944 270.852 25.363 270.729 25.363C270.606 25.363 270.493 25.393 270.389 25.4527C270.285 25.5125 270.2 25.6008 270.134 25.7172C270.07 25.8305 270.04 25.9659 270.04 26.1234C270.04 26.2809 270.07 26.4193 270.134 26.539C270.2 26.6554 270.285 26.7452 270.389 26.8082C270.495 26.8713 270.609 26.9027 270.729 26.9027C270.852 26.9027 270.965 26.8727 271.074 26.8129C271.18 26.7499 271.265 26.6618 271.329 26.5484C271.39 26.432 271.424 26.2934 271.424 26.1328ZM275.072 26.0761C275.072 26.1706 275.065 26.2556 275.053 26.3312H273.14C273.157 26.5201 273.223 26.6682 273.339 26.7751C273.454 26.8821 273.598 26.9357 273.768 26.9357C274.014 26.9357 274.189 26.8302 274.293 26.6193H275.006C274.93 26.8713 274.786 27.0791 274.571 27.2427C274.356 27.4033 274.094 27.4836 273.783 27.4836C273.53 27.4836 273.303 27.4286 273.103 27.3183C272.904 27.2049 272.748 27.046 272.635 26.8413C272.524 26.6365 272.47 26.4004 272.47 26.1328C272.47 25.862 272.524 25.6244 272.635 25.4197C272.746 25.2149 272.899 25.0576 273.098 24.9474C273.296 24.8371 273.525 24.7821 273.783 24.7821C274.031 24.7821 274.253 24.8357 274.449 24.9426C274.647 25.0496 274.8 25.2024 274.907 25.4008C275.018 25.5961 275.072 25.8211 275.072 26.0761ZM274.387 25.8872C274.385 25.7172 274.323 25.5819 274.203 25.4811C274.083 25.3771 273.936 25.3252 273.764 25.3252C273.601 25.3252 273.461 25.3755 273.348 25.4763C273.237 25.5739 273.171 25.7108 273.145 25.8872H274.387Z" fill="white"/>
<path d="M206.865 42.9085C206.865 41.3435 208.134 40.0747 209.699 40.0747H283.849C285.415 40.0747 286.683 41.3435 286.683 42.9085V71.7185C286.683 73.2835 285.415 74.5523 283.849 74.5523H209.699C208.134 74.5523 206.865 73.2835 206.865 71.7185V42.9085Z" fill="#05A4CC"/>
<path d="M214.786 48.7906H215.346V50.8104C215.346 51.0316 215.294 51.2265 215.189 51.3944C215.086 51.5625 214.94 51.6938 214.752 51.7885C214.563 51.882 214.344 51.9288 214.092 51.9288C213.839 51.9288 213.619 51.882 213.431 51.7885C213.243 51.6938 213.097 51.5625 212.993 51.3944C212.89 51.2265 212.838 51.0316 212.838 50.8104V48.7906H213.398V50.7634C213.398 50.8923 213.426 51.0071 213.482 51.1077C213.539 51.2083 213.62 51.2874 213.724 51.3445C213.827 51.401 213.95 51.4291 214.092 51.4291C214.234 51.4291 214.357 51.401 214.46 51.3445C214.565 51.2874 214.646 51.2083 214.702 51.1077C214.758 51.0071 214.786 50.8923 214.786 50.7634V48.7906ZM216.477 50.5234V51.882H215.931V49.5635H216.453V49.9574H216.48C216.534 49.8275 216.619 49.7246 216.735 49.648C216.853 49.5715 216.999 49.5333 217.172 49.5333C217.332 49.5333 217.471 49.5675 217.59 49.636C217.71 49.7042 217.802 49.8034 217.868 49.9333C217.934 50.0632 217.967 50.2205 217.966 50.4058V51.882H217.419V50.4904C217.419 50.3352 217.379 50.2141 217.298 50.1265C217.219 50.0389 217.109 49.9952 216.968 49.9952C216.872 49.9952 216.787 50.0162 216.713 50.0585C216.639 50.0998 216.581 50.1598 216.539 50.2382C216.498 50.3166 216.477 50.4117 216.477 50.5234ZM218.521 51.882V49.5635H219.068V51.882H218.521ZM218.796 49.2343C218.709 49.2343 218.635 49.2057 218.572 49.1484C218.51 49.09 218.479 49.0201 218.479 48.9387C218.479 48.856 218.51 48.7861 218.572 48.7287C218.635 48.6704 218.709 48.6411 218.796 48.6411C218.883 48.6411 218.958 48.6704 219.019 48.7287C219.082 48.7861 219.113 48.856 219.113 48.9387C219.113 49.0201 219.082 49.09 219.019 49.1484C218.958 49.2057 218.883 49.2343 218.796 49.2343ZM219.654 51.882V48.7906H220.2V49.9468H220.223C220.251 49.8906 220.291 49.8306 220.342 49.7673C220.393 49.7028 220.463 49.648 220.55 49.6027C220.638 49.5564 220.749 49.5333 220.885 49.5333C221.065 49.5333 221.226 49.5791 221.37 49.6707C221.515 49.7612 221.63 49.8955 221.714 50.0736C221.8 50.2507 221.842 50.4682 221.842 50.7258C221.842 50.9804 221.801 51.1967 221.717 51.3748C221.634 51.5531 221.52 51.6888 221.376 51.7824C221.232 51.8759 221.069 51.9229 220.887 51.9229C220.754 51.9229 220.644 51.9007 220.556 51.8563C220.469 51.8121 220.398 51.7587 220.345 51.6964C220.293 51.6329 220.252 51.5731 220.223 51.5167H220.191V51.882H219.654ZM220.19 50.7228C220.19 50.8727 220.211 51.004 220.253 51.1167C220.296 51.2295 220.358 51.3174 220.438 51.3809C220.52 51.4432 220.619 51.4744 220.734 51.4744C220.855 51.4744 220.956 51.4423 221.038 51.3778C221.119 51.3124 221.181 51.2234 221.222 51.1107C221.264 50.9969 221.285 50.8678 221.285 50.7228C221.285 50.5789 221.265 50.4509 221.223 50.3393C221.182 50.2276 221.121 50.1402 221.039 50.0767C220.958 50.0134 220.856 49.9815 220.734 49.9815C220.618 49.9815 220.519 50.0122 220.437 50.0736C220.356 50.135 220.294 50.2212 220.251 50.3317C220.21 50.4424 220.19 50.5728 220.19 50.7228ZM223.785 50.907V49.5635H224.331V51.882H223.801V51.4699H223.777C223.725 51.5998 223.639 51.7058 223.519 51.7885C223.4 51.8709 223.254 51.9122 223.08 51.9122C222.928 51.9122 222.793 51.8785 222.677 51.8112C222.561 51.7427 222.471 51.6435 222.405 51.5136C222.34 51.3828 222.307 51.2248 222.307 51.0397V49.5635H222.853V50.9551C222.853 51.102 222.893 51.2189 222.974 51.3053C223.055 51.392 223.16 51.4352 223.291 51.4352C223.372 51.4352 223.45 51.4156 223.525 51.3764C223.601 51.337 223.662 51.2786 223.711 51.2012C223.76 51.1228 223.785 51.0246 223.785 50.907ZM224.863 51.882V51.5349L226.058 50.036V50.0162H224.902V49.5635H226.727V49.9364L225.589 51.4095V51.4291H226.766V51.882H224.863ZM227.25 51.882V51.5349L228.445 50.036V50.0162H227.289V49.5635H229.114V49.9364L227.976 51.4095V51.4291H229.153V51.882H227.25ZM233.391 49.8337H232.827C232.811 49.7411 232.781 49.6591 232.738 49.5876C232.694 49.5151 232.641 49.4537 232.576 49.4034C232.512 49.3531 232.438 49.3153 232.356 49.2903C232.274 49.2641 232.186 49.2511 232.092 49.2511C231.924 49.2511 231.775 49.2934 231.645 49.3779C231.515 49.4613 231.413 49.5841 231.34 49.746C231.267 49.9071 231.23 50.1038 231.23 50.3364C231.23 50.5728 231.267 50.7721 231.34 50.9341C231.414 51.0952 231.516 51.2168 231.645 51.2994C231.775 51.3809 231.923 51.4215 232.09 51.4215C232.183 51.4215 232.269 51.4095 232.35 51.3854C232.431 51.3601 232.504 51.3235 232.569 51.2751C232.634 51.2269 232.689 51.1674 232.733 51.097C232.778 51.0267 232.81 50.9462 232.827 50.8555L233.391 50.8585C233.37 51.0054 233.324 51.1433 233.254 51.2723C233.185 51.401 233.093 51.5148 232.981 51.6133C232.868 51.711 232.736 51.7873 232.585 51.8428C232.434 51.8971 232.267 51.9243 232.083 51.9243C231.811 51.9243 231.568 51.8615 231.355 51.7356C231.142 51.6097 230.974 51.4281 230.851 51.1906C230.728 50.9532 230.667 50.6684 230.667 50.3364C230.667 50.0032 230.729 49.7184 230.852 49.482C230.976 49.2445 231.145 49.0629 231.358 48.937C231.571 48.8111 231.813 48.7483 232.083 48.7483C232.255 48.7483 232.415 48.7724 232.563 48.8208C232.711 48.869 232.842 48.9401 232.958 49.0336C233.074 49.1262 233.169 49.24 233.243 49.3748C233.319 49.5087 233.368 49.6615 233.391 49.8337ZM234.891 51.9273C234.665 51.9273 234.469 51.8775 234.303 51.7779C234.137 51.6782 234.008 51.5389 233.916 51.3596C233.826 51.1806 233.78 50.9712 233.78 50.7317C233.78 50.4923 233.826 50.2826 233.916 50.1024C234.008 49.9222 234.137 49.7824 234.303 49.6828C234.469 49.5831 234.665 49.5333 234.891 49.5333C235.118 49.5333 235.314 49.5831 235.48 49.6828C235.646 49.7824 235.774 49.9222 235.865 50.1024C235.956 50.2826 236.002 50.4923 236.002 50.7317C236.002 50.9712 235.956 51.1806 235.865 51.3596C235.774 51.5389 235.646 51.6782 235.48 51.7779C235.314 51.8775 235.118 51.9273 234.891 51.9273ZM234.894 51.4895C235.017 51.4895 235.12 51.4558 235.202 51.3885C235.285 51.32 235.346 51.2283 235.386 51.1136C235.428 50.999 235.448 50.8711 235.448 50.7303C235.448 50.5884 235.428 50.4602 235.386 50.3454C235.346 50.2297 235.285 50.1376 235.202 50.0691C235.12 50.0006 235.017 49.9664 234.894 49.9664C234.769 49.9664 234.664 50.0006 234.58 50.0691C234.498 50.1376 234.436 50.2297 234.395 50.3454C234.354 50.4602 234.334 50.5884 234.334 50.7303C234.334 50.8711 234.354 50.999 234.395 51.1136C234.436 51.2283 234.498 51.32 234.58 51.3885C234.664 51.4558 234.769 51.4895 234.894 51.4895ZM237.012 48.7906V51.882H236.466V48.7906H237.012ZM238.122 48.7906V51.882H237.574V48.7906H238.122ZM239.709 51.9273C239.477 51.9273 239.276 51.8789 239.106 51.7824C238.939 51.6848 238.809 51.5469 238.719 51.3689C238.629 51.1896 238.582 50.9787 238.582 50.7362C238.582 50.4977 238.629 50.2885 238.719 50.1083C238.811 49.9272 238.939 49.7864 239.102 49.6858C239.267 49.5841 239.458 49.5333 239.68 49.5333C239.824 49.5333 239.959 49.5564 240.084 49.6027C240.214 49.648 240.325 49.7184 240.424 49.8141C240.521 49.9097 240.599 50.0313 240.656 50.1794C240.712 50.3263 240.741 50.5013 240.741 50.7046V50.8722H238.84V50.5038H240.216C240.216 50.3992 240.193 50.3062 240.148 50.2247C240.103 50.1421 240.042 50.0771 239.964 50.0299C239.883 49.9827 239.794 49.9591 239.687 49.9591C239.576 49.9591 239.477 49.9862 239.395 50.0405C239.31 50.0939 239.243 50.1643 239.196 50.2519C239.149 50.3383 239.125 50.4335 239.125 50.5371V50.8585C239.125 50.9934 239.149 51.1091 239.199 51.2057C239.248 51.3013 239.317 51.3748 239.406 51.4262C239.494 51.4765 239.598 51.5016 239.716 51.5016C239.796 51.5016 239.869 51.4905 239.933 51.4685C239.997 51.4454 240.053 51.4116 240.101 51.3672C240.148 51.323 240.183 51.2683 240.207 51.2028L240.717 51.26C240.686 51.3948 240.625 51.5127 240.533 51.6133C240.443 51.7129 240.33 51.7904 240.19 51.8459C240.049 51.9002 239.89 51.9273 239.709 51.9273ZM242.212 52.7997C242.013 52.7997 241.846 52.773 241.704 52.7199C241.565 52.6674 241.451 52.5971 241.366 52.5085C241.279 52.4199 241.22 52.3217 241.187 52.214L241.68 52.0948C241.702 52.1401 241.735 52.185 241.775 52.2291C241.817 52.2745 241.874 52.3118 241.947 52.3408C242.018 52.3711 242.11 52.3862 242.219 52.3862C242.375 52.3862 242.502 52.3484 242.604 52.2731C242.705 52.1984 242.757 52.0756 242.757 51.9047V51.4654H242.729C242.703 51.5216 242.66 51.5795 242.606 51.639C242.552 51.6983 242.481 51.7481 242.394 51.7885C242.306 51.8286 242.195 51.8487 242.063 51.8487C241.884 51.8487 241.723 51.8071 241.579 51.7235C241.435 51.639 241.319 51.5131 241.234 51.3462C241.149 51.178 241.107 50.9679 241.107 50.7152C241.107 50.4606 241.149 50.2457 241.234 50.0708C241.319 49.8946 241.435 49.7612 241.579 49.6707C241.725 49.5791 241.886 49.5333 242.065 49.5333C242.2 49.5333 242.311 49.5564 242.398 49.6027C242.488 49.648 242.559 49.7028 242.611 49.7673C242.663 49.8306 242.703 49.8906 242.729 49.9468H242.76V49.5635H243.298V51.9198C243.298 52.1179 243.251 52.282 243.156 52.4119C243.062 52.5416 242.934 52.6389 242.769 52.7031C242.606 52.7676 242.42 52.7997 242.212 52.7997ZM242.214 51.4201C242.33 51.4201 242.429 51.392 242.512 51.3356C242.592 51.2791 242.653 51.1981 242.696 51.0926C242.738 50.987 242.76 50.8602 242.76 50.7121C242.76 50.5662 242.738 50.4384 242.696 50.3289C242.656 50.2191 242.594 50.134 242.512 50.0736C242.431 50.0122 242.332 49.9815 242.214 49.9815C242.094 49.9815 241.992 50.0134 241.91 50.0767C241.829 50.1402 241.768 50.2271 241.725 50.3378C241.685 50.4474 241.664 50.5723 241.664 50.7121C241.664 50.8541 241.685 50.9783 241.725 51.085C241.768 51.1906 241.829 51.2732 241.912 51.3325C241.995 51.3908 242.096 51.4201 242.214 51.4201ZM244.885 51.9273C244.654 51.9273 244.453 51.8789 244.283 51.7824C244.115 51.6848 243.985 51.5469 243.896 51.3689C243.806 51.1896 243.759 50.9787 243.759 50.7362C243.759 50.4977 243.806 50.2885 243.896 50.1083C243.988 49.9272 244.115 49.7864 244.278 49.6858C244.443 49.5841 244.635 49.5333 244.857 49.5333C245.001 49.5333 245.135 49.5564 245.26 49.6027C245.39 49.648 245.501 49.7184 245.601 49.8141C245.697 49.9097 245.775 50.0313 245.832 50.1794C245.889 50.3263 245.917 50.5013 245.917 50.7046V50.8722H244.016V50.5038H245.393C245.393 50.3992 245.369 50.3062 245.324 50.2247C245.279 50.1421 245.218 50.0771 245.14 50.0299C245.06 49.9827 244.97 49.9591 244.864 49.9591C244.753 49.9591 244.654 49.9862 244.571 50.0405C244.486 50.0939 244.42 50.1643 244.373 50.2519C244.325 50.3383 244.302 50.4335 244.302 50.5371V50.8585C244.302 50.9934 244.325 51.1091 244.375 51.2057C244.424 51.3013 244.493 51.3748 244.583 51.4262C244.67 51.4765 244.774 51.5016 244.892 51.5016C244.972 51.5016 245.046 51.4905 245.109 51.4685C245.173 51.4454 245.23 51.4116 245.277 51.3672C245.324 51.323 245.36 51.2683 245.383 51.2028L245.893 51.26C245.863 51.3948 245.801 51.5127 245.709 51.6133C245.619 51.7129 245.506 51.7904 245.364 51.8459C245.225 51.9002 245.067 51.9273 244.885 51.9273ZM247.912 51.882L247.256 49.5635H247.813L248.222 51.1936H248.243L248.659 49.5635H249.209L249.627 51.1847H249.648L250.05 49.5635H250.609L249.953 51.882H249.384L248.949 50.3152H248.916L248.482 51.882H247.912ZM250.989 51.882V49.5635H251.537V51.882H250.989ZM251.266 49.2343C251.178 49.2343 251.105 49.2057 251.041 49.1484C250.98 49.09 250.949 49.0201 250.949 48.9387C250.949 48.856 250.98 48.7861 251.041 48.7287C251.105 48.6704 251.178 48.6411 251.266 48.6411C251.353 48.6411 251.426 48.6704 251.488 48.7287C251.551 48.7861 251.582 48.856 251.582 48.9387C251.582 49.0201 251.551 49.09 251.488 49.1484C251.426 49.2057 251.353 49.2343 251.266 49.2343ZM252.645 48.7906V51.882H252.099V48.7906H252.645ZM253.755 48.7906V51.882H253.207V48.7906H253.755ZM255.915 50.5234V51.882H255.37V48.7906H255.904V49.9574H255.932C255.986 49.8266 256.069 49.7234 256.185 49.648C256.298 49.5715 256.444 49.5333 256.622 49.5333C256.782 49.5333 256.924 49.567 257.042 49.6343C257.162 49.7019 257.254 49.8004 257.321 49.9302C257.387 50.0601 257.42 50.2186 257.42 50.4058V51.882H256.874V50.4904C256.874 50.3343 256.834 50.2131 256.751 50.1265C256.673 50.0389 256.562 49.9952 256.418 49.9952C256.322 49.9952 256.234 50.0162 256.159 50.0585C256.083 50.0998 256.024 50.1598 255.979 50.2382C255.937 50.3166 255.915 50.4117 255.915 50.5234ZM259.004 51.9273C258.77 51.9273 258.57 51.8789 258.402 51.7824C258.232 51.6848 258.105 51.5469 258.012 51.3689C257.923 51.1896 257.878 50.9787 257.878 50.7362C257.878 50.4977 257.923 50.2885 258.012 50.1083C258.105 49.9272 258.232 49.7864 258.397 49.6858C258.56 49.5841 258.754 49.5333 258.974 49.5333C259.118 49.5333 259.252 49.5564 259.38 49.6027C259.507 49.648 259.621 49.7184 259.717 49.8141C259.817 49.9097 259.892 50.0313 259.949 50.1794C260.006 50.3263 260.034 50.5013 260.034 50.7046V50.8722H258.133V50.5038H259.51C259.51 50.3992 259.486 50.3062 259.444 50.2247C259.399 50.1421 259.337 50.0771 259.257 50.0299C259.179 49.9827 259.087 49.9591 258.983 49.9591C258.87 49.9591 258.773 49.9862 258.688 50.0405C258.603 50.0939 258.537 50.1643 258.489 50.2519C258.445 50.3383 258.421 50.4335 258.419 50.5371V50.8585C258.419 50.9934 258.445 51.1091 258.492 51.2057C258.541 51.3013 258.612 51.3748 258.7 51.4262C258.789 51.4765 258.891 51.5016 259.011 51.5016C259.089 51.5016 259.162 51.4905 259.226 51.4685C259.29 51.4454 259.347 51.4116 259.394 51.3672C259.441 51.323 259.477 51.2683 259.5 51.2028L260.013 51.26C259.98 51.3948 259.918 51.5127 259.828 51.6133C259.739 51.7129 259.623 51.7904 259.484 51.8459C259.344 51.9002 259.184 51.9273 259.004 51.9273ZM261.042 48.7906V51.882H260.497V48.7906H261.042ZM261.604 52.7515V49.5635H262.143V49.9468H262.173C262.202 49.8906 262.242 49.8306 262.294 49.7673C262.343 49.7028 262.414 49.648 262.502 49.6027C262.589 49.5564 262.7 49.5333 262.837 49.5333C263.016 49.5333 263.177 49.5791 263.321 49.6707C263.465 49.7612 263.581 49.8955 263.666 50.0736C263.751 50.2507 263.793 50.4682 263.793 50.7258C263.793 50.9804 263.751 51.1967 263.668 51.3748C263.586 51.5531 263.47 51.6888 263.328 51.7824C263.184 51.8759 263.021 51.9229 262.837 51.9229C262.705 51.9229 262.596 51.9007 262.506 51.8563C262.419 51.8121 262.35 51.7587 262.296 51.6964C262.244 51.6329 262.204 51.5731 262.173 51.5167H262.152V52.7515H261.604ZM262.14 50.7228C262.14 50.8727 262.162 51.004 262.204 51.1167C262.247 51.2295 262.31 51.3174 262.391 51.3809C262.471 51.4432 262.57 51.4744 262.686 51.4744C262.806 51.4744 262.908 51.4423 262.988 51.3778C263.071 51.3124 263.132 51.2234 263.172 51.1107C263.215 50.9969 263.236 50.8678 263.236 50.7228C263.236 50.5789 263.215 50.4509 263.175 50.3393C263.134 50.2276 263.073 50.1402 262.99 50.0767C262.908 50.0134 262.806 49.9815 262.686 49.9815C262.568 49.9815 262.469 50.0122 262.388 50.0736C262.306 50.135 262.244 50.2212 262.202 50.3317C262.162 50.4424 262.14 50.5728 262.14 50.7228ZM265.657 52.7515C265.581 52.7515 265.512 52.7454 265.449 52.7333C265.387 52.7222 265.335 52.7092 265.3 52.6941L265.425 52.2683C265.505 52.2915 265.576 52.3026 265.638 52.3016C265.701 52.3007 265.756 52.2811 265.803 52.2428C265.853 52.2055 265.893 52.1432 265.926 52.0556L265.973 51.9304L265.132 49.5635H265.711L266.245 51.3145H266.271L266.807 49.5635H267.388L266.459 52.1628C266.415 52.2856 266.358 52.3907 266.287 52.4783C266.214 52.5668 266.126 52.6341 266.023 52.6804C265.921 52.7279 265.798 52.7515 265.657 52.7515ZM268.698 51.9273C268.471 51.9273 268.275 51.8775 268.108 51.7779C267.942 51.6782 267.815 51.5389 267.723 51.3596C267.631 51.1806 267.586 50.9712 267.586 50.7317C267.586 50.4923 267.631 50.2826 267.723 50.1024C267.815 49.9222 267.942 49.7824 268.108 49.6828C268.275 49.5831 268.471 49.5333 268.698 49.5333C268.925 49.5333 269.121 49.5831 269.286 49.6828C269.451 49.7824 269.581 49.9222 269.671 50.1024C269.763 50.2826 269.808 50.4923 269.808 50.7317C269.808 50.9712 269.763 51.1806 269.671 51.3596C269.581 51.5389 269.451 51.6782 269.286 51.7779C269.121 51.8775 268.925 51.9273 268.698 51.9273ZM268.7 51.4895C268.823 51.4895 268.925 51.4558 269.007 51.3885C269.09 51.32 269.152 51.2283 269.192 51.1136C269.234 50.999 269.255 50.8711 269.255 50.7303C269.255 50.5884 269.234 50.4602 269.192 50.3454C269.152 50.2297 269.09 50.1376 269.007 50.0691C268.925 50.0006 268.823 49.9664 268.7 49.9664C268.575 49.9664 268.469 50.0006 268.386 50.0691C268.304 50.1376 268.242 50.2297 268.2 50.3454C268.16 50.4602 268.141 50.5884 268.141 50.7303C268.141 50.8711 268.16 50.999 268.2 51.1136C268.242 51.2283 268.304 51.32 268.386 51.3885C268.469 51.4558 268.575 51.4895 268.7 51.4895ZM271.749 50.907V49.5635H272.297V51.882H271.766V51.4699H271.742C271.69 51.5998 271.605 51.7058 271.485 51.7885C271.367 51.8709 271.22 51.9122 271.045 51.9122C270.892 51.9122 270.76 51.8785 270.642 51.8112C270.526 51.7427 270.436 51.6435 270.37 51.5136C270.304 51.3828 270.273 51.2248 270.273 51.0397V49.5635H270.819V50.9551C270.819 51.102 270.859 51.2189 270.939 51.3053C271.019 51.392 271.126 51.4352 271.256 51.4352C271.336 51.4352 271.414 51.4156 271.489 51.3764C271.565 51.337 271.629 51.2786 271.676 51.2012C271.726 51.1228 271.749 51.0246 271.749 50.907ZM213.36 57.1356V58.4941H212.814V56.1756H213.336V56.5695H213.363C213.416 56.4397 213.501 56.3367 213.618 56.2602C213.736 56.1837 213.881 56.1454 214.054 56.1454C214.214 56.1454 214.354 56.1797 214.472 56.2481C214.592 56.3164 214.685 56.4156 214.75 56.5454C214.817 56.6753 214.849 56.8326 214.848 57.018V58.4941H214.302V57.1025C214.302 56.9474 214.262 56.8262 214.181 56.7386C214.101 56.651 213.991 56.6073 213.85 56.6073C213.755 56.6073 213.67 56.6283 213.595 56.6706C213.522 56.7119 213.464 56.7719 213.422 56.8503C213.381 56.9287 213.36 57.0239 213.36 57.1356ZM216.071 58.5409C215.924 58.5409 215.792 58.5147 215.674 58.4625C215.557 58.4091 215.465 58.3307 215.396 58.2271C215.329 58.1234 215.295 57.9954 215.295 57.8436C215.295 57.7127 215.319 57.6046 215.367 57.5191C215.416 57.4336 215.482 57.3651 215.565 57.3136C215.649 57.2624 215.743 57.2237 215.848 57.1975C215.953 57.1703 216.062 57.1507 216.175 57.1387C216.311 57.1245 216.421 57.112 216.506 57.1009C216.59 57.0888 216.652 57.0706 216.69 57.0466C216.729 57.0213 216.749 56.9826 216.749 56.9304V56.9212C216.749 56.8076 216.715 56.7195 216.648 56.6571C216.58 56.5948 216.483 56.5636 216.356 56.5636C216.222 56.5636 216.116 56.5927 216.038 56.651C215.96 56.7093 215.908 56.7783 215.881 56.8579L215.371 56.7854C215.411 56.6446 215.477 56.5268 215.57 56.4321C215.662 56.3367 215.776 56.2651 215.909 56.2179C216.043 56.1695 216.191 56.1454 216.353 56.1454C216.465 56.1454 216.576 56.1584 216.687 56.1846C216.798 56.2108 216.899 56.254 216.99 56.3145C217.082 56.3738 217.155 56.4548 217.211 56.5575C217.267 56.6602 217.295 56.7884 217.295 56.9424V58.4941H216.77V58.1756H216.752C216.718 58.24 216.672 58.3005 216.611 58.3567C216.552 58.4122 216.477 58.4568 216.386 58.4911C216.297 58.5244 216.192 58.5409 216.071 58.5409ZM216.213 58.1394C216.322 58.1394 216.418 58.1177 216.498 58.0745C216.579 58.0303 216.641 57.9718 216.684 57.8995C216.728 57.827 216.75 57.7479 216.75 57.6624V57.3892C216.733 57.4034 216.704 57.4164 216.663 57.4284C216.622 57.4404 216.577 57.4511 216.527 57.46C216.476 57.4693 216.427 57.4773 216.377 57.4844C216.328 57.4915 216.285 57.4974 216.249 57.5023C216.168 57.5134 216.095 57.5316 216.03 57.5569C215.966 57.5819 215.915 57.6171 215.878 57.6624C215.84 57.7066 215.822 57.764 215.822 57.8346C215.822 57.9352 215.859 58.0112 215.932 58.0625C216.006 58.1137 216.099 58.1394 216.213 58.1394ZM219.833 56.1756L219.007 58.4941H218.403L217.577 56.1756H218.16L218.693 57.8979H218.717L219.251 56.1756H219.833ZM220.211 58.4941V56.1756H220.757V58.4941H220.211ZM220.485 55.8465C220.399 55.8465 220.324 55.8179 220.262 55.7605C220.2 55.7022 220.168 55.6323 220.168 55.5508C220.168 55.4681 220.2 55.3982 220.262 55.3409C220.324 55.2825 220.399 55.2532 220.485 55.2532C220.573 55.2532 220.647 55.2825 220.709 55.3409C220.771 55.3982 220.802 55.4681 220.802 55.5508C220.802 55.6323 220.771 55.7022 220.709 55.7605C220.647 55.8179 220.573 55.8465 220.485 55.8465ZM222.327 59.4118C222.131 59.4118 221.963 59.3851 221.822 59.332C221.681 59.2796 221.568 59.2092 221.482 59.1206C221.397 59.0321 221.337 58.9338 221.304 58.8262L221.796 58.7069C221.818 58.7522 221.85 58.7971 221.892 58.8413C221.935 58.8866 221.992 58.9239 222.063 58.953C222.136 58.9832 222.227 58.9983 222.336 58.9983C222.491 58.9983 222.62 58.9605 222.721 58.8852C222.823 58.8106 222.874 58.6878 222.874 58.5168V58.0776H222.846C222.818 58.1338 222.777 58.1916 222.723 58.2511C222.669 58.3104 222.599 58.3602 222.51 58.4006C222.422 58.4408 222.312 58.4608 222.179 58.4608C222.001 58.4608 221.84 58.4193 221.695 58.3357C221.551 58.2511 221.436 58.1253 221.351 57.9583C221.266 57.7902 221.224 57.58 221.224 57.3273C221.224 57.0728 221.266 56.8579 221.351 56.6829C221.436 56.5067 221.551 56.3733 221.696 56.2829C221.841 56.1912 222.003 56.1454 222.181 56.1454C222.317 56.1454 222.429 56.1686 222.516 56.2148C222.604 56.2602 222.675 56.315 222.727 56.3794C222.78 56.4427 222.819 56.5027 222.846 56.5589H222.877V56.1756H223.416V58.5319C223.416 58.7301 223.368 58.8942 223.274 59.0241C223.179 59.1537 223.05 59.251 222.886 59.3152C222.722 59.3797 222.535 59.4118 222.327 59.4118ZM222.332 58.0322C222.448 58.0322 222.546 58.0041 222.628 57.9477C222.709 57.8913 222.771 57.8103 222.813 57.7047C222.856 57.5991 222.877 57.4723 222.877 57.3243C222.877 57.1783 222.856 57.0506 222.813 56.941C222.772 56.8312 222.711 56.7462 222.629 56.6857C222.549 56.6243 222.45 56.5936 222.332 56.5936C222.21 56.5936 222.109 56.6255 222.027 56.6888C221.945 56.7523 221.884 56.8392 221.843 56.95C221.802 57.0595 221.781 57.1845 221.781 57.3243C221.781 57.4662 221.802 57.5904 221.843 57.6971C221.885 57.8027 221.947 57.8854 222.028 57.9446C222.111 58.003 222.212 58.0322 222.332 58.0322ZM224.643 58.5409C224.496 58.5409 224.364 58.5147 224.246 58.4625C224.129 58.4091 224.036 58.3307 223.968 58.2271C223.901 58.1234 223.867 57.9954 223.867 57.8436C223.867 57.7127 223.891 57.6046 223.939 57.5191C223.988 57.4336 224.054 57.3651 224.137 57.3136C224.221 57.2624 224.315 57.2237 224.419 57.1975C224.525 57.1703 224.634 57.1507 224.747 57.1387C224.883 57.1245 224.993 57.112 225.078 57.1009C225.162 57.0888 225.224 57.0706 225.262 57.0466C225.301 57.0213 225.321 56.9826 225.321 56.9304V56.9212C225.321 56.8076 225.287 56.7195 225.22 56.6571C225.152 56.5948 225.055 56.5636 224.928 56.5636C224.794 56.5636 224.688 56.5927 224.61 56.651C224.532 56.7093 224.48 56.7783 224.453 56.8579L223.942 56.7854C223.983 56.6446 224.049 56.5268 224.142 56.4321C224.234 56.3367 224.347 56.2651 224.481 56.2179C224.615 56.1695 224.763 56.1454 224.925 56.1454C225.037 56.1454 225.148 56.1584 225.259 56.1846C225.369 56.2108 225.471 56.254 225.562 56.3145C225.654 56.3738 225.727 56.4548 225.783 56.5575C225.839 56.6602 225.867 56.7884 225.867 56.9424V58.4941H225.342V58.1756H225.324C225.29 58.24 225.244 58.3005 225.183 58.3567C225.124 58.4122 225.049 58.4568 224.958 58.4911C224.869 58.5244 224.764 58.5409 224.643 58.5409ZM224.785 58.1394C224.894 58.1394 224.99 58.1177 225.07 58.0745C225.151 58.0303 225.212 57.9718 225.256 57.8995C225.3 57.827 225.322 57.7479 225.322 57.6624V57.3892C225.305 57.4034 225.276 57.4164 225.234 57.4284C225.194 57.4404 225.149 57.4511 225.099 57.46C225.048 57.4693 224.998 57.4773 224.949 57.4844C224.9 57.4915 224.857 57.4974 224.821 57.5023C224.739 57.5134 224.666 57.5316 224.602 57.5569C224.538 57.5819 224.487 57.6171 224.45 57.6624C224.412 57.7066 224.394 57.764 224.394 57.8346C224.394 57.9352 224.431 58.0112 224.504 58.0625C224.577 58.1137 224.671 58.1394 224.785 58.1394ZM227.574 56.1756V56.5983H226.241V56.1756H227.574ZM226.57 55.6202H227.117V57.7968C227.117 57.8702 227.128 57.9267 227.15 57.9659C227.173 58.0041 227.203 58.0303 227.24 58.0443C227.278 58.0584 227.319 58.0655 227.364 58.0655C227.399 58.0655 227.43 58.0629 227.458 58.058C227.487 58.0528 227.509 58.0483 227.524 58.0443L227.616 58.4715C227.587 58.4816 227.546 58.4927 227.491 58.5048C227.438 58.5168 227.372 58.5239 227.295 58.5258C227.158 58.5298 227.035 58.5093 226.925 58.4639C226.815 58.4176 226.728 58.3463 226.664 58.2495C226.601 58.1529 226.569 58.0322 226.57 57.8872V55.6202ZM229.033 58.5395C228.8 58.5395 228.6 58.4911 228.43 58.3945C228.262 58.297 228.133 58.159 228.042 57.981C227.952 57.8018 227.907 57.5909 227.907 57.3484C227.907 57.1098 227.952 56.9006 228.042 56.7204C228.134 56.5393 228.262 56.3986 228.426 56.298C228.59 56.1962 228.783 56.1454 229.004 56.1454C229.147 56.1454 229.282 56.1686 229.409 56.2148C229.536 56.2602 229.649 56.3306 229.747 56.4262C229.845 56.5218 229.923 56.6434 229.979 56.7915C230.036 56.9384 230.064 57.1134 230.064 57.3167V57.4844H228.163V57.116H229.54C229.539 57.0114 229.516 56.9183 229.472 56.8369C229.428 56.7542 229.366 56.6893 229.286 56.642C229.208 56.5948 229.116 56.5712 229.012 56.5712C228.9 56.5712 228.802 56.5983 228.717 56.6527C228.633 56.706 228.567 56.7764 228.519 56.864C228.473 56.9504 228.45 57.0456 228.449 57.1493V57.4707C228.449 57.6055 228.473 57.7212 228.523 57.8178C228.572 57.9135 228.641 57.9869 228.729 58.0384C228.818 58.0887 228.922 58.1137 229.04 58.1137C229.12 58.1137 229.192 58.1026 229.256 58.0806C229.32 58.0575 229.376 58.0237 229.424 57.9793C229.471 57.9352 229.507 57.8804 229.531 57.815L230.041 57.8721C230.009 58.007 229.947 58.1248 229.857 58.2254C229.767 58.3251 229.653 58.4025 229.513 58.458C229.373 58.5123 229.213 58.5395 229.033 58.5395ZM231.92 59.3636C231.845 59.3636 231.777 59.3575 231.713 59.3455C231.651 59.3344 231.601 59.3214 231.564 59.3063L231.69 58.8805C231.77 58.9036 231.841 58.9147 231.903 58.9138C231.966 58.9128 232.021 58.8932 232.068 58.855C232.116 58.8177 232.157 58.7553 232.19 58.6677L232.237 58.5426L231.396 56.1756H231.976L232.51 57.9267H232.534L233.07 56.1756H233.651L232.723 58.7749C232.68 58.8977 232.622 59.0028 232.551 59.0904C232.479 59.179 232.392 59.2463 232.288 59.2926C232.186 59.34 232.063 59.3636 231.92 59.3636ZM234.962 58.5395C234.736 58.5395 234.539 58.4897 234.373 58.39C234.207 58.2903 234.078 58.151 233.987 57.9718C233.896 57.7928 233.851 57.5833 233.851 57.3439C233.851 57.1044 233.896 56.8947 233.987 56.7145C234.078 56.5344 234.207 56.3945 234.373 56.2949C234.539 56.1952 234.736 56.1454 234.962 56.1454C235.188 56.1454 235.385 56.1952 235.551 56.2949C235.717 56.3945 235.845 56.5344 235.935 56.7145C236.027 56.8947 236.073 57.1044 236.073 57.3439C236.073 57.5833 236.027 57.7928 235.935 57.9718C235.845 58.151 235.717 58.2903 235.551 58.39C235.385 58.4897 235.188 58.5395 234.962 58.5395ZM234.965 58.1017C235.088 58.1017 235.19 58.0679 235.273 58.0006C235.355 57.9321 235.417 57.8405 235.457 57.7257C235.498 57.6112 235.519 57.4832 235.519 57.3424C235.519 57.2005 235.498 57.0723 235.457 56.9575C235.417 56.8418 235.355 56.7497 235.273 56.6812C235.19 56.6128 235.088 56.5785 234.965 56.5785C234.839 56.5785 234.734 56.6128 234.651 56.6812C234.568 56.7497 234.507 56.8418 234.465 56.9575C234.425 57.0723 234.405 57.2005 234.405 57.3424C234.405 57.4832 234.425 57.6112 234.465 57.7257C234.507 57.8405 234.568 57.9321 234.651 58.0006C234.734 58.0679 234.839 58.1017 234.965 58.1017ZM238.015 57.5191V56.1756H238.561V58.4941H238.032V58.0821H238.006C237.954 58.2119 237.869 58.318 237.749 58.4006C237.631 58.483 237.484 58.5244 237.309 58.5244C237.158 58.5244 237.024 58.4906 236.906 58.4233C236.79 58.3548 236.7 58.2556 236.634 58.1258C236.57 57.9949 236.537 57.8369 236.537 57.6518V56.1756H237.083V57.5673C237.083 57.7141 237.123 57.831 237.203 57.9175C237.283 58.0041 237.39 58.0473 237.522 58.0473C237.602 58.0473 237.68 58.0277 237.756 57.9885C237.831 57.9491 237.893 57.8908 237.94 57.8133C237.989 57.7349 238.015 57.6367 238.015 57.5191ZM239.123 58.4941V56.1756H239.652V56.562H239.676C239.718 56.4281 239.791 56.3251 239.895 56.2526C239.997 56.1792 240.117 56.1423 240.249 56.1423C240.28 56.1423 240.313 56.144 240.351 56.1468C240.389 56.149 240.419 56.1525 240.445 56.1575V56.6602C240.422 56.6522 240.384 56.6451 240.334 56.639C240.285 56.6319 240.238 56.6283 240.19 56.6283C240.091 56.6283 240.001 56.6501 239.924 56.6933C239.843 56.7355 239.782 56.7946 239.737 56.8699C239.692 56.9455 239.668 57.0324 239.668 57.1311V58.4941H239.123ZM243.341 57.5191V56.1756H243.886V58.4941H243.357V58.0821H243.334C243.279 58.2119 243.194 58.318 243.074 58.4006C242.956 58.483 242.809 58.5244 242.634 58.5244C242.483 58.5244 242.349 58.4906 242.233 58.4233C242.117 58.3548 242.025 58.2556 241.961 58.1258C241.895 57.9949 241.862 57.8369 241.862 57.6518V56.1756H242.408V57.5673C242.408 57.7141 242.45 57.831 242.531 57.9175C242.611 58.0041 242.715 58.0473 242.847 58.0473C242.927 58.0473 243.005 58.0277 243.081 57.9885C243.156 57.9491 243.218 57.8908 243.267 57.8133C243.315 57.7349 243.341 57.6367 243.341 57.5191ZM244.996 57.1356V58.4941H244.448V56.1756H244.97V56.5695H244.998C245.05 56.4397 245.135 56.3367 245.253 56.2602C245.371 56.1837 245.516 56.1454 245.69 56.1454C245.848 56.1454 245.988 56.1797 246.108 56.2481C246.226 56.3164 246.321 56.4156 246.385 56.5454C246.451 56.6753 246.484 56.8326 246.484 57.018V58.4941H245.936V57.1025C245.936 56.9474 245.896 56.8262 245.815 56.7386C245.737 56.651 245.626 56.6073 245.485 56.6073C245.39 56.6073 245.305 56.6283 245.23 56.6706C245.157 56.7119 245.1 56.7719 245.057 56.8503C245.015 56.9287 244.996 57.0239 244.996 57.1356ZM247.039 58.4941V56.1756H247.584V58.4941H247.039ZM247.313 55.8465C247.228 55.8465 247.152 55.8179 247.091 55.7605C247.027 55.7022 246.996 55.6323 246.996 55.5508C246.996 55.4681 247.027 55.3982 247.091 55.3409C247.152 55.2825 247.228 55.2532 247.313 55.2532C247.4 55.2532 247.476 55.2825 247.537 55.3409C247.598 55.3982 247.631 55.4681 247.631 55.5508C247.631 55.6323 247.598 55.7022 247.537 55.7605C247.476 55.8179 247.4 55.8465 247.313 55.8465ZM250.217 56.1756L249.393 58.4941H248.789L247.962 56.1756H248.545L249.079 57.8979H249.103L249.636 56.1756H250.217ZM251.544 58.5395C251.311 58.5395 251.11 58.4911 250.942 58.3945C250.775 58.297 250.645 58.159 250.553 57.981C250.463 57.8018 250.418 57.5909 250.418 57.3484C250.418 57.1098 250.463 56.9006 250.553 56.7204C250.645 56.5393 250.772 56.3986 250.937 56.298C251.1 56.1962 251.294 56.1454 251.516 56.1454C251.658 56.1454 251.792 56.1686 251.92 56.2148C252.047 56.2602 252.161 56.3306 252.258 56.4262C252.357 56.5218 252.435 56.6434 252.491 56.7915C252.546 56.9384 252.574 57.1134 252.574 57.3167V57.4844H250.675V57.116H252.052C252.05 57.0114 252.028 56.9183 251.984 56.8369C251.939 56.7542 251.877 56.6893 251.797 56.642C251.719 56.5948 251.627 56.5712 251.523 56.5712C251.412 56.5712 251.313 56.5983 251.228 56.6527C251.143 56.706 251.077 56.7764 251.03 56.864C250.985 56.9504 250.961 57.0456 250.959 57.1493V57.4707C250.959 57.6055 250.985 57.7212 251.034 57.8178C251.084 57.9135 251.152 57.9869 251.24 58.0384C251.329 58.0887 251.433 58.1137 251.551 58.1137C251.632 58.1137 251.703 58.1026 251.766 58.0806C251.832 58.0575 251.887 58.0237 251.934 57.9793C251.981 57.9352 252.017 57.8804 252.043 57.815L252.553 57.8721C252.52 58.007 252.458 58.1248 252.368 58.2254C252.279 58.3251 252.163 58.4025 252.024 58.458C251.884 58.5123 251.724 58.5395 251.544 58.5395ZM253.037 58.4941V56.1756H253.566V56.562H253.592C253.634 56.4281 253.705 56.3251 253.809 56.2526C253.913 56.1792 254.031 56.1423 254.163 56.1423C254.194 56.1423 254.227 56.144 254.265 56.1468C254.303 56.149 254.333 56.1525 254.359 56.1575V56.6602C254.336 56.6522 254.3 56.6451 254.248 56.639C254.199 56.6319 254.151 56.6283 254.107 56.6283C254.005 56.6283 253.918 56.6501 253.837 56.6933C253.759 56.7355 253.696 56.7946 253.651 56.8699C253.606 56.9455 253.582 57.0324 253.582 57.1311V58.4941H253.037ZM256.555 56.7884L256.057 56.8428C256.043 56.7925 256.017 56.7452 255.984 56.7008C255.949 56.6567 255.901 56.6208 255.845 56.5936C255.786 56.5665 255.715 56.553 255.63 56.553C255.516 56.553 255.42 56.5776 255.342 56.6269C255.266 56.6763 255.228 56.74 255.231 56.8187C255.228 56.886 255.254 56.941 255.304 56.9833C255.356 57.0255 255.438 57.0603 255.556 57.0874L255.953 57.1719C256.173 57.2192 256.336 57.294 256.442 57.3968C256.548 57.4995 256.603 57.6339 256.605 57.7999C256.603 57.9458 256.56 58.0745 256.477 58.1862C256.392 58.297 256.277 58.3834 256.128 58.4457C255.979 58.5083 255.807 58.5395 255.616 58.5395C255.33 58.5395 255.103 58.48 254.928 58.3614C254.756 58.2415 254.652 58.075 254.619 57.8617L255.153 57.8103C255.176 57.9151 255.228 57.994 255.306 58.0473C255.384 58.1007 255.488 58.1274 255.613 58.1274C255.743 58.1274 255.847 58.1007 255.925 58.0473C256.005 57.994 256.045 57.9281 256.045 57.8497C256.045 57.7831 256.019 57.7283 255.967 57.6851C255.918 57.6419 255.84 57.6086 255.731 57.5854L255.337 57.5023C255.115 57.456 254.95 57.3781 254.843 57.2685C254.737 57.1578 254.683 57.018 254.685 56.8489C254.683 56.706 254.723 56.5821 254.801 56.4774C254.881 56.3719 254.99 56.2904 255.131 56.233C255.273 56.1747 255.436 56.1454 255.623 56.1454C255.894 56.1454 256.107 56.2033 256.263 56.319C256.421 56.4347 256.518 56.5913 256.555 56.7884ZM257.056 58.4941V56.1756H257.602V58.4941H257.056ZM257.33 55.8465C257.243 55.8465 257.169 55.8179 257.106 55.7605C257.044 55.7022 257.014 55.6323 257.014 55.5508C257.014 55.4681 257.044 55.3982 257.106 55.3409C257.169 55.2825 257.243 55.2532 257.33 55.2532C257.417 55.2532 257.493 55.2825 257.554 55.3409C257.616 55.3982 257.646 55.4681 257.646 55.5508C257.646 55.6323 257.616 55.7022 257.554 55.7605C257.493 55.8179 257.417 55.8465 257.33 55.8465ZM259.321 56.1756V56.5983H257.989V56.1756H259.321ZM258.317 55.6202H258.865V57.7968C258.865 57.8702 258.874 57.9267 258.898 57.9659C258.919 58.0041 258.95 58.0303 258.988 58.0443C259.026 58.0584 259.066 58.0655 259.111 58.0655C259.146 58.0655 259.177 58.0629 259.205 58.058C259.233 58.0528 259.257 58.0483 259.271 58.0443L259.363 58.4715C259.335 58.4816 259.292 58.4927 259.238 58.5048C259.186 58.5168 259.12 58.5239 259.042 58.5258C258.905 58.5298 258.782 58.5093 258.671 58.4639C258.563 58.4176 258.475 58.3463 258.412 58.2495C258.348 58.1529 258.317 58.0322 258.317 57.8872V55.6202ZM260.119 59.3636C260.043 59.3636 259.975 59.3575 259.911 59.3455C259.85 59.3344 259.8 59.3214 259.762 59.3063L259.887 58.8805C259.968 58.9036 260.039 58.9147 260.102 58.9138C260.164 58.9128 260.218 58.8932 260.265 58.855C260.315 58.8177 260.355 58.7553 260.388 58.6677L260.435 58.5426L259.595 56.1756H260.173L260.709 57.9267H260.733L261.269 56.1756H261.85L260.922 58.7749C260.877 58.8977 260.82 59.0028 260.749 59.0904C260.679 59.179 260.589 59.2463 260.487 59.2926C260.383 59.34 260.261 59.3636 260.119 59.3636ZM263.829 55.4027V58.4941H263.281V55.4027H263.829ZM264.391 58.4941V56.1756H264.936V58.4941H264.391ZM264.665 55.8465C264.577 55.8465 264.504 55.8179 264.44 55.7605C264.379 55.7022 264.348 55.6323 264.348 55.5508C264.348 55.4681 264.379 55.3982 264.44 55.3409C264.504 55.2825 264.577 55.2532 264.665 55.2532C264.752 55.2532 264.828 55.2825 264.889 55.3409C264.95 55.3982 264.981 55.4681 264.981 55.5508C264.981 55.6323 264.95 55.7022 264.889 55.7605C264.828 55.8179 264.752 55.8465 264.665 55.8465ZM266.672 56.1756V56.5983H265.302V56.1756H266.672ZM265.645 58.4941V55.9567C265.645 55.8006 265.678 55.671 265.742 55.5673C265.808 55.4637 265.895 55.3862 266.004 55.3347C266.115 55.2835 266.235 55.2577 266.37 55.2577C266.464 55.2577 266.549 55.2653 266.622 55.2804C266.696 55.2955 266.75 55.3092 266.785 55.3213L266.677 55.744C266.653 55.7369 266.622 55.7298 266.589 55.7227C266.554 55.7147 266.514 55.7107 266.471 55.7107C266.37 55.7107 266.297 55.7352 266.254 55.7846C266.214 55.833 266.193 55.9024 266.193 55.9929V58.4941H265.645ZM268.039 58.5395C267.808 58.5395 267.607 58.4911 267.437 58.3945C267.269 58.297 267.14 58.159 267.05 57.981C266.96 57.8018 266.913 57.5909 266.913 57.3484C266.913 57.1098 266.96 56.9006 267.05 56.7204C267.142 56.5393 267.269 56.3986 267.432 56.298C267.598 56.1962 267.789 56.1454 268.011 56.1454C268.155 56.1454 268.29 56.1686 268.415 56.2148C268.545 56.2602 268.656 56.3306 268.755 56.4262C268.852 56.5218 268.93 56.6434 268.986 56.7915C269.043 56.9384 269.071 57.1134 269.071 57.3167V57.4844H267.17V57.116H268.547C268.547 57.0114 268.523 56.9183 268.479 56.8369C268.436 56.7542 268.372 56.6893 268.294 56.642C268.214 56.5948 268.124 56.5712 268.018 56.5712C267.907 56.5712 267.81 56.5983 267.725 56.6527C267.64 56.706 267.574 56.7764 267.527 56.864C267.48 56.9504 267.456 57.0456 267.456 57.1493V57.4707C267.456 57.6055 267.48 57.7212 267.529 57.8178C267.579 57.9135 267.647 57.9869 267.737 58.0384C267.824 58.0887 267.928 58.1137 268.049 58.1137C268.127 58.1137 268.2 58.1026 268.264 58.0806C268.327 58.0575 268.384 58.0237 268.431 57.9793C268.479 57.9352 268.514 57.8804 268.538 57.815L269.048 57.8721C269.017 58.007 268.956 58.1248 268.863 58.2254C268.774 58.3251 268.66 58.4025 268.521 58.458C268.379 58.5123 268.221 58.5395 268.039 58.5395ZM271.761 56.1756V56.5983H270.391V56.1756H271.761ZM270.734 58.4941V55.9567C270.734 55.8006 270.767 55.671 270.831 55.5673C270.897 55.4637 270.984 55.3862 271.093 55.3347C271.204 55.2835 271.324 55.2577 271.459 55.2577C271.553 55.2577 271.638 55.2653 271.711 55.2804C271.785 55.2955 271.839 55.3092 271.874 55.3213L271.766 55.744C271.742 55.7369 271.714 55.7298 271.678 55.7227C271.643 55.7147 271.603 55.7107 271.56 55.7107C271.459 55.7107 271.385 55.7352 271.343 55.7846C271.303 55.833 271.282 55.9024 271.282 55.9929V58.4941H270.734ZM272.191 58.4941V56.1756H272.72V56.562H272.743C272.786 56.4281 272.859 56.3251 272.961 56.2526C273.065 56.1792 273.183 56.1423 273.315 56.1423C273.346 56.1423 273.381 56.144 273.416 56.1468C273.456 56.149 273.487 56.1525 273.513 56.1575V56.6602C273.49 56.6522 273.452 56.6451 273.402 56.639C273.353 56.6319 273.305 56.6283 273.258 56.6283C273.159 56.6283 273.069 56.6501 272.989 56.6933C272.911 56.7355 272.85 56.7946 272.805 56.8699C272.76 56.9455 272.736 57.0324 272.736 57.1311V58.4941H272.191ZM274.791 58.5395C274.564 58.5395 274.368 58.4897 274.203 58.39C274.037 58.2903 273.908 58.151 273.815 57.9718C273.726 57.7928 273.681 57.5833 273.681 57.3439C273.681 57.1044 273.726 56.8947 273.815 56.7145C273.908 56.5344 274.037 56.3945 274.203 56.2949C274.368 56.1952 274.564 56.1454 274.791 56.1454C275.017 56.1454 275.213 56.1952 275.379 56.2949C275.546 56.3945 275.674 56.5344 275.764 56.7145C275.856 56.8947 275.903 57.1044 275.903 57.3439C275.903 57.5833 275.856 57.7928 275.764 57.9718C275.674 58.151 275.546 58.2903 275.379 58.39C275.213 58.4897 275.017 58.5395 274.791 58.5395ZM274.793 58.1017C274.916 58.1017 275.02 58.0679 275.102 58.0006C275.185 57.9321 275.247 57.8405 275.287 57.7257C275.327 57.6112 275.348 57.4832 275.348 57.3424C275.348 57.2005 275.327 57.0723 275.287 56.9575C275.247 56.8418 275.185 56.7497 275.102 56.6812C275.02 56.6128 274.916 56.5785 274.793 56.5785C274.668 56.5785 274.564 56.6128 274.479 56.6812C274.399 56.7497 274.335 56.8418 274.295 56.9575C274.255 57.0723 274.233 57.2005 274.233 57.3424C274.233 57.4832 274.255 57.6112 274.295 57.7257C274.335 57.8405 274.399 57.9321 274.479 58.0006C274.564 58.0679 274.668 58.1017 274.793 58.1017ZM276.366 58.4941V56.1756H276.888V56.5695H276.916C276.963 56.4368 277.044 56.3332 277.155 56.2585C277.268 56.1832 277.4 56.1454 277.556 56.1454C277.712 56.1454 277.844 56.1837 277.953 56.2602C278.061 56.3355 278.137 56.4387 278.182 56.5695H278.205C278.257 56.4408 278.345 56.3381 278.465 56.2616C278.588 56.1841 278.734 56.1454 278.902 56.1454C279.115 56.1454 279.289 56.2127 279.424 56.3478C279.559 56.4826 279.627 56.6793 279.627 56.9379V58.4941H279.079V57.0225C279.079 56.8784 279.039 56.7733 278.963 56.707C278.888 56.6394 278.793 56.6059 278.682 56.6059C278.55 56.6059 278.449 56.647 278.373 56.7296C278.3 56.8111 278.262 56.9171 278.262 57.048V58.4941H277.728V56.9998C277.728 56.8801 277.691 56.7844 277.62 56.7129C277.547 56.6416 277.454 56.6059 277.339 56.6059C277.258 56.6059 277.188 56.626 277.124 56.6661C277.06 56.7053 277.008 56.7613 276.97 56.8338C276.93 56.9051 276.911 56.9887 276.911 57.0843V58.4941H276.366ZM213.825 65.1516C213.598 65.1516 213.402 65.1018 213.236 65.0021C213.07 64.9025 212.941 64.7632 212.85 64.5839C212.759 64.4049 212.714 64.1955 212.714 63.956C212.714 63.7165 212.759 63.5068 212.85 63.3267C212.941 63.1465 213.07 63.0067 213.236 62.907C213.402 62.8074 213.598 62.7575 213.825 62.7575C214.051 62.7575 214.247 62.8074 214.413 62.907C214.58 63.0067 214.708 63.1465 214.798 63.3267C214.89 63.5068 214.936 63.7165 214.936 63.956C214.936 64.1955 214.89 64.4049 214.798 64.5839C214.708 64.7632 214.58 64.9025 214.413 65.0021C214.247 65.1018 214.051 65.1516 213.825 65.1516ZM213.828 64.7138C213.951 64.7138 214.053 64.68 214.136 64.6127C214.218 64.5442 214.28 64.4526 214.32 64.3379C214.361 64.2233 214.382 64.0953 214.382 63.9546C214.382 63.8127 214.361 63.6844 214.32 63.5697C214.28 63.454 214.218 63.3619 214.136 63.2934C214.053 63.2249 213.951 63.1906 213.828 63.1906C213.702 63.1906 213.598 63.2249 213.514 63.2934C213.431 63.3619 213.369 63.454 213.328 63.5697C213.288 63.6844 213.268 63.8127 213.268 63.9546C213.268 64.0953 213.288 64.2233 213.328 64.3379C213.369 64.4526 213.431 64.5442 213.514 64.6127C213.598 64.68 213.702 64.7138 213.828 64.7138ZM215.946 63.7477V65.1063H215.4V62.7878H215.922V63.1817H215.949C216.002 63.0518 216.087 62.9488 216.204 62.8723C216.322 62.7958 216.467 62.7575 216.64 62.7575C216.8 62.7575 216.94 62.7918 217.059 62.8603C217.178 62.9285 217.271 63.0277 217.336 63.1576C217.403 63.2875 217.435 63.4447 217.434 63.6301V65.1063H216.888V63.7147C216.888 63.5595 216.848 63.4384 216.767 63.3508C216.688 63.2631 216.577 63.2195 216.436 63.2195C216.341 63.2195 216.256 63.2405 216.181 63.2827C216.108 63.3241 216.05 63.3841 216.008 63.4625C215.967 63.5409 215.946 63.636 215.946 63.7477ZM218.014 65.1063V62.0149H218.56V63.171H218.583C218.611 63.1148 218.651 63.0549 218.702 62.9916C218.754 62.9271 218.823 62.8723 218.911 62.827C218.998 62.7807 219.11 62.7575 219.246 62.7575C219.425 62.7575 219.586 62.8034 219.73 62.895C219.875 62.9854 219.99 63.1198 220.074 63.2979C220.16 63.475 220.203 63.6925 220.203 63.9501C220.203 64.2047 220.161 64.421 220.077 64.599C219.994 64.7773 219.88 64.9131 219.736 65.0066C219.592 65.1001 219.429 65.1471 219.247 65.1471C219.114 65.1471 219.004 65.1249 218.917 65.0805C218.829 65.0364 218.759 64.983 218.705 64.9207C218.653 64.8571 218.612 64.7974 218.583 64.741H218.551V65.1063H218.014ZM218.55 63.947C218.55 64.097 218.571 64.2283 218.613 64.3409C218.657 64.4538 218.718 64.5416 218.799 64.6052C218.88 64.6675 218.979 64.6987 219.095 64.6987C219.215 64.6987 219.317 64.6666 219.398 64.6021C219.48 64.5367 219.541 64.4477 219.582 64.335C219.624 64.2212 219.646 64.092 219.646 63.947C219.646 63.8032 219.625 63.6752 219.584 63.5635C219.543 63.4518 219.481 63.3645 219.4 63.3009C219.318 63.2376 219.216 63.2058 219.095 63.2058C218.978 63.2058 218.879 63.2365 218.797 63.2979C218.716 63.3593 218.654 63.4454 218.612 63.556C218.571 63.6667 218.55 63.7971 218.55 63.947ZM221.679 65.1516C221.452 65.1516 221.256 65.1018 221.09 65.0021C220.924 64.9025 220.795 64.7632 220.703 64.5839C220.613 64.4049 220.568 64.1955 220.568 63.956C220.568 63.7165 220.613 63.5068 220.703 63.3267C220.795 63.1465 220.924 63.0067 221.09 62.907C221.256 62.8074 221.452 62.7575 221.679 62.7575C221.905 62.7575 222.101 62.8074 222.267 62.907C222.433 63.0067 222.562 63.1465 222.652 63.3267C222.744 63.5068 222.79 63.7165 222.79 63.956C222.79 64.1955 222.744 64.4049 222.652 64.5839C222.562 64.7632 222.433 64.9025 222.267 65.0021C222.101 65.1018 221.905 65.1516 221.679 65.1516ZM221.682 64.7138C221.804 64.7138 221.907 64.68 221.99 64.6127C222.072 64.5442 222.134 64.4526 222.174 64.3379C222.215 64.2233 222.236 64.0953 222.236 63.9546C222.236 63.8127 222.215 63.6844 222.174 63.5697C222.134 63.454 222.072 63.3619 221.99 63.2934C221.907 63.2249 221.804 63.1906 221.682 63.1906C221.556 63.1906 221.451 63.2249 221.368 63.2934C221.285 63.3619 221.223 63.454 221.182 63.5697C221.142 63.6844 221.122 63.8127 221.122 63.9546C221.122 64.0953 221.142 64.2233 221.182 64.3379C221.223 64.4526 221.285 64.5442 221.368 64.6127C221.451 64.68 221.556 64.7138 221.682 64.7138ZM223.92 65.153C223.774 65.153 223.641 65.1268 223.524 65.0746C223.407 65.0213 223.314 64.9429 223.246 64.8392C223.178 64.7355 223.145 64.6075 223.145 64.4557C223.145 64.3249 223.169 64.2167 223.217 64.1312C223.265 64.0457 223.331 63.9773 223.415 63.9258C223.498 63.8745 223.592 63.8358 223.697 63.8096C223.803 63.7824 223.912 63.7628 224.025 63.7508C224.161 63.7366 224.271 63.7241 224.355 63.713C224.44 63.701 224.501 63.6828 224.539 63.6587C224.579 63.6334 224.598 63.5947 224.598 63.5425V63.5333C224.598 63.4197 224.564 63.3316 224.497 63.2693C224.43 63.2069 224.333 63.1758 224.206 63.1758C224.072 63.1758 223.966 63.2048 223.887 63.2631C223.81 63.3215 223.758 63.3904 223.73 63.47L223.22 63.3975C223.26 63.2568 223.327 63.1389 223.419 63.0442C223.512 62.9488 223.625 62.8773 223.759 62.83C223.893 62.7816 224.041 62.7575 224.203 62.7575C224.315 62.7575 224.426 62.7705 224.536 62.7968C224.647 62.823 224.748 62.8662 224.84 62.9266C224.931 62.9859 225.005 63.0669 225.06 63.1696C225.117 63.2724 225.145 63.4006 225.145 63.5545V65.1063H224.619V64.7877H224.601C224.568 64.8522 224.521 64.9126 224.461 64.9688C224.402 65.0243 224.327 65.069 224.236 65.1032C224.146 65.1365 224.041 65.153 223.92 65.153ZM224.062 64.7516C224.172 64.7516 224.267 64.7299 224.348 64.6866C224.428 64.6425 224.49 64.5839 224.533 64.5117C224.578 64.4392 224.6 64.36 224.6 64.2746V64.0013C224.583 64.0155 224.554 64.0285 224.512 64.0405C224.472 64.0526 224.427 64.0632 224.376 64.0722C224.326 64.0814 224.276 64.0894 224.227 64.0965C224.178 64.1036 224.135 64.1095 224.099 64.1145C224.017 64.1256 223.944 64.1437 223.88 64.169C223.815 64.194 223.765 64.2292 223.727 64.2746C223.69 64.3187 223.672 64.3761 223.672 64.4467C223.672 64.5473 223.708 64.6234 223.782 64.6746C223.855 64.7258 223.949 64.7516 224.062 64.7516ZM225.694 65.1063V62.7878H226.224V63.1741H226.248C226.29 63.0402 226.363 62.9373 226.465 62.8648C226.569 62.7913 226.687 62.7545 226.82 62.7545C226.85 62.7545 226.884 62.7561 226.921 62.759C226.96 62.7611 226.991 62.7646 227.016 62.7696V63.2724C226.993 63.2643 226.957 63.2572 226.906 63.2511C226.857 63.244 226.809 63.2405 226.763 63.2405C226.663 63.2405 226.574 63.2622 226.494 63.3054C226.416 63.3477 226.354 63.4067 226.308 63.4821C226.263 63.5576 226.241 63.6445 226.241 63.7432V65.1063H225.694ZM228.144 65.1471C227.962 65.1471 227.799 65.1001 227.655 65.0066C227.511 64.9131 227.398 64.7773 227.314 64.599C227.231 64.421 227.189 64.2047 227.189 63.9501C227.189 63.6925 227.231 63.475 227.316 63.2979C227.401 63.1198 227.517 62.9854 227.661 62.895C227.806 62.8034 227.968 62.7575 228.146 62.7575C228.282 62.7575 228.393 62.7807 228.481 62.827C228.569 62.8723 228.638 62.9271 228.689 62.9916C228.741 63.0549 228.78 63.1148 228.809 63.171H228.831V62.0149H229.379V65.1063H228.842V64.741H228.809C228.78 64.7974 228.74 64.8571 228.686 64.9207C228.633 64.983 228.562 65.0364 228.475 65.0805C228.387 65.1249 228.277 65.1471 228.144 65.1471ZM228.297 64.6987C228.412 64.6987 228.511 64.6675 228.593 64.6052C228.674 64.5416 228.736 64.4538 228.778 64.3409C228.821 64.2283 228.842 64.097 228.842 63.947C228.842 63.7971 228.821 63.6667 228.778 63.556C228.737 63.4454 228.676 63.3593 228.594 63.2979C228.514 63.2365 228.415 63.2058 228.297 63.2058C228.175 63.2058 228.073 63.2376 227.992 63.3009C227.91 63.3645 227.849 63.4518 227.808 63.5635C227.767 63.6752 227.746 63.8032 227.746 63.947C227.746 64.092 227.767 64.2212 227.808 64.335C227.85 64.4477 227.912 64.5367 227.994 64.6021C228.076 64.6666 228.177 64.6987 228.297 64.6987ZM229.961 65.1063V62.7878H230.508V65.1063H229.961ZM230.236 62.4586C230.15 62.4586 230.075 62.43 230.013 62.3726C229.95 62.3143 229.919 62.2444 229.919 62.1629C229.919 62.0803 229.95 62.0104 230.013 61.953C230.075 61.8947 230.15 61.8654 230.236 61.8654C230.324 61.8654 230.398 61.8947 230.46 61.953C230.522 62.0104 230.553 62.0803 230.553 62.1629C230.553 62.2444 230.522 62.3143 230.46 62.3726C230.398 62.43 230.324 62.4586 230.236 62.4586ZM231.616 63.7477V65.1063H231.07V62.7878H231.592V63.1817H231.619C231.673 63.0518 231.758 62.9488 231.874 62.8723C231.992 62.7958 232.137 62.7575 232.311 62.7575C232.47 62.7575 232.61 62.7918 232.729 62.8603C232.848 62.9285 232.941 63.0277 233.007 63.1576C233.073 63.2875 233.105 63.4447 233.105 63.6301V65.1063H232.558V63.7147C232.558 63.5595 232.518 63.4384 232.437 63.3508C232.358 63.2631 232.248 63.2195 232.107 63.2195C232.011 63.2195 231.926 63.2405 231.852 63.2827C231.778 63.3241 231.72 63.3841 231.678 63.4625C231.637 63.5409 231.616 63.636 231.616 63.7477ZM234.668 66.0239C234.472 66.0239 234.303 65.9973 234.163 65.9441C234.022 65.8917 233.909 65.8213 233.823 65.7328C233.737 65.6442 233.678 65.546 233.645 65.4383L234.137 65.319C234.159 65.3644 234.191 65.4093 234.234 65.4534C234.276 65.4988 234.333 65.5361 234.404 65.5651C234.477 65.5953 234.568 65.6105 234.677 65.6105C234.832 65.6105 234.961 65.5727 235.062 65.4973C235.164 65.4227 235.215 65.2999 235.215 65.1289V64.6897H235.188C235.159 64.7459 235.118 64.8038 235.064 64.8633C235.01 64.9226 234.94 64.9724 234.851 65.0128C234.763 65.0529 234.653 65.073 234.52 65.073C234.342 65.073 234.181 65.0314 234.036 64.9478C233.892 64.8633 233.777 64.7374 233.692 64.5705C233.607 64.4023 233.565 64.1921 233.565 63.9395C233.565 63.6849 233.607 63.47 233.692 63.295C233.777 63.1189 233.893 62.9854 234.037 62.895C234.182 62.8034 234.344 62.7575 234.522 62.7575C234.658 62.7575 234.769 62.7807 234.857 62.827C234.946 62.8723 235.016 62.9271 235.068 62.9916C235.121 63.0549 235.16 63.1148 235.188 63.171H235.218V62.7878H235.757V65.1441C235.757 65.3422 235.709 65.5063 235.615 65.6362C235.52 65.7658 235.391 65.8631 235.227 65.9274C235.063 65.9918 234.877 66.0239 234.668 66.0239ZM234.673 64.6444C234.788 64.6444 234.887 64.6163 234.969 64.5598C235.05 64.5034 235.112 64.4224 235.154 64.3168C235.197 64.2113 235.218 64.0845 235.218 63.9364C235.218 63.7905 235.197 63.6627 235.154 63.5531C235.113 63.4433 235.052 63.3583 234.97 63.2979C234.89 63.2365 234.791 63.2058 234.673 63.2058C234.551 63.2058 234.449 63.2376 234.368 63.3009C234.286 63.3645 234.225 63.4514 234.184 63.5621C234.143 63.6717 234.122 63.7966 234.122 63.9364C234.122 64.0783 234.143 64.2025 234.184 64.3093C234.226 64.4148 234.288 64.4975 234.37 64.5568C234.452 64.6151 234.553 64.6444 234.673 64.6444ZM238.528 62.7878V63.2105H237.196V62.7878H238.528ZM237.524 62.2324H238.072V64.4089C238.072 64.4824 238.082 64.5388 238.105 64.578C238.129 64.6163 238.157 64.6425 238.195 64.6564C238.233 64.6706 238.273 64.6777 238.32 64.6777C238.353 64.6777 238.384 64.6751 238.412 64.6701C238.443 64.6649 238.464 64.6604 238.478 64.6564L238.57 65.0836C238.542 65.0938 238.5 65.1049 238.445 65.1169C238.393 65.129 238.327 65.136 238.249 65.1379C238.112 65.1419 237.989 65.1214 237.881 65.0761C237.77 65.0298 237.682 64.9584 237.619 64.8616C237.555 64.765 237.524 64.6444 237.524 64.4994V62.2324ZM239.973 65.1516C239.746 65.1516 239.55 65.1018 239.383 65.0021C239.217 64.9025 239.088 64.7632 238.998 64.5839C238.906 64.4049 238.861 64.1955 238.861 63.956C238.861 63.7165 238.906 63.5068 238.998 63.3267C239.088 63.1465 239.217 63.0067 239.383 62.907C239.55 62.8074 239.746 62.7575 239.973 62.7575C240.2 62.7575 240.396 62.8074 240.561 62.907C240.726 63.0067 240.856 63.1465 240.946 63.3267C241.038 63.5068 241.083 63.7165 241.083 63.956C241.083 64.1955 241.038 64.4049 240.946 64.5839C240.856 64.7632 240.726 64.9025 240.561 65.0021C240.396 65.1018 240.2 65.1516 239.973 65.1516ZM239.975 64.7138C240.098 64.7138 240.2 64.68 240.282 64.6127C240.365 64.5442 240.427 64.4526 240.467 64.3379C240.509 64.2233 240.528 64.0953 240.528 63.9546C240.528 63.8127 240.509 63.6844 240.467 63.5697C240.427 63.454 240.365 63.3619 240.282 63.2934C240.2 63.2249 240.098 63.1906 239.975 63.1906C239.85 63.1906 239.744 63.2249 239.661 63.2934C239.579 63.3619 239.517 63.454 239.475 63.5697C239.435 63.6844 239.416 63.8127 239.416 63.9546C239.416 64.0953 239.435 64.2233 239.475 64.3379C239.517 64.4526 239.579 64.5442 239.661 64.6127C239.744 64.68 239.85 64.7138 239.975 64.7138ZM243.61 66.0239C243.414 66.0239 243.244 65.9973 243.104 65.9441C242.963 65.8917 242.849 65.8213 242.764 65.7328C242.679 65.6442 242.62 65.546 242.587 65.4383L243.078 65.319C243.1 65.3644 243.133 65.4093 243.175 65.4534C243.218 65.4988 243.274 65.5361 243.345 65.5651C243.419 65.5953 243.508 65.6105 243.619 65.6105C243.773 65.6105 243.903 65.5727 244.004 65.4973C244.106 65.4227 244.155 65.2999 244.155 65.1289V64.6897H244.129C244.101 64.7459 244.058 64.8038 244.004 64.8633C243.952 64.9226 243.881 64.9724 243.792 65.0128C243.704 65.0529 243.596 65.073 243.461 65.073C243.284 65.073 243.121 65.0314 242.977 64.9478C242.833 64.8633 242.719 64.7374 242.632 64.5705C242.549 64.4023 242.507 64.1921 242.507 63.9395C242.507 63.6849 242.549 63.47 242.632 63.295C242.719 63.1189 242.833 62.9854 242.979 62.895C243.123 62.8034 243.286 62.7575 243.463 62.7575C243.598 62.7575 243.711 62.7807 243.799 62.827C243.886 62.8723 243.957 62.9271 244.009 62.9916C244.061 63.0549 244.101 63.1148 244.129 63.171H244.16V62.7878H244.698V65.1441C244.698 65.3422 244.651 65.5063 244.557 65.6362C244.462 65.7658 244.332 65.8631 244.167 65.9274C244.004 65.9918 243.818 66.0239 243.61 66.0239ZM243.615 64.6444C243.73 64.6444 243.829 64.6163 243.91 64.5598C243.992 64.5034 244.054 64.4224 244.096 64.3168C244.139 64.2113 244.16 64.0845 244.16 63.9364C244.16 63.7905 244.139 63.6627 244.096 63.5531C244.054 63.4433 243.992 63.3583 243.912 63.2979C243.832 63.2365 243.733 63.2058 243.615 63.2058C243.492 63.2058 243.39 63.2376 243.31 63.3009C243.227 63.3645 243.166 63.4514 243.126 63.5621C243.083 63.6717 243.064 63.7966 243.064 63.9364C243.064 64.0783 243.083 64.2025 243.126 64.3093C243.168 64.4148 243.23 64.4975 243.31 64.5568C243.393 64.6151 243.494 64.6444 243.615 64.6444ZM245.258 65.1063V62.7878H245.787V63.1741H245.813C245.853 63.0402 245.926 62.9373 246.03 62.8648C246.132 62.7913 246.252 62.7545 246.385 62.7545C246.415 62.7545 246.448 62.7561 246.486 62.759C246.524 62.7611 246.555 62.7646 246.581 62.7696V63.2724C246.557 63.2643 246.521 63.2572 246.47 63.2511C246.42 63.244 246.373 63.2405 246.328 63.2405C246.226 63.2405 246.137 63.2622 246.059 63.3054C245.978 63.3477 245.917 63.4067 245.872 63.4821C245.827 63.5576 245.804 63.6445 245.804 63.7432V65.1063H245.258ZM247.57 65.153C247.421 65.153 247.289 65.1268 247.171 65.0746C247.055 65.0213 246.963 64.9429 246.895 64.8392C246.826 64.7355 246.793 64.6075 246.793 64.4557C246.793 64.3249 246.817 64.2167 246.866 64.1312C246.913 64.0457 246.98 63.9773 247.062 63.9258C247.147 63.8745 247.242 63.8358 247.346 63.8096C247.452 63.7824 247.561 63.7628 247.674 63.7508C247.809 63.7366 247.919 63.7241 248.004 63.713C248.087 63.701 248.149 63.6828 248.189 63.6587C248.226 63.6334 248.248 63.5947 248.248 63.5425V63.5333C248.248 63.4197 248.212 63.3316 248.146 63.2693C248.078 63.2069 247.981 63.1758 247.853 63.1758C247.721 63.1758 247.615 63.2048 247.537 63.2631C247.459 63.3215 247.407 63.3904 247.379 63.47L246.869 63.3975C246.909 63.2568 246.975 63.1389 247.067 63.0442C247.161 62.9488 247.275 62.8773 247.407 62.83C247.542 62.7816 247.69 62.7575 247.851 62.7575C247.962 62.7575 248.073 62.7705 248.184 62.7968C248.295 62.823 248.397 62.8662 248.489 62.9266C248.581 62.9859 248.654 63.0669 248.708 63.1696C248.765 63.2724 248.793 63.4006 248.793 63.5545V65.1063H248.269V64.7877H248.25C248.217 64.8522 248.17 64.9126 248.108 64.9688C248.049 65.0243 247.976 65.069 247.884 65.1032C247.794 65.1365 247.69 65.153 247.57 65.153ZM247.712 64.7516C247.82 64.7516 247.915 64.7299 247.995 64.6866C248.078 64.6425 248.139 64.5839 248.182 64.5117C248.226 64.4392 248.248 64.36 248.248 64.2746V64.0013C248.231 64.0155 248.203 64.0285 248.16 64.0405C248.12 64.0526 248.075 64.0632 248.026 64.0722C247.974 64.0814 247.924 64.0894 247.875 64.0965C247.825 64.1036 247.783 64.1095 247.747 64.1145C247.664 64.1256 247.594 64.1437 247.527 64.169C247.464 64.194 247.414 64.2292 247.376 64.2746C247.339 64.3187 247.32 64.3761 247.32 64.4467C247.32 64.5473 247.357 64.6234 247.431 64.6746C247.504 64.7258 247.598 64.7516 247.712 64.7516ZM250.203 65.1471C250.021 65.1471 249.858 65.1001 249.714 65.0066C249.57 64.9131 249.457 64.7773 249.372 64.599C249.289 64.421 249.247 64.2047 249.247 63.9501C249.247 63.6925 249.289 63.475 249.374 63.2979C249.459 63.1198 249.575 62.9854 249.719 62.895C249.865 62.8034 250.026 62.7575 250.205 62.7575C250.34 62.7575 250.451 62.7807 250.541 62.827C250.628 62.8723 250.697 62.9271 250.749 62.9916C250.798 63.0549 250.838 63.1148 250.867 63.171H250.89V62.0149H251.438V65.1063H250.9V64.741H250.867C250.838 64.7974 250.798 64.8571 250.744 64.9207C250.692 64.983 250.621 65.0364 250.534 65.0805C250.446 65.1249 250.335 65.1471 250.203 65.1471ZM250.357 64.6987C250.472 64.6987 250.569 64.6675 250.652 64.6052C250.732 64.5416 250.796 64.4538 250.836 64.3409C250.878 64.2283 250.9 64.097 250.9 63.947C250.9 63.7971 250.878 63.6667 250.836 63.556C250.796 63.4454 250.734 63.3593 250.652 63.2979C250.571 63.2365 250.472 63.2058 250.357 63.2058C250.234 63.2058 250.132 63.2376 250.05 63.3009C249.969 63.3645 249.908 63.4518 249.865 63.5635C249.825 63.6752 249.804 63.8032 249.804 63.947C249.804 64.092 249.825 64.2212 249.865 64.335C249.908 64.4477 249.972 64.5367 250.052 64.6021C250.135 64.6666 250.236 64.6987 250.357 64.6987ZM253.497 64.1312V62.7878H254.045V65.1063H253.514V64.6942H253.49C253.438 64.8241 253.351 64.9301 253.233 65.0128C253.112 65.0952 252.966 65.1365 252.794 65.1365C252.64 65.1365 252.505 65.1027 252.39 65.0354C252.274 64.967 252.184 64.8678 252.118 64.7379C252.052 64.6071 252.019 64.4491 252.019 64.2639V62.7878H252.567V64.1794C252.567 64.3263 252.607 64.4432 252.687 64.5296C252.768 64.6163 252.874 64.6595 253.004 64.6595C253.084 64.6595 253.162 64.6399 253.238 64.6007C253.313 64.5612 253.375 64.5029 253.424 64.4255C253.474 64.3471 253.497 64.2488 253.497 64.1312ZM255.273 65.153C255.127 65.153 254.994 65.1268 254.876 65.0746C254.761 65.0213 254.666 64.9429 254.598 64.8392C254.532 64.7355 254.499 64.6075 254.499 64.4557C254.499 64.3249 254.522 64.2167 254.569 64.1312C254.619 64.0457 254.685 63.9773 254.768 63.9258C254.85 63.8745 254.945 63.8358 255.049 63.8096C255.155 63.7824 255.264 63.7628 255.377 63.7508C255.514 63.7366 255.623 63.7241 255.708 63.713C255.793 63.701 255.854 63.6828 255.892 63.6587C255.932 63.6334 255.951 63.5947 255.951 63.5425V63.5333C255.951 63.4197 255.918 63.3316 255.849 63.2693C255.783 63.2069 255.686 63.1758 255.559 63.1758C255.424 63.1758 255.318 63.2048 255.24 63.2631C255.162 63.3215 255.11 63.3904 255.084 63.47L254.572 63.3975C254.614 63.2568 254.68 63.1389 254.772 63.0442C254.865 62.9488 254.978 62.8773 255.113 62.83C255.245 62.7816 255.394 62.7575 255.556 62.7575C255.667 62.7575 255.778 62.7705 255.889 62.7968C256 62.823 256.102 62.8662 256.192 62.9266C256.284 62.9859 256.357 63.0669 256.414 63.1696C256.47 63.2724 256.496 63.4006 256.496 63.5545V65.1063H255.972V64.7877H255.953C255.92 64.8522 255.873 64.9126 255.814 64.9688C255.755 65.0243 255.679 65.069 255.59 65.1032C255.5 65.1365 255.394 65.153 255.273 65.153ZM255.415 64.7516C255.526 64.7516 255.62 64.7299 255.701 64.6866C255.781 64.6425 255.842 64.5839 255.887 64.5117C255.93 64.4392 255.953 64.36 255.953 64.2746V64.0013C255.934 64.0155 255.906 64.0285 255.866 64.0405C255.826 64.0526 255.778 64.0632 255.729 64.0722C255.679 64.0814 255.63 64.0894 255.58 64.0965C255.531 64.1036 255.488 64.1095 255.453 64.1145C255.37 64.1256 255.297 64.1437 255.233 64.169C255.169 64.194 255.117 64.2292 255.079 64.2746C255.042 64.3187 255.025 64.3761 255.025 64.4467C255.025 64.5473 255.061 64.6234 255.134 64.6746C255.207 64.7258 255.301 64.7516 255.415 64.7516ZM258.204 62.7878V63.2105H256.872V62.7878H258.204ZM257.2 62.2324H257.748V64.4089C257.748 64.4824 257.757 64.5388 257.781 64.578C257.805 64.6163 257.833 64.6425 257.871 64.6564C257.909 64.6706 257.949 64.6777 257.996 64.6777C258.029 64.6777 258.06 64.6751 258.088 64.6701C258.119 64.6649 258.14 64.6604 258.154 64.6564L258.246 65.0836C258.218 65.0938 258.175 65.1049 258.121 65.1169C258.069 65.129 258.003 65.136 257.925 65.1379C257.788 65.1419 257.665 65.1214 257.557 65.0761C257.446 65.0298 257.358 64.9584 257.295 64.8616C257.231 64.765 257.2 64.6444 257.2 64.4994V62.2324ZM258.662 65.1063V62.7878H259.207V65.1063H258.662ZM258.936 62.4586C258.851 62.4586 258.775 62.43 258.714 62.3726C258.65 62.3143 258.619 62.2444 258.619 62.1629C258.619 62.0803 258.65 62.0104 258.714 61.953C258.775 61.8947 258.851 61.8654 258.936 61.8654C259.023 61.8654 259.099 61.8947 259.16 61.953C259.222 62.0104 259.252 62.0803 259.252 62.1629C259.252 62.2444 259.222 62.3143 259.16 62.3726C259.099 62.43 259.023 62.4586 258.936 62.4586ZM260.782 65.1516C260.556 65.1516 260.36 65.1018 260.192 65.0021C260.027 64.9025 259.897 64.7632 259.807 64.5839C259.715 64.4049 259.67 64.1955 259.67 63.956C259.67 63.7165 259.715 63.5068 259.807 63.3267C259.897 63.1465 260.027 63.0067 260.192 62.907C260.36 62.8074 260.556 62.7575 260.782 62.7575C261.007 62.7575 261.205 62.8074 261.37 62.907C261.536 63.0067 261.663 63.1465 261.755 63.3267C261.847 63.5068 261.892 63.7165 261.892 63.956C261.892 64.1955 261.847 64.4049 261.755 64.5839C261.663 64.7632 261.536 64.9025 261.37 65.0021C261.205 65.1018 261.007 65.1516 260.782 65.1516ZM260.785 64.7138C260.908 64.7138 261.009 64.68 261.092 64.6127C261.174 64.5442 261.236 64.4526 261.276 64.3379C261.319 64.2233 261.337 64.0953 261.337 63.9546C261.337 63.8127 261.319 63.6844 261.276 63.5697C261.236 63.454 261.174 63.3619 261.092 63.2934C261.009 63.2249 260.908 63.1906 260.785 63.1906C260.66 63.1906 260.553 63.2249 260.471 63.2934C260.388 63.3619 260.327 63.454 260.284 63.5697C260.244 63.6844 260.225 63.8127 260.225 63.9546C260.225 64.0953 260.244 64.2233 260.284 64.3379C260.327 64.4526 260.388 64.5442 260.471 64.6127C260.553 64.68 260.66 64.7138 260.785 64.7138ZM262.903 63.7477V65.1063H262.355V62.7878H262.879V63.1817H262.905C262.96 63.0518 263.045 62.9488 263.16 62.8723C263.279 62.7958 263.425 62.7575 263.597 62.7575C263.758 62.7575 263.897 62.7918 264.015 62.8603C264.136 62.9285 264.228 63.0277 264.292 63.1576C264.36 63.2875 264.391 63.4447 264.391 63.6301V65.1063H263.845V63.7147C263.845 63.5595 263.805 63.4384 263.725 63.3508C263.645 63.2631 263.534 63.2195 263.394 63.2195C263.297 63.2195 263.212 63.2405 263.137 63.2827C263.064 63.3241 263.007 63.3841 262.964 63.4625C262.924 63.5409 262.903 63.636 262.903 63.7477ZM265.283 65.1396C265.191 65.1396 265.113 65.1072 265.047 65.043C264.981 64.9785 264.95 64.8999 264.95 64.8073C264.95 64.7169 264.981 64.6394 265.047 64.5749C265.113 64.5105 265.191 64.4784 265.283 64.4784C265.371 64.4784 265.449 64.5105 265.515 64.5749C265.581 64.6394 265.614 64.7169 265.614 64.8073C265.614 64.8687 265.597 64.9247 265.567 64.975C265.536 65.0253 265.496 65.0654 265.446 65.0956C265.397 65.1249 265.342 65.1396 265.283 65.1396Z" fill="white"/>
<mask id="mask1_6485_36564" style="mask-type:luminance" maskUnits="userSpaceOnUse" x="295" y="18" width="50" height="57">
<path d="M295.185 21.1829C295.185 19.6178 296.453 18.3491 298.018 18.3491H341.233C342.799 18.3491 344.067 19.6178 344.067 21.1829V71.7185C344.067 73.2835 342.799 74.5523 341.233 74.5523H298.018C296.453 74.5523 295.185 73.2835 295.185 71.7185V21.1829Z" fill="white"/>
</mask>
<g mask="url(#mask1_6485_36564)">
<path d="M295.185 21.1829C295.185 19.6178 296.453 18.3491 298.018 18.3491H341.233C342.799 18.3491 344.067 19.6178 344.067 21.1829V71.7185C344.067 73.2835 342.799 74.5523 341.233 74.5523H298.018C296.453 74.5523 295.185 73.2835 295.185 71.7185V21.1829Z" fill="#F3F2FF"/>
<path d="M292.351 46.4336C292.351 45.3903 293.196 44.5444 294.24 44.5444H345.012C346.055 44.5444 346.901 45.3903 346.901 46.4336V46.9163H292.351V46.4336Z" fill="#9B0003"/>
<path fill-rule="evenodd" clip-rule="evenodd" d="M329.244 33.7397H310.007V46.9161H292.351V66.6361C292.351 67.6794 293.196 68.5253 294.24 68.5253H345.012C346.055 68.5253 346.901 67.6794 346.901 66.6361V46.9161H329.244V33.7397Z" fill="#FDCDA5"/>
<path d="M319.446 24.5274C319.623 24.3704 319.89 24.3704 320.07 24.5274L332.739 35.68C333.067 35.9676 332.864 36.5068 332.427 36.5068H307.086C306.652 36.5068 306.449 35.9676 306.774 35.68L319.446 24.5274Z" fill="#9B0003"/>
<path d="M319.758 45.5983C321.65 45.5983 323.184 44.0645 323.184 42.1724C323.184 40.2804 321.65 38.7466 319.758 38.7466C317.866 38.7466 316.332 40.2804 316.332 42.1724C316.332 44.0645 317.866 45.5983 319.758 45.5983Z" fill="#E13B78" fill-opacity="0.6"/>
<path d="M313.434 58.6928C313.434 58.3015 313.751 57.9844 314.143 57.9844H325.109C325.501 57.9844 325.818 58.3015 325.818 58.6928V68.5253H313.434V58.6928Z" fill="#E13B78" fill-opacity="0.6"/>
<path d="M299.555 51.396H296.721C296.2 51.396 295.777 51.8189 295.777 52.3406V55.1744C295.777 55.696 296.2 56.119 296.721 56.119H299.555C300.077 56.119 300.5 55.696 300.5 55.1744V52.3406C300.5 51.8189 300.077 51.396 299.555 51.396Z" fill="#E13B78" fill-opacity="0.6"/>
<path d="M305.695 51.396H302.862C302.34 51.396 301.917 51.8189 301.917 52.3406V55.1744C301.917 55.696 302.34 56.119 302.862 56.119H305.695C306.217 56.119 306.64 55.696 306.64 55.1744V52.3406C306.64 51.8189 306.217 51.396 305.695 51.396Z" fill="#E13B78" fill-opacity="0.6"/>
<path d="M299.555 57.5361H296.721C296.2 57.5361 295.777 57.959 295.777 58.4807V61.3145C295.777 61.8362 296.2 62.2591 296.721 62.2591H299.555C300.077 62.2591 300.5 61.8362 300.5 61.3145V58.4807C300.5 57.959 300.077 57.5361 299.555 57.5361Z" fill="#E13B78" fill-opacity="0.6"/>
<path d="M305.695 57.5361H302.862C302.34 57.5361 301.917 57.959 301.917 58.4807V61.3145C301.917 61.8362 302.34 62.2591 302.862 62.2591H305.695C306.217 62.2591 306.64 61.8362 306.64 61.3145V58.4807C306.64 57.959 306.217 57.5361 305.695 57.5361Z" fill="#E13B78" fill-opacity="0.6"/>
<path d="M335.131 51.396H332.297C331.775 51.396 331.353 51.8189 331.353 52.3406V55.1744C331.353 55.696 331.775 56.119 332.297 56.119H335.131C335.653 56.119 336.075 55.696 336.075 55.1744V52.3406C336.075 51.8189 335.653 51.396 335.131 51.396Z" fill="#E13B78" fill-opacity="0.6"/>
<path d="M341.271 51.396H338.437C337.916 51.396 337.493 51.8189 337.493 52.3406V55.1744C337.493 55.696 337.916 56.119 338.437 56.119H341.271C341.793 56.119 342.216 55.696 342.216 55.1744V52.3406C342.216 51.8189 341.793 51.396 341.271 51.396Z" fill="#E13B78" fill-opacity="0.6"/>
<path d="M335.131 57.5361H332.297C331.775 57.5361 331.353 57.959 331.353 58.4807V61.3145C331.353 61.8362 331.775 62.2591 332.297 62.2591H335.131C335.653 62.2591 336.075 61.8362 336.075 61.3145V58.4807C336.075 57.959 335.653 57.5361 335.131 57.5361Z" fill="#E13B78" fill-opacity="0.6"/>
<path d="M341.271 57.5361H338.437C337.916 57.5361 337.493 57.959 337.493 58.4807V61.3145C337.493 61.8362 337.916 62.2591 338.437 62.2591H341.271C341.793 62.2591 342.216 61.8362 342.216 61.3145V58.4807C342.216 57.959 341.793 57.5361 341.271 57.5361Z" fill="#E13B78" fill-opacity="0.6"/>
</g>
</g>
<defs>
<clipPath id="clip0_6485_36564">
<rect width="358" height="143.578" fill="white" transform="translate(0 0.638184)"/>
</clipPath>
</defs>
</svg>
